%TF.GenerationSoftware,KiCad,Pcbnew,5.1.12-84ad8e8a86~92~ubuntu18.04.1*%
%TF.CreationDate,2021-11-25T10:44:01-05:00*%
%TF.ProjectId,vectron_vga_plus_design,76656374-726f-46e5-9f76-67615f706c75,rev?*%
%TF.SameCoordinates,Original*%
%TF.FileFunction,Soldermask,Bot*%
%TF.FilePolarity,Negative*%
%FSLAX46Y46*%
G04 Gerber Fmt 4.6, Leading zero omitted, Abs format (unit mm)*
G04 Created by KiCad (PCBNEW 5.1.12-84ad8e8a86~92~ubuntu18.04.1) date 2021-11-25 10:44:01*
%MOMM*%
%LPD*%
G01*
G04 APERTURE LIST*
%ADD10C,1.676400*%
%ADD11R,1.676400X1.676400*%
%ADD12C,1.295400*%
%ADD13R,1.295400X1.295400*%
%ADD14C,1.170000*%
%ADD15R,1.170000X1.170000*%
%ADD16O,1.600000X1.600000*%
%ADD17C,1.600000*%
%ADD18O,1.700000X1.700000*%
%ADD19R,1.700000X1.700000*%
%ADD20C,4.066000*%
%ADD21C,1.785000*%
%ADD22R,1.785000X1.785000*%
%ADD23C,2.000000*%
%ADD24R,2.000000X2.000000*%
G04 APERTURE END LIST*
D10*
%TO.C,U17*%
X537210000Y-508000000D03*
X539750000Y-508000000D03*
X542290000Y-508000000D03*
X544830000Y-508000000D03*
X547370000Y-508000000D03*
X549910000Y-508000000D03*
X552450000Y-508000000D03*
X554990000Y-508000000D03*
X557530000Y-508000000D03*
X560070000Y-508000000D03*
X560070000Y-515620000D03*
X557530000Y-515620000D03*
X554990000Y-515620000D03*
X552450000Y-515620000D03*
X549910000Y-515620000D03*
X547370000Y-515620000D03*
X544830000Y-515620000D03*
X542290000Y-515620000D03*
X539750000Y-515620000D03*
D11*
X537210000Y-515620000D03*
%TD*%
D12*
%TO.C,U18*%
X554990000Y-491490000D03*
X552450000Y-491490000D03*
X549910000Y-491490000D03*
X547370000Y-491490000D03*
X544830000Y-491490000D03*
X542290000Y-491490000D03*
X539750000Y-491490000D03*
X537210000Y-491490000D03*
X537210000Y-483870000D03*
X539750000Y-483870000D03*
X542290000Y-483870000D03*
X544830000Y-483870000D03*
X547370000Y-483870000D03*
X549910000Y-483870000D03*
X552450000Y-483870000D03*
D13*
X554990000Y-483870000D03*
%TD*%
D10*
%TO.C,U16*%
X560070000Y-552450000D03*
X557530000Y-552450000D03*
X554990000Y-552450000D03*
X552450000Y-552450000D03*
X549910000Y-552450000D03*
X547370000Y-552450000D03*
X544830000Y-552450000D03*
X542290000Y-552450000D03*
X539750000Y-552450000D03*
X537210000Y-552450000D03*
X537210000Y-544830000D03*
X539750000Y-544830000D03*
X542290000Y-544830000D03*
X544830000Y-544830000D03*
X547370000Y-544830000D03*
X549910000Y-544830000D03*
X552450000Y-544830000D03*
X554990000Y-544830000D03*
X557530000Y-544830000D03*
D11*
X560070000Y-544830000D03*
%TD*%
D10*
%TO.C,U15*%
X508000000Y-508000000D03*
X510540000Y-508000000D03*
X513080000Y-508000000D03*
X515620000Y-508000000D03*
X518160000Y-508000000D03*
X520700000Y-508000000D03*
X523240000Y-508000000D03*
X525780000Y-508000000D03*
X528320000Y-508000000D03*
X530860000Y-508000000D03*
X530860000Y-515620000D03*
X528320000Y-515620000D03*
X525780000Y-515620000D03*
X523240000Y-515620000D03*
X520700000Y-515620000D03*
X518160000Y-515620000D03*
X515620000Y-515620000D03*
X513080000Y-515620000D03*
X510540000Y-515620000D03*
D11*
X508000000Y-515620000D03*
%TD*%
D12*
%TO.C,U14*%
X533400000Y-491490000D03*
X530860000Y-491490000D03*
X528320000Y-491490000D03*
X525780000Y-491490000D03*
X523240000Y-491490000D03*
X520700000Y-491490000D03*
X518160000Y-491490000D03*
X515620000Y-491490000D03*
X515620000Y-483870000D03*
X518160000Y-483870000D03*
X520700000Y-483870000D03*
X523240000Y-483870000D03*
X525780000Y-483870000D03*
X528320000Y-483870000D03*
X530860000Y-483870000D03*
D13*
X533400000Y-483870000D03*
%TD*%
D14*
%TO.C,U13*%
X503080000Y-504190000D03*
X503080000Y-506730000D03*
X503080000Y-509270000D03*
X503080000Y-511810000D03*
X503080000Y-514350000D03*
X503080000Y-516890000D03*
X503080000Y-519430000D03*
X495140000Y-519430000D03*
X495140000Y-516890000D03*
X495140000Y-514350000D03*
X495140000Y-511810000D03*
X495140000Y-509270000D03*
X495140000Y-506730000D03*
D15*
X495140000Y-504190000D03*
%TD*%
D10*
%TO.C,U12*%
X513080000Y-554990000D03*
X510540000Y-554990000D03*
X508000000Y-554990000D03*
X505460000Y-554990000D03*
X502920000Y-554990000D03*
X500380000Y-554990000D03*
X497840000Y-554990000D03*
X495300000Y-554990000D03*
X492760000Y-554990000D03*
X490220000Y-554990000D03*
X487680000Y-554990000D03*
X485140000Y-554990000D03*
X482600000Y-554990000D03*
X480060000Y-554990000D03*
X477520000Y-554990000D03*
X474980000Y-554990000D03*
X474980000Y-539750000D03*
X477520000Y-539750000D03*
X480060000Y-539750000D03*
X482600000Y-539750000D03*
X485140000Y-539750000D03*
X487680000Y-539750000D03*
X490220000Y-539750000D03*
X492760000Y-539750000D03*
X495300000Y-539750000D03*
X497840000Y-539750000D03*
X500380000Y-539750000D03*
X502920000Y-539750000D03*
X505460000Y-539750000D03*
X508000000Y-539750000D03*
X510540000Y-539750000D03*
D11*
X513080000Y-539750000D03*
%TD*%
D12*
%TO.C,U11*%
X511810000Y-491490000D03*
X509270000Y-491490000D03*
X506730000Y-491490000D03*
X504190000Y-491490000D03*
X501650000Y-491490000D03*
X499110000Y-491490000D03*
X496570000Y-491490000D03*
X494030000Y-491490000D03*
X494030000Y-483870000D03*
X496570000Y-483870000D03*
X499110000Y-483870000D03*
X501650000Y-483870000D03*
X504190000Y-483870000D03*
X506730000Y-483870000D03*
X509270000Y-483870000D03*
D13*
X511810000Y-483870000D03*
%TD*%
D14*
%TO.C,U10*%
X489110000Y-504190000D03*
X489110000Y-506730000D03*
X489110000Y-509270000D03*
X489110000Y-511810000D03*
X489110000Y-514350000D03*
X489110000Y-516890000D03*
X489110000Y-519430000D03*
X481170000Y-519430000D03*
X481170000Y-516890000D03*
X481170000Y-514350000D03*
X481170000Y-511810000D03*
X481170000Y-509270000D03*
X481170000Y-506730000D03*
D15*
X481170000Y-504190000D03*
%TD*%
D10*
%TO.C,U9*%
X459740000Y-521970000D03*
X459740000Y-524510000D03*
X459740000Y-527050000D03*
X459740000Y-529590000D03*
X459740000Y-532130000D03*
X459740000Y-534670000D03*
X459740000Y-537210000D03*
X459740000Y-539750000D03*
X459740000Y-542290000D03*
X459740000Y-544830000D03*
X452120000Y-544830000D03*
X452120000Y-542290000D03*
X452120000Y-539750000D03*
X452120000Y-537210000D03*
X452120000Y-534670000D03*
X452120000Y-532130000D03*
X452120000Y-529590000D03*
X452120000Y-527050000D03*
X452120000Y-524510000D03*
D11*
X452120000Y-521970000D03*
%TD*%
D12*
%TO.C,U8*%
X490220000Y-491490000D03*
X487680000Y-491490000D03*
X485140000Y-491490000D03*
X482600000Y-491490000D03*
X480060000Y-491490000D03*
X477520000Y-491490000D03*
X474980000Y-491490000D03*
X472440000Y-491490000D03*
X472440000Y-483870000D03*
X474980000Y-483870000D03*
X477520000Y-483870000D03*
X480060000Y-483870000D03*
X482600000Y-483870000D03*
X485140000Y-483870000D03*
X487680000Y-483870000D03*
D13*
X490220000Y-483870000D03*
%TD*%
D12*
%TO.C,U7*%
X468630000Y-491490000D03*
X466090000Y-491490000D03*
X463550000Y-491490000D03*
X461010000Y-491490000D03*
X458470000Y-491490000D03*
X455930000Y-491490000D03*
X453390000Y-491490000D03*
X450850000Y-491490000D03*
X450850000Y-483870000D03*
X453390000Y-483870000D03*
X455930000Y-483870000D03*
X458470000Y-483870000D03*
X461010000Y-483870000D03*
X463550000Y-483870000D03*
X466090000Y-483870000D03*
D13*
X468630000Y-483870000D03*
%TD*%
D12*
%TO.C,U6*%
X473710000Y-511810000D03*
X471170000Y-511810000D03*
X468630000Y-511810000D03*
X466090000Y-511810000D03*
X463550000Y-511810000D03*
X461010000Y-511810000D03*
X458470000Y-511810000D03*
X455930000Y-511810000D03*
X453390000Y-511810000D03*
X450850000Y-511810000D03*
X450850000Y-504190000D03*
X453390000Y-504190000D03*
X455930000Y-504190000D03*
X458470000Y-504190000D03*
X461010000Y-504190000D03*
X463550000Y-504190000D03*
X466090000Y-504190000D03*
X468630000Y-504190000D03*
X471170000Y-504190000D03*
D13*
X473710000Y-504190000D03*
%TD*%
D10*
%TO.C,U5*%
X441960000Y-521970000D03*
X441960000Y-524510000D03*
X441960000Y-527050000D03*
X441960000Y-529590000D03*
X441960000Y-532130000D03*
X441960000Y-534670000D03*
X441960000Y-537210000D03*
X441960000Y-539750000D03*
X441960000Y-542290000D03*
X441960000Y-544830000D03*
X434340000Y-544830000D03*
X434340000Y-542290000D03*
X434340000Y-539750000D03*
X434340000Y-537210000D03*
X434340000Y-534670000D03*
X434340000Y-532130000D03*
X434340000Y-529590000D03*
X434340000Y-527050000D03*
X434340000Y-524510000D03*
D11*
X434340000Y-521970000D03*
%TD*%
D14*
%TO.C,U4*%
X445770000Y-491650000D03*
X443230000Y-491650000D03*
X440690000Y-491650000D03*
X438150000Y-491650000D03*
X435610000Y-491650000D03*
X433070000Y-491650000D03*
X430530000Y-491650000D03*
X430530000Y-483710000D03*
X433070000Y-483710000D03*
X435610000Y-483710000D03*
X438150000Y-483710000D03*
X440690000Y-483710000D03*
X443230000Y-483710000D03*
D15*
X445770000Y-483710000D03*
%TD*%
D10*
%TO.C,U3*%
X537210000Y-568960000D03*
X539750000Y-568960000D03*
X542290000Y-568960000D03*
X544830000Y-568960000D03*
X547370000Y-568960000D03*
X549910000Y-568960000D03*
X552450000Y-568960000D03*
X554990000Y-568960000D03*
X557530000Y-568960000D03*
X560070000Y-568960000D03*
X560070000Y-576580000D03*
X557530000Y-576580000D03*
X554990000Y-576580000D03*
X552450000Y-576580000D03*
X549910000Y-576580000D03*
X547370000Y-576580000D03*
X544830000Y-576580000D03*
X542290000Y-576580000D03*
X539750000Y-576580000D03*
D11*
X537210000Y-576580000D03*
%TD*%
D10*
%TO.C,U2*%
X424180000Y-521970000D03*
X424180000Y-524510000D03*
X424180000Y-527050000D03*
X424180000Y-529590000D03*
X424180000Y-532130000D03*
X424180000Y-534670000D03*
X424180000Y-537210000D03*
X424180000Y-539750000D03*
X424180000Y-542290000D03*
X424180000Y-544830000D03*
X416560000Y-544830000D03*
X416560000Y-542290000D03*
X416560000Y-539750000D03*
X416560000Y-537210000D03*
X416560000Y-534670000D03*
X416560000Y-532130000D03*
X416560000Y-529590000D03*
X416560000Y-527050000D03*
X416560000Y-524510000D03*
D11*
X416560000Y-521970000D03*
%TD*%
D12*
%TO.C,U1*%
X440690000Y-511810000D03*
X438150000Y-511810000D03*
X435610000Y-511810000D03*
X433070000Y-511810000D03*
X430530000Y-511810000D03*
X427990000Y-511810000D03*
X425450000Y-511810000D03*
X422910000Y-511810000D03*
X420370000Y-511810000D03*
X417830000Y-511810000D03*
X417830000Y-504190000D03*
X420370000Y-504190000D03*
X422910000Y-504190000D03*
X425450000Y-504190000D03*
X427990000Y-504190000D03*
X430530000Y-504190000D03*
X433070000Y-504190000D03*
X435610000Y-504190000D03*
X438150000Y-504190000D03*
D13*
X440690000Y-504190000D03*
%TD*%
D16*
%TO.C,R6*%
X525780000Y-585470000D03*
D17*
X525780000Y-593090000D03*
%TD*%
D16*
%TO.C,R5*%
X525780000Y-574040000D03*
D17*
X525780000Y-581660000D03*
%TD*%
D16*
%TO.C,R4*%
X520700000Y-585470000D03*
D17*
X520700000Y-593090000D03*
%TD*%
D16*
%TO.C,R3*%
X520700000Y-574040000D03*
D17*
X520700000Y-581660000D03*
%TD*%
D16*
%TO.C,R2*%
X515620000Y-585470000D03*
D17*
X515620000Y-593090000D03*
%TD*%
D16*
%TO.C,R1*%
X515620000Y-574040000D03*
D17*
X515620000Y-581660000D03*
%TD*%
D18*
%TO.C,J7*%
X488950000Y-610870000D03*
D19*
X486410000Y-610870000D03*
%TD*%
D20*
%TO.C,J6*%
X568755000Y-605790000D03*
X543765000Y-605790000D03*
D21*
X551430000Y-608330000D03*
X553720000Y-608330000D03*
X556010000Y-608330000D03*
X558300000Y-608330000D03*
X560590000Y-608330000D03*
X552575000Y-605790000D03*
X554865000Y-605790000D03*
X557155000Y-605790000D03*
X559445000Y-605790000D03*
X561735000Y-605790000D03*
X551430000Y-603250000D03*
X553720000Y-603250000D03*
X556010000Y-603250000D03*
X558300000Y-603250000D03*
D22*
X560590000Y-603250000D03*
%TD*%
D18*
%TO.C,J5*%
X506730000Y-610870000D03*
X504190000Y-610870000D03*
X501650000Y-610870000D03*
X499110000Y-610870000D03*
D19*
X496570000Y-610870000D03*
%TD*%
D18*
%TO.C,J4*%
X528320000Y-610870000D03*
X525780000Y-610870000D03*
X523240000Y-610870000D03*
X520700000Y-610870000D03*
D19*
X518160000Y-610870000D03*
%TD*%
%TO.C,J3*%
X514350000Y-610870000D03*
%TD*%
D18*
%TO.C,J2*%
X478790000Y-610870000D03*
X476250000Y-610870000D03*
X473710000Y-610870000D03*
X471170000Y-610870000D03*
D19*
X468630000Y-610870000D03*
%TD*%
D18*
%TO.C,J1*%
X461010000Y-610870000D03*
X458470000Y-610870000D03*
X455930000Y-610870000D03*
X453390000Y-610870000D03*
X450850000Y-610870000D03*
X448310000Y-610870000D03*
X445770000Y-610870000D03*
X443230000Y-610870000D03*
X440690000Y-610870000D03*
X438150000Y-610870000D03*
X435610000Y-610870000D03*
X433070000Y-610870000D03*
X430530000Y-610870000D03*
X427990000Y-610870000D03*
X425450000Y-610870000D03*
X422910000Y-610870000D03*
X420370000Y-610870000D03*
D19*
X417830000Y-610870000D03*
%TD*%
D23*
%TO.C,C4*%
X573920000Y-586740000D03*
D24*
X566420000Y-586740000D03*
%TD*%
D23*
%TO.C,C3*%
X408820000Y-483870000D03*
D24*
X401320000Y-483870000D03*
%TD*%
D23*
%TO.C,C2*%
X573920000Y-483870000D03*
D24*
X566420000Y-483870000D03*
%TD*%
D23*
%TO.C,C1*%
X408820000Y-609600000D03*
D24*
X401320000Y-609600000D03*
%TD*%
M02*
