%FSLAX45Y45*%
G04 Gerber Fmt 4.5, Leading zero omitted, Abs format (unit mm)*
G04 Created by KiCad (PCBNEW 5.1.12-84ad8e8a86~92~ubuntu18.04.1) date 2021-11-25 10:46:44*
%MOMM*%
%LPD*%
G01*
G04 APERTURE LIST*
%TA.AperFunction,Profile*%
%ADD10C,0.100000*%
%TD*%
%ADD11C,0.200000*%
%ADD12C,0.300000*%
G04 APERTURE END LIST*
D10*
X57658000Y-47752000D02*
X57658000Y-61722000D01*
X39878000Y-47752000D02*
X57658000Y-47752000D01*
X39878000Y-61722000D02*
X39878000Y-47752000D01*
X57658000Y-61722000D02*
X39878000Y-61722000D01*
D11*
D12*
X40159428Y-62192714D02*
X40159428Y-61892714D01*
X40230857Y-61892714D01*
X40273714Y-61907000D01*
X40302286Y-61935571D01*
X40316571Y-61964143D01*
X40330857Y-62021286D01*
X40330857Y-62064143D01*
X40316571Y-62121286D01*
X40302286Y-62149857D01*
X40273714Y-62178429D01*
X40230857Y-62192714D01*
X40159428Y-62192714D01*
X40459428Y-62192714D02*
X40459428Y-61992714D01*
X40459428Y-62049857D02*
X40473714Y-62021286D01*
X40488000Y-62007000D01*
X40516571Y-61992714D01*
X40545143Y-61992714D01*
X40645143Y-62192714D02*
X40645143Y-61992714D01*
X40645143Y-61892714D02*
X40630857Y-61907000D01*
X40645143Y-61921286D01*
X40659428Y-61907000D01*
X40645143Y-61892714D01*
X40645143Y-61921286D01*
X40830857Y-62192714D02*
X40802286Y-62178429D01*
X40788000Y-62149857D01*
X40788000Y-61892714D01*
X40988000Y-62192714D02*
X40959428Y-62178429D01*
X40945143Y-62149857D01*
X40945143Y-61892714D01*
X41330857Y-62192714D02*
X41330857Y-61892714D01*
X41430857Y-62107000D01*
X41530857Y-61892714D01*
X41530857Y-62192714D01*
X41802286Y-62192714D02*
X41802286Y-62035571D01*
X41788000Y-62007000D01*
X41759428Y-61992714D01*
X41702286Y-61992714D01*
X41673714Y-62007000D01*
X41802286Y-62178429D02*
X41773714Y-62192714D01*
X41702286Y-62192714D01*
X41673714Y-62178429D01*
X41659428Y-62149857D01*
X41659428Y-62121286D01*
X41673714Y-62092714D01*
X41702286Y-62078429D01*
X41773714Y-62078429D01*
X41802286Y-62064143D01*
X41945143Y-61992714D02*
X41945143Y-62292714D01*
X41945143Y-62007000D02*
X41973714Y-61992714D01*
X42030857Y-61992714D01*
X42059428Y-62007000D01*
X42073714Y-62021286D01*
X42088000Y-62049857D01*
X42088000Y-62135571D01*
X42073714Y-62164143D01*
X42059428Y-62178429D01*
X42030857Y-62192714D01*
X41973714Y-62192714D01*
X41945143Y-62178429D01*
X42216571Y-62164143D02*
X42230857Y-62178429D01*
X42216571Y-62192714D01*
X42202286Y-62178429D01*
X42216571Y-62164143D01*
X42216571Y-62192714D01*
X42216571Y-62007000D02*
X42230857Y-62021286D01*
X42216571Y-62035571D01*
X42202286Y-62021286D01*
X42216571Y-62007000D01*
X42216571Y-62035571D01*
M02*
