M48
; DRILL file {KiCad 5.1.12-84ad8e8a86~92~ubuntu18.04.1} date Thu 25 Nov 2021 10:46:09 AM EST
; FORMAT={-:-/ absolute / metric / decimal}
; #@! TF.CreationDate,2021-11-25T10:46:09-05:00
; #@! TF.GenerationSoftware,Kicad,Pcbnew,5.1.12-84ad8e8a86~92~ubuntu18.04.1
; #@! TF.FileFunction,Plated,1,4,PTH
FMAT,2
METRIC
T1C0.400
T2C0.770
T3C0.787
T4C0.800
T5C1.000
T6C1.118
T7C1.190
T8C3.050
%
G90
G05
T1
X406.4Y-525.78
X406.4Y-546.1
X407.67Y-527.05
X412.75Y-515.62
X412.75Y-530.86
X414.02Y-537.21
X414.02Y-554.99
X415.29Y-558.8
X415.29Y-563.88
X420.37Y-560.07
X421.64Y-537.21
X421.64Y-579.12
X421.64Y-589.28
X425.45Y-499.11
X431.65Y-558.558
X431.8Y-568.96
X431.8Y-572.77
X432.705Y-505.383
X436.88Y-537.21
X436.88Y-551.18
X441.96Y-502.492
X445.77Y-511.81
X449.58Y-496.57
X452.12Y-488.95
X453.39Y-501.65
X453.39Y-519.43
X454.66Y-521.97
X455.93Y-537.21
X455.93Y-568.96
X463.55Y-488.95
X466.09Y-481.33
X466.09Y-532.13
X468.63Y-516.89
X471.17Y-537.21
X474.98Y-501.65
X474.98Y-513.08
X474.98Y-525.78
X474.98Y-529.59
X474.98Y-541.188
X477.52Y-486.41
X477.52Y-495.3
X477.52Y-513.08
X477.52Y-542.29
X480.06Y-497.66
X481.33Y-487.68
X482.6Y-543.56
X483.87Y-496.57
X483.87Y-535.94
X483.87Y-546.1
X484.59Y-494.505
X485.14Y-496.57
X486.41Y-511.81
X487.68Y-551.18
X488.95Y-548.64
X488.95Y-551.18
X490.22Y-551.18
X494.03Y-575.31
X495.3Y-528.32
X495.3Y-558.8
X495.48Y-571.32
X496.57Y-548.64
X499.11Y-549.91
X499.11Y-552.45
X501.65Y-572.045
X502.92Y-548.64
X504.19Y-520.7
X504.19Y-549.91
X506.73Y-521.97
X506.73Y-549.91
X506.73Y-576.58
X507.774Y-523.014
X508.0Y-552.45
X509.27Y-572.77
X510.54Y-574.04
X511.401Y-536.801
X511.81Y-499.11
X511.81Y-500.38
X511.81Y-527.05
X513.08Y-502.92
X513.08Y-548.64
X513.08Y-574.04
X514.35Y-501.65
X514.35Y-535.94
X515.62Y-494.03
X516.89Y-502.92
X518.16Y-500.38
X518.16Y-537.21
X519.43Y-495.3
X519.43Y-500.38
X519.43Y-502.92
X519.43Y-549.91
X521.97Y-496.57
X521.97Y-529.59
X521.97Y-552.45
X524.51Y-501.65
X525.78Y-497.84
X525.78Y-500.38
X525.78Y-539.75
X527.05Y-499.11
X527.05Y-513.08
X529.59Y-495.3
X529.59Y-496.57
X533.4Y-549.91
X533.4Y-552.45
X534.67Y-481.33
X536.244Y-493.305
X537.21Y-548.64
X538.48Y-537.21
X542.29Y-494.03
X542.29Y-549.91
X544.83Y-494.03
X549.91Y-608.33
X552.45Y-497.84
X552.45Y-502.92
X552.45Y-565.15
X556.456Y-502.724
X558.8Y-505.46
X572.77Y-542.29
T2
X430.53Y-483.71
X430.53Y-491.65
X433.07Y-483.71
X433.07Y-491.65
X435.61Y-483.71
X435.61Y-491.65
X438.15Y-483.71
X438.15Y-491.65
X440.69Y-483.71
X440.69Y-491.65
X443.23Y-483.71
X443.23Y-491.65
X445.77Y-483.71
X445.77Y-491.65
X481.17Y-504.19
X481.17Y-506.73
X481.17Y-509.27
X481.17Y-511.81
X481.17Y-514.35
X481.17Y-516.89
X481.17Y-519.43
X489.11Y-504.19
X489.11Y-506.73
X489.11Y-509.27
X489.11Y-511.81
X489.11Y-514.35
X489.11Y-516.89
X489.11Y-519.43
X495.14Y-504.19
X495.14Y-506.73
X495.14Y-509.27
X495.14Y-511.81
X495.14Y-514.35
X495.14Y-516.89
X495.14Y-519.43
X503.08Y-504.19
X503.08Y-506.73
X503.08Y-509.27
X503.08Y-511.81
X503.08Y-514.35
X503.08Y-516.89
X503.08Y-519.43
T3
X417.83Y-504.19
X417.83Y-511.81
X420.37Y-504.19
X420.37Y-511.81
X422.91Y-504.19
X422.91Y-511.81
X425.45Y-504.19
X425.45Y-511.81
X427.99Y-504.19
X427.99Y-511.81
X430.53Y-504.19
X430.53Y-511.81
X433.07Y-504.19
X433.07Y-511.81
X435.61Y-504.19
X435.61Y-511.81
X438.15Y-504.19
X438.15Y-511.81
X440.69Y-504.19
X440.69Y-511.81
X450.85Y-483.87
X450.85Y-491.49
X450.85Y-504.19
X450.85Y-511.81
X453.39Y-483.87
X453.39Y-491.49
X453.39Y-504.19
X453.39Y-511.81
X455.93Y-483.87
X455.93Y-491.49
X455.93Y-504.19
X455.93Y-511.81
X458.47Y-483.87
X458.47Y-491.49
X458.47Y-504.19
X458.47Y-511.81
X461.01Y-483.87
X461.01Y-491.49
X461.01Y-504.19
X461.01Y-511.81
X463.55Y-483.87
X463.55Y-491.49
X463.55Y-504.19
X463.55Y-511.81
X466.09Y-483.87
X466.09Y-491.49
X466.09Y-504.19
X466.09Y-511.81
X468.63Y-483.87
X468.63Y-491.49
X468.63Y-504.19
X468.63Y-511.81
X471.17Y-504.19
X471.17Y-511.81
X472.44Y-483.87
X472.44Y-491.49
X473.71Y-504.19
X473.71Y-511.81
X474.98Y-483.87
X474.98Y-491.49
X477.52Y-483.87
X477.52Y-491.49
X480.06Y-483.87
X480.06Y-491.49
X482.6Y-483.87
X482.6Y-491.49
X485.14Y-483.87
X485.14Y-491.49
X487.68Y-483.87
X487.68Y-491.49
X490.22Y-483.87
X490.22Y-491.49
X494.03Y-483.87
X494.03Y-491.49
X496.57Y-483.87
X496.57Y-491.49
X499.11Y-483.87
X499.11Y-491.49
X501.65Y-483.87
X501.65Y-491.49
X504.19Y-483.87
X504.19Y-491.49
X506.73Y-483.87
X506.73Y-491.49
X509.27Y-483.87
X509.27Y-491.49
X511.81Y-483.87
X511.81Y-491.49
X515.62Y-483.87
X515.62Y-491.49
X518.16Y-483.87
X518.16Y-491.49
X520.7Y-483.87
X520.7Y-491.49
X523.24Y-483.87
X523.24Y-491.49
X525.78Y-483.87
X525.78Y-491.49
X528.32Y-483.87
X528.32Y-491.49
X530.86Y-483.87
X530.86Y-491.49
X533.4Y-483.87
X533.4Y-491.49
X537.21Y-483.87
X537.21Y-491.49
X539.75Y-483.87
X539.75Y-491.49
X542.29Y-483.87
X542.29Y-491.49
X544.83Y-483.87
X544.83Y-491.49
X547.37Y-483.87
X547.37Y-491.49
X549.91Y-483.87
X549.91Y-491.49
X552.45Y-483.87
X552.45Y-491.49
X554.99Y-483.87
X554.99Y-491.49
T4
X515.62Y-574.04
X515.62Y-581.66
X515.62Y-585.47
X515.62Y-593.09
X520.7Y-574.04
X520.7Y-581.66
X520.7Y-585.47
X520.7Y-593.09
X525.78Y-574.04
X525.78Y-581.66
X525.78Y-585.47
X525.78Y-593.09
T5
X401.32Y-483.87
X401.32Y-609.6
X408.82Y-483.87
X408.82Y-609.6
X417.83Y-610.87
X420.37Y-610.87
X422.91Y-610.87
X425.45Y-610.87
X427.99Y-610.87
X430.53Y-610.87
X433.07Y-610.87
X435.61Y-610.87
X438.15Y-610.87
X440.69Y-610.87
X443.23Y-610.87
X445.77Y-610.87
X448.31Y-610.87
X450.85Y-610.87
X453.39Y-610.87
X455.93Y-610.87
X458.47Y-610.87
X461.01Y-610.87
X468.63Y-610.87
X471.17Y-610.87
X473.71Y-610.87
X476.25Y-610.87
X478.79Y-610.87
X486.41Y-610.87
X488.95Y-610.87
X496.57Y-610.87
X499.11Y-610.87
X501.65Y-610.87
X504.19Y-610.87
X506.73Y-610.87
X514.35Y-610.87
X518.16Y-610.87
X520.7Y-610.87
X523.24Y-610.87
X525.78Y-610.87
X528.32Y-610.87
X566.42Y-483.87
X566.42Y-586.74
X573.92Y-483.87
X573.92Y-586.74
T6
X416.56Y-521.97
X416.56Y-524.51
X416.56Y-527.05
X416.56Y-529.59
X416.56Y-532.13
X416.56Y-534.67
X416.56Y-537.21
X416.56Y-539.75
X416.56Y-542.29
X416.56Y-544.83
X424.18Y-521.97
X424.18Y-524.51
X424.18Y-527.05
X424.18Y-529.59
X424.18Y-532.13
X424.18Y-534.67
X424.18Y-537.21
X424.18Y-539.75
X424.18Y-542.29
X424.18Y-544.83
X434.34Y-521.97
X434.34Y-524.51
X434.34Y-527.05
X434.34Y-529.59
X434.34Y-532.13
X434.34Y-534.67
X434.34Y-537.21
X434.34Y-539.75
X434.34Y-542.29
X434.34Y-544.83
X441.96Y-521.97
X441.96Y-524.51
X441.96Y-527.05
X441.96Y-529.59
X441.96Y-532.13
X441.96Y-534.67
X441.96Y-537.21
X441.96Y-539.75
X441.96Y-542.29
X441.96Y-544.83
X452.12Y-521.97
X452.12Y-524.51
X452.12Y-527.05
X452.12Y-529.59
X452.12Y-532.13
X452.12Y-534.67
X452.12Y-537.21
X452.12Y-539.75
X452.12Y-542.29
X452.12Y-544.83
X459.74Y-521.97
X459.74Y-524.51
X459.74Y-527.05
X459.74Y-529.59
X459.74Y-532.13
X459.74Y-534.67
X459.74Y-537.21
X459.74Y-539.75
X459.74Y-542.29
X459.74Y-544.83
X474.98Y-539.75
X474.98Y-554.99
X477.52Y-539.75
X477.52Y-554.99
X480.06Y-539.75
X480.06Y-554.99
X482.6Y-539.75
X482.6Y-554.99
X485.14Y-539.75
X485.14Y-554.99
X487.68Y-539.75
X487.68Y-554.99
X490.22Y-539.75
X490.22Y-554.99
X492.76Y-539.75
X492.76Y-554.99
X495.3Y-539.75
X495.3Y-554.99
X497.84Y-539.75
X497.84Y-554.99
X500.38Y-539.75
X500.38Y-554.99
X502.92Y-539.75
X502.92Y-554.99
X505.46Y-539.75
X505.46Y-554.99
X508.0Y-508.0
X508.0Y-515.62
X508.0Y-539.75
X508.0Y-554.99
X510.54Y-508.0
X510.54Y-515.62
X510.54Y-539.75
X510.54Y-554.99
X513.08Y-508.0
X513.08Y-515.62
X513.08Y-539.75
X513.08Y-554.99
X515.62Y-508.0
X515.62Y-515.62
X518.16Y-508.0
X518.16Y-515.62
X520.7Y-508.0
X520.7Y-515.62
X523.24Y-508.0
X523.24Y-515.62
X525.78Y-508.0
X525.78Y-515.62
X528.32Y-508.0
X528.32Y-515.62
X530.86Y-508.0
X530.86Y-515.62
X537.21Y-508.0
X537.21Y-515.62
X537.21Y-544.83
X537.21Y-552.45
X537.21Y-568.96
X537.21Y-576.58
X539.75Y-508.0
X539.75Y-515.62
X539.75Y-544.83
X539.75Y-552.45
X539.75Y-568.96
X539.75Y-576.58
X542.29Y-508.0
X542.29Y-515.62
X542.29Y-544.83
X542.29Y-552.45
X542.29Y-568.96
X542.29Y-576.58
X544.83Y-508.0
X544.83Y-515.62
X544.83Y-544.83
X544.83Y-552.45
X544.83Y-568.96
X544.83Y-576.58
X547.37Y-508.0
X547.37Y-515.62
X547.37Y-544.83
X547.37Y-552.45
X547.37Y-568.96
X547.37Y-576.58
X549.91Y-508.0
X549.91Y-515.62
X549.91Y-544.83
X549.91Y-552.45
X549.91Y-568.96
X549.91Y-576.58
X552.45Y-508.0
X552.45Y-515.62
X552.45Y-544.83
X552.45Y-552.45
X552.45Y-568.96
X552.45Y-576.58
X554.99Y-508.0
X554.99Y-515.62
X554.99Y-544.83
X554.99Y-552.45
X554.99Y-568.96
X554.99Y-576.58
X557.53Y-508.0
X557.53Y-515.62
X557.53Y-544.83
X557.53Y-552.45
X557.53Y-568.96
X557.53Y-576.58
X560.07Y-508.0
X560.07Y-515.62
X560.07Y-544.83
X560.07Y-552.45
X560.07Y-568.96
X560.07Y-576.58
T7
X551.43Y-603.25
X551.43Y-608.33
X552.575Y-605.79
X553.72Y-603.25
X553.72Y-608.33
X554.865Y-605.79
X556.01Y-603.25
X556.01Y-608.33
X557.155Y-605.79
X558.3Y-603.25
X558.3Y-608.33
X559.445Y-605.79
X560.59Y-603.25
X560.59Y-608.33
X561.735Y-605.79
T8
X543.765Y-605.79
X568.755Y-605.79
T0
M30
