%TF.GenerationSoftware,KiCad,Pcbnew,5.1.12-84ad8e8a86~92~ubuntu18.04.1*%
%TF.CreationDate,2021-11-25T10:44:01-05:00*%
%TF.ProjectId,vectron_vga_plus_design,76656374-726f-46e5-9f76-67615f706c75,rev?*%
%TF.SameCoordinates,Original*%
%TF.FileFunction,Copper,L4,Bot*%
%TF.FilePolarity,Positive*%
%FSLAX46Y46*%
G04 Gerber Fmt 4.6, Leading zero omitted, Abs format (unit mm)*
G04 Created by KiCad (PCBNEW 5.1.12-84ad8e8a86~92~ubuntu18.04.1) date 2021-11-25 10:44:01*
%MOMM*%
%LPD*%
G01*
G04 APERTURE LIST*
%TA.AperFunction,ComponentPad*%
%ADD10C,1.676400*%
%TD*%
%TA.AperFunction,ComponentPad*%
%ADD11R,1.676400X1.676400*%
%TD*%
%TA.AperFunction,ComponentPad*%
%ADD12C,1.295400*%
%TD*%
%TA.AperFunction,ComponentPad*%
%ADD13R,1.295400X1.295400*%
%TD*%
%TA.AperFunction,ComponentPad*%
%ADD14C,1.170000*%
%TD*%
%TA.AperFunction,ComponentPad*%
%ADD15R,1.170000X1.170000*%
%TD*%
%TA.AperFunction,ComponentPad*%
%ADD16O,1.600000X1.600000*%
%TD*%
%TA.AperFunction,ComponentPad*%
%ADD17C,1.600000*%
%TD*%
%TA.AperFunction,ComponentPad*%
%ADD18O,1.700000X1.700000*%
%TD*%
%TA.AperFunction,ComponentPad*%
%ADD19R,1.700000X1.700000*%
%TD*%
%TA.AperFunction,ComponentPad*%
%ADD20C,4.066000*%
%TD*%
%TA.AperFunction,ComponentPad*%
%ADD21C,1.785000*%
%TD*%
%TA.AperFunction,ComponentPad*%
%ADD22R,1.785000X1.785000*%
%TD*%
%TA.AperFunction,ComponentPad*%
%ADD23C,2.000000*%
%TD*%
%TA.AperFunction,ComponentPad*%
%ADD24R,2.000000X2.000000*%
%TD*%
%TA.AperFunction,ViaPad*%
%ADD25C,0.800000*%
%TD*%
%TA.AperFunction,Conductor*%
%ADD26C,0.250000*%
%TD*%
G04 APERTURE END LIST*
D10*
%TO.P,U17,20*%
%TO.N,+5V*%
X537210000Y-508000000D03*
%TO.P,U17,19*%
%TO.N,Net-(U12-Pad24)*%
X539750000Y-508000000D03*
%TO.P,U17,18*%
%TO.N,Net-(U11-Pad14)*%
X542290000Y-508000000D03*
%TO.P,U17,17*%
%TO.N,Net-(U11-Pad13)*%
X544830000Y-508000000D03*
%TO.P,U17,16*%
%TO.N,Net-(U11-Pad12)*%
X547370000Y-508000000D03*
%TO.P,U17,15*%
%TO.N,Net-(U11-Pad11)*%
X549910000Y-508000000D03*
%TO.P,U17,14*%
%TO.N,Net-(U14-Pad14)*%
X552450000Y-508000000D03*
%TO.P,U17,13*%
%TO.N,Net-(U14-Pad13)*%
X554990000Y-508000000D03*
%TO.P,U17,12*%
%TO.N,Net-(U14-Pad12)*%
X557530000Y-508000000D03*
%TO.P,U17,11*%
%TO.N,Net-(U14-Pad11)*%
X560070000Y-508000000D03*
%TO.P,U17,10*%
%TO.N,GND*%
X560070000Y-515620000D03*
%TO.P,U17,9*%
%TO.N,Net-(U12-Pad31)*%
X557530000Y-515620000D03*
%TO.P,U17,8*%
%TO.N,Net-(U12-Pad3)*%
X554990000Y-515620000D03*
%TO.P,U17,7*%
%TO.N,Net-(U12-Pad28)*%
X552450000Y-515620000D03*
%TO.P,U17,6*%
%TO.N,Net-(U12-Pad4)*%
X549910000Y-515620000D03*
%TO.P,U17,5*%
%TO.N,Net-(U12-Pad25)*%
X547370000Y-515620000D03*
%TO.P,U17,4*%
%TO.N,Net-(U12-Pad23)*%
X544830000Y-515620000D03*
%TO.P,U17,3*%
%TO.N,Net-(U12-Pad26)*%
X542290000Y-515620000D03*
%TO.P,U17,2*%
%TO.N,Net-(U12-Pad27)*%
X539750000Y-515620000D03*
D11*
%TO.P,U17,1*%
%TO.N,GND*%
X537210000Y-515620000D03*
%TD*%
D12*
%TO.P,U18,16*%
%TO.N,+5V*%
X554990000Y-491490000D03*
%TO.P,U18,15*%
%TO.N,Net-(U18-Pad15)*%
X552450000Y-491490000D03*
%TO.P,U18,14*%
%TO.N,Net-(U13-Pad11)*%
X549910000Y-491490000D03*
%TO.P,U18,13*%
%TO.N,Net-(U13-Pad13)*%
X547370000Y-491490000D03*
%TO.P,U18,12*%
%TO.N,Net-(U18-Pad12)*%
X544830000Y-491490000D03*
%TO.P,U18,11*%
%TO.N,Net-(U18-Pad11)*%
X542290000Y-491490000D03*
%TO.P,U18,10*%
%TO.N,Net-(U14-Pad15)*%
X539750000Y-491490000D03*
%TO.P,U18,9*%
%TO.N,+5V*%
X537210000Y-491490000D03*
%TO.P,U18,8*%
%TO.N,GND*%
X537210000Y-483870000D03*
%TO.P,U18,7*%
%TO.N,Net-(U14-Pad15)*%
X539750000Y-483870000D03*
%TO.P,U18,6*%
%TO.N,Net-(U18-Pad6)*%
X542290000Y-483870000D03*
%TO.P,U18,5*%
%TO.N,Net-(U18-Pad5)*%
X544830000Y-483870000D03*
%TO.P,U18,4*%
%TO.N,Net-(U18-Pad4)*%
X547370000Y-483870000D03*
%TO.P,U18,3*%
%TO.N,Net-(U18-Pad3)*%
X549910000Y-483870000D03*
%TO.P,U18,2*%
%TO.N,Net-(U11-Pad2)*%
X552450000Y-483870000D03*
D13*
%TO.P,U18,1*%
%TO.N,Net-(U10-Pad3)*%
X554990000Y-483870000D03*
%TD*%
D10*
%TO.P,U16,20*%
%TO.N,+5V*%
X560070000Y-552450000D03*
%TO.P,U16,19*%
%TO.N,Net-(U12-Pad24)*%
X557530000Y-552450000D03*
%TO.P,U16,18*%
%TO.N,Net-(U16-Pad18)*%
X554990000Y-552450000D03*
%TO.P,U16,17*%
%TO.N,Net-(U12-Pad15)*%
X552450000Y-552450000D03*
%TO.P,U16,16*%
%TO.N,Net-(U16-Pad16)*%
X549910000Y-552450000D03*
%TO.P,U16,15*%
%TO.N,Net-(U12-Pad14)*%
X547370000Y-552450000D03*
%TO.P,U16,14*%
%TO.N,Net-(U16-Pad14)*%
X544830000Y-552450000D03*
%TO.P,U16,13*%
%TO.N,Net-(U12-Pad13)*%
X542290000Y-552450000D03*
%TO.P,U16,12*%
%TO.N,Net-(U12-Pad30)*%
X539750000Y-552450000D03*
%TO.P,U16,11*%
%TO.N,Net-(U13-Pad11)*%
X537210000Y-552450000D03*
%TO.P,U16,10*%
%TO.N,GND*%
X537210000Y-544830000D03*
%TO.P,U16,9*%
%TO.N,Net-(U12-Pad2)*%
X539750000Y-544830000D03*
%TO.P,U16,8*%
%TO.N,Net-(U13-Pad13)*%
X542290000Y-544830000D03*
%TO.P,U16,7*%
%TO.N,Net-(U16-Pad7)*%
X544830000Y-544830000D03*
%TO.P,U16,6*%
%TO.N,Net-(U16-Pad6)*%
X547370000Y-544830000D03*
%TO.P,U16,5*%
%TO.N,Net-(U16-Pad5)*%
X549910000Y-544830000D03*
%TO.P,U16,4*%
%TO.N,Net-(U16-Pad4)*%
X552450000Y-544830000D03*
%TO.P,U16,3*%
%TO.N,Net-(U16-Pad3)*%
X554990000Y-544830000D03*
%TO.P,U16,2*%
%TO.N,Net-(U16-Pad2)*%
X557530000Y-544830000D03*
D11*
%TO.P,U16,1*%
%TO.N,Net-(U12-Pad24)*%
X560070000Y-544830000D03*
%TD*%
D10*
%TO.P,U15,20*%
%TO.N,+5V*%
X508000000Y-508000000D03*
%TO.P,U15,19*%
%TO.N,Net-(U12-Pad24)*%
X510540000Y-508000000D03*
%TO.P,U15,18*%
%TO.N,Net-(U1-Pad17)*%
X513080000Y-508000000D03*
%TO.P,U15,17*%
%TO.N,Net-(U1-Pad15)*%
X515620000Y-508000000D03*
%TO.P,U15,16*%
%TO.N,Net-(U1-Pad13)*%
X518160000Y-508000000D03*
%TO.P,U15,15*%
%TO.N,Net-(U1-Pad11)*%
X520700000Y-508000000D03*
%TO.P,U15,14*%
%TO.N,Net-(U1-Pad8)*%
X523240000Y-508000000D03*
%TO.P,U15,13*%
%TO.N,Net-(U1-Pad6)*%
X525780000Y-508000000D03*
%TO.P,U15,12*%
%TO.N,Net-(U1-Pad4)*%
X528320000Y-508000000D03*
%TO.P,U15,11*%
%TO.N,Net-(U1-Pad2)*%
X530860000Y-508000000D03*
%TO.P,U15,10*%
%TO.N,GND*%
X530860000Y-515620000D03*
%TO.P,U15,9*%
%TO.N,Net-(U12-Pad5)*%
X528320000Y-515620000D03*
%TO.P,U15,8*%
%TO.N,Net-(U12-Pad6)*%
X525780000Y-515620000D03*
%TO.P,U15,7*%
%TO.N,Net-(U12-Pad7)*%
X523240000Y-515620000D03*
%TO.P,U15,6*%
%TO.N,Net-(U12-Pad8)*%
X520700000Y-515620000D03*
%TO.P,U15,5*%
%TO.N,Net-(U12-Pad9)*%
X518160000Y-515620000D03*
%TO.P,U15,4*%
%TO.N,Net-(U12-Pad10)*%
X515620000Y-515620000D03*
%TO.P,U15,3*%
%TO.N,Net-(U12-Pad11)*%
X513080000Y-515620000D03*
%TO.P,U15,2*%
%TO.N,Net-(U12-Pad12)*%
X510540000Y-515620000D03*
D11*
%TO.P,U15,1*%
%TO.N,GND*%
X508000000Y-515620000D03*
%TD*%
D12*
%TO.P,U14,16*%
%TO.N,+5V*%
X533400000Y-491490000D03*
%TO.P,U14,15*%
%TO.N,Net-(U14-Pad15)*%
X530860000Y-491490000D03*
%TO.P,U14,14*%
%TO.N,Net-(U14-Pad14)*%
X528320000Y-491490000D03*
%TO.P,U14,13*%
%TO.N,Net-(U14-Pad13)*%
X525780000Y-491490000D03*
%TO.P,U14,12*%
%TO.N,Net-(U14-Pad12)*%
X523240000Y-491490000D03*
%TO.P,U14,11*%
%TO.N,Net-(U14-Pad11)*%
X520700000Y-491490000D03*
%TO.P,U14,10*%
%TO.N,Net-(U11-Pad15)*%
X518160000Y-491490000D03*
%TO.P,U14,9*%
%TO.N,+5V*%
X515620000Y-491490000D03*
%TO.P,U14,8*%
%TO.N,GND*%
X515620000Y-483870000D03*
%TO.P,U14,7*%
%TO.N,Net-(U11-Pad15)*%
X518160000Y-483870000D03*
%TO.P,U14,6*%
%TO.N,Net-(U14-Pad6)*%
X520700000Y-483870000D03*
%TO.P,U14,5*%
%TO.N,Net-(U14-Pad5)*%
X523240000Y-483870000D03*
%TO.P,U14,4*%
%TO.N,Net-(U14-Pad4)*%
X525780000Y-483870000D03*
%TO.P,U14,3*%
%TO.N,Net-(U14-Pad3)*%
X528320000Y-483870000D03*
%TO.P,U14,2*%
%TO.N,Net-(U11-Pad2)*%
X530860000Y-483870000D03*
D13*
%TO.P,U14,1*%
%TO.N,Net-(U10-Pad3)*%
X533400000Y-483870000D03*
%TD*%
D14*
%TO.P,U13,14*%
%TO.N,+5V*%
X503080000Y-504190000D03*
%TO.P,U13,13*%
%TO.N,Net-(U13-Pad13)*%
X503080000Y-506730000D03*
%TO.P,U13,12*%
%TO.N,Net-(U10-Pad2)*%
X503080000Y-509270000D03*
%TO.P,U13,11*%
%TO.N,Net-(U13-Pad11)*%
X503080000Y-511810000D03*
%TO.P,U13,10*%
%TO.N,Net-(U10-Pad9)*%
X503080000Y-514350000D03*
%TO.P,U13,9*%
%TO.N,Net-(U13-Pad9)*%
X503080000Y-516890000D03*
%TO.P,U13,8*%
%TO.N,Net-(U13-Pad8)*%
X503080000Y-519430000D03*
%TO.P,U13,7*%
%TO.N,GND*%
X495140000Y-519430000D03*
%TO.P,U13,6*%
%TO.N,Net-(U13-Pad6)*%
X495140000Y-516890000D03*
%TO.P,U13,5*%
%TO.N,Net-(U13-Pad5)*%
X495140000Y-514350000D03*
%TO.P,U13,4*%
%TO.N,Net-(U13-Pad4)*%
X495140000Y-511810000D03*
%TO.P,U13,3*%
%TO.N,Net-(U13-Pad3)*%
X495140000Y-509270000D03*
%TO.P,U13,2*%
%TO.N,Net-(U12-Pad24)*%
X495140000Y-506730000D03*
D15*
%TO.P,U13,1*%
%TO.N,Net-(J7-Pad1)*%
X495140000Y-504190000D03*
%TD*%
D10*
%TO.P,U12,32*%
%TO.N,+5V*%
X513080000Y-554990000D03*
%TO.P,U12,31*%
%TO.N,Net-(U12-Pad31)*%
X510540000Y-554990000D03*
%TO.P,U12,30*%
%TO.N,Net-(U12-Pad30)*%
X508000000Y-554990000D03*
%TO.P,U12,29*%
%TO.N,Net-(J7-Pad1)*%
X505460000Y-554990000D03*
%TO.P,U12,28*%
%TO.N,Net-(U12-Pad28)*%
X502920000Y-554990000D03*
%TO.P,U12,27*%
%TO.N,Net-(U12-Pad27)*%
X500380000Y-554990000D03*
%TO.P,U12,26*%
%TO.N,Net-(U12-Pad26)*%
X497840000Y-554990000D03*
%TO.P,U12,25*%
%TO.N,Net-(U12-Pad25)*%
X495300000Y-554990000D03*
%TO.P,U12,24*%
%TO.N,Net-(U12-Pad24)*%
X492760000Y-554990000D03*
%TO.P,U12,23*%
%TO.N,Net-(U12-Pad23)*%
X490220000Y-554990000D03*
%TO.P,U12,22*%
%TO.N,Net-(J7-Pad2)*%
X487680000Y-554990000D03*
%TO.P,U12,21*%
%TO.N,Net-(U12-Pad21)*%
X485140000Y-554990000D03*
%TO.P,U12,20*%
%TO.N,Net-(U12-Pad20)*%
X482600000Y-554990000D03*
%TO.P,U12,19*%
%TO.N,Net-(U12-Pad19)*%
X480060000Y-554990000D03*
%TO.P,U12,18*%
%TO.N,Net-(U12-Pad18)*%
X477520000Y-554990000D03*
%TO.P,U12,17*%
%TO.N,Net-(U12-Pad17)*%
X474980000Y-554990000D03*
%TO.P,U12,16*%
%TO.N,GND*%
X474980000Y-539750000D03*
%TO.P,U12,15*%
%TO.N,Net-(U12-Pad15)*%
X477520000Y-539750000D03*
%TO.P,U12,14*%
%TO.N,Net-(U12-Pad14)*%
X480060000Y-539750000D03*
%TO.P,U12,13*%
%TO.N,Net-(U12-Pad13)*%
X482600000Y-539750000D03*
%TO.P,U12,12*%
%TO.N,Net-(U12-Pad12)*%
X485140000Y-539750000D03*
%TO.P,U12,11*%
%TO.N,Net-(U12-Pad11)*%
X487680000Y-539750000D03*
%TO.P,U12,10*%
%TO.N,Net-(U12-Pad10)*%
X490220000Y-539750000D03*
%TO.P,U12,9*%
%TO.N,Net-(U12-Pad9)*%
X492760000Y-539750000D03*
%TO.P,U12,8*%
%TO.N,Net-(U12-Pad8)*%
X495300000Y-539750000D03*
%TO.P,U12,7*%
%TO.N,Net-(U12-Pad7)*%
X497840000Y-539750000D03*
%TO.P,U12,6*%
%TO.N,Net-(U12-Pad6)*%
X500380000Y-539750000D03*
%TO.P,U12,5*%
%TO.N,Net-(U12-Pad5)*%
X502920000Y-539750000D03*
%TO.P,U12,4*%
%TO.N,Net-(U12-Pad4)*%
X505460000Y-539750000D03*
%TO.P,U12,3*%
%TO.N,Net-(U12-Pad3)*%
X508000000Y-539750000D03*
%TO.P,U12,2*%
%TO.N,Net-(U12-Pad2)*%
X510540000Y-539750000D03*
D11*
%TO.P,U12,1*%
%TO.N,GND*%
X513080000Y-539750000D03*
%TD*%
D12*
%TO.P,U11,16*%
%TO.N,+5V*%
X511810000Y-491490000D03*
%TO.P,U11,15*%
%TO.N,Net-(U11-Pad15)*%
X509270000Y-491490000D03*
%TO.P,U11,14*%
%TO.N,Net-(U11-Pad14)*%
X506730000Y-491490000D03*
%TO.P,U11,13*%
%TO.N,Net-(U11-Pad13)*%
X504190000Y-491490000D03*
%TO.P,U11,12*%
%TO.N,Net-(U11-Pad12)*%
X501650000Y-491490000D03*
%TO.P,U11,11*%
%TO.N,Net-(U11-Pad11)*%
X499110000Y-491490000D03*
%TO.P,U11,10*%
%TO.N,Net-(U11-Pad10)*%
X496570000Y-491490000D03*
%TO.P,U11,9*%
%TO.N,+5V*%
X494030000Y-491490000D03*
%TO.P,U11,8*%
%TO.N,GND*%
X494030000Y-483870000D03*
%TO.P,U11,7*%
%TO.N,Net-(U11-Pad10)*%
X496570000Y-483870000D03*
%TO.P,U11,6*%
%TO.N,Net-(U11-Pad6)*%
X499110000Y-483870000D03*
%TO.P,U11,5*%
%TO.N,Net-(U11-Pad5)*%
X501650000Y-483870000D03*
%TO.P,U11,4*%
%TO.N,Net-(U11-Pad4)*%
X504190000Y-483870000D03*
%TO.P,U11,3*%
%TO.N,Net-(U11-Pad3)*%
X506730000Y-483870000D03*
%TO.P,U11,2*%
%TO.N,Net-(U11-Pad2)*%
X509270000Y-483870000D03*
D13*
%TO.P,U11,1*%
%TO.N,Net-(U10-Pad3)*%
X511810000Y-483870000D03*
%TD*%
D14*
%TO.P,U10,14*%
%TO.N,+5V*%
X489110000Y-504190000D03*
%TO.P,U10,13*%
%TO.N,Net-(U10-Pad13)*%
X489110000Y-506730000D03*
%TO.P,U10,12*%
%TO.N,Net-(U1-Pad19)*%
X489110000Y-509270000D03*
%TO.P,U10,11*%
%TO.N,Net-(U10-Pad10)*%
X489110000Y-511810000D03*
%TO.P,U10,10*%
X489110000Y-514350000D03*
%TO.P,U10,9*%
%TO.N,Net-(U10-Pad9)*%
X489110000Y-516890000D03*
%TO.P,U10,8*%
%TO.N,Net-(U10-Pad1)*%
X489110000Y-519430000D03*
%TO.P,U10,7*%
%TO.N,GND*%
X481170000Y-519430000D03*
%TO.P,U10,6*%
%TO.N,Net-(U10-Pad6)*%
X481170000Y-516890000D03*
%TO.P,U10,5*%
%TO.N,Net-(U10-Pad5)*%
X481170000Y-514350000D03*
%TO.P,U10,4*%
%TO.N,Net-(U10-Pad4)*%
X481170000Y-511810000D03*
%TO.P,U10,3*%
%TO.N,Net-(U10-Pad3)*%
X481170000Y-509270000D03*
%TO.P,U10,2*%
%TO.N,Net-(U10-Pad2)*%
X481170000Y-506730000D03*
D15*
%TO.P,U10,1*%
%TO.N,Net-(U10-Pad1)*%
X481170000Y-504190000D03*
%TD*%
D10*
%TO.P,U9,20*%
%TO.N,+5V*%
X459740000Y-521970000D03*
%TO.P,U9,19*%
%TO.N,Net-(J7-Pad1)*%
X459740000Y-524510000D03*
%TO.P,U9,18*%
%TO.N,Net-(U12-Pad2)*%
X459740000Y-527050000D03*
%TO.P,U9,17*%
%TO.N,Net-(J1-Pad18)*%
X459740000Y-529590000D03*
%TO.P,U9,16*%
%TO.N,Net-(U12-Pad13)*%
X459740000Y-532130000D03*
%TO.P,U9,15*%
%TO.N,Net-(U9-Pad15)*%
X459740000Y-534670000D03*
%TO.P,U9,14*%
%TO.N,Net-(U12-Pad14)*%
X459740000Y-537210000D03*
%TO.P,U9,13*%
%TO.N,Net-(J2-Pad5)*%
X459740000Y-539750000D03*
%TO.P,U9,12*%
%TO.N,Net-(U12-Pad15)*%
X459740000Y-542290000D03*
%TO.P,U9,11*%
%TO.N,Net-(J2-Pad4)*%
X459740000Y-544830000D03*
%TO.P,U9,10*%
%TO.N,GND*%
X452120000Y-544830000D03*
%TO.P,U9,9*%
%TO.N,Net-(U12-Pad17)*%
X452120000Y-542290000D03*
%TO.P,U9,8*%
%TO.N,Net-(J2-Pad3)*%
X452120000Y-539750000D03*
%TO.P,U9,7*%
%TO.N,Net-(U12-Pad18)*%
X452120000Y-537210000D03*
%TO.P,U9,6*%
%TO.N,Net-(J2-Pad2)*%
X452120000Y-534670000D03*
%TO.P,U9,5*%
%TO.N,Net-(U9-Pad5)*%
X452120000Y-532130000D03*
%TO.P,U9,4*%
%TO.N,Net-(J2-Pad1)*%
X452120000Y-529590000D03*
%TO.P,U9,3*%
%TO.N,Net-(U12-Pad30)*%
X452120000Y-527050000D03*
%TO.P,U9,2*%
%TO.N,Net-(J1-Pad17)*%
X452120000Y-524510000D03*
D11*
%TO.P,U9,1*%
%TO.N,Net-(J7-Pad1)*%
X452120000Y-521970000D03*
%TD*%
D12*
%TO.P,U8,16*%
%TO.N,+5V*%
X490220000Y-491490000D03*
%TO.P,U8,15*%
%TO.N,Net-(U11-Pad10)*%
X487680000Y-491490000D03*
%TO.P,U8,14*%
%TO.N,Net-(U1-Pad8)*%
X485140000Y-491490000D03*
%TO.P,U8,13*%
%TO.N,Net-(U1-Pad6)*%
X482600000Y-491490000D03*
%TO.P,U8,12*%
%TO.N,Net-(U1-Pad4)*%
X480060000Y-491490000D03*
%TO.P,U8,11*%
%TO.N,Net-(U1-Pad2)*%
X477520000Y-491490000D03*
%TO.P,U8,10*%
%TO.N,Net-(U7-Pad15)*%
X474980000Y-491490000D03*
%TO.P,U8,9*%
%TO.N,+5V*%
X472440000Y-491490000D03*
%TO.P,U8,8*%
%TO.N,GND*%
X472440000Y-483870000D03*
%TO.P,U8,7*%
%TO.N,Net-(U7-Pad15)*%
X474980000Y-483870000D03*
%TO.P,U8,6*%
%TO.N,Net-(U8-Pad6)*%
X477520000Y-483870000D03*
%TO.P,U8,5*%
%TO.N,Net-(U8-Pad5)*%
X480060000Y-483870000D03*
%TO.P,U8,4*%
%TO.N,Net-(U8-Pad4)*%
X482600000Y-483870000D03*
%TO.P,U8,3*%
%TO.N,Net-(U8-Pad3)*%
X485140000Y-483870000D03*
%TO.P,U8,2*%
%TO.N,Net-(U11-Pad2)*%
X487680000Y-483870000D03*
D13*
%TO.P,U8,1*%
%TO.N,Net-(U10-Pad3)*%
X490220000Y-483870000D03*
%TD*%
D12*
%TO.P,U7,16*%
%TO.N,+5V*%
X468630000Y-491490000D03*
%TO.P,U7,15*%
%TO.N,Net-(U7-Pad15)*%
X466090000Y-491490000D03*
%TO.P,U7,14*%
%TO.N,Net-(U1-Pad17)*%
X463550000Y-491490000D03*
%TO.P,U7,13*%
%TO.N,Net-(U1-Pad15)*%
X461010000Y-491490000D03*
%TO.P,U7,12*%
%TO.N,Net-(U1-Pad13)*%
X458470000Y-491490000D03*
%TO.P,U7,11*%
%TO.N,Net-(U1-Pad11)*%
X455930000Y-491490000D03*
%TO.P,U7,10*%
%TO.N,+5V*%
X453390000Y-491490000D03*
%TO.P,U7,9*%
X450850000Y-491490000D03*
%TO.P,U7,8*%
%TO.N,GND*%
X450850000Y-483870000D03*
%TO.P,U7,7*%
%TO.N,+5V*%
X453390000Y-483870000D03*
%TO.P,U7,6*%
%TO.N,Net-(U7-Pad6)*%
X455930000Y-483870000D03*
%TO.P,U7,5*%
%TO.N,Net-(U7-Pad5)*%
X458470000Y-483870000D03*
%TO.P,U7,4*%
%TO.N,Net-(U7-Pad4)*%
X461010000Y-483870000D03*
%TO.P,U7,3*%
%TO.N,Net-(U7-Pad3)*%
X463550000Y-483870000D03*
%TO.P,U7,2*%
%TO.N,Net-(U11-Pad2)*%
X466090000Y-483870000D03*
D13*
%TO.P,U7,1*%
%TO.N,Net-(U10-Pad3)*%
X468630000Y-483870000D03*
%TD*%
D12*
%TO.P,U6,20*%
%TO.N,+5V*%
X473710000Y-511810000D03*
%TO.P,U6,19*%
%TO.N,Net-(U10-Pad13)*%
X471170000Y-511810000D03*
%TO.P,U6,18*%
%TO.N,GND*%
X468630000Y-511810000D03*
%TO.P,U6,17*%
%TO.N,Net-(U11-Pad14)*%
X466090000Y-511810000D03*
%TO.P,U6,16*%
%TO.N,GND*%
X463550000Y-511810000D03*
%TO.P,U6,15*%
%TO.N,Net-(U11-Pad13)*%
X461010000Y-511810000D03*
%TO.P,U6,14*%
%TO.N,+5V*%
X458470000Y-511810000D03*
%TO.P,U6,13*%
%TO.N,Net-(U11-Pad12)*%
X455930000Y-511810000D03*
%TO.P,U6,12*%
%TO.N,GND*%
X453390000Y-511810000D03*
%TO.P,U6,11*%
%TO.N,Net-(U11-Pad11)*%
X450850000Y-511810000D03*
%TO.P,U6,10*%
%TO.N,GND*%
X450850000Y-504190000D03*
%TO.P,U6,9*%
%TO.N,+5V*%
X453390000Y-504190000D03*
%TO.P,U6,8*%
%TO.N,Net-(U14-Pad14)*%
X455930000Y-504190000D03*
%TO.P,U6,7*%
%TO.N,+5V*%
X458470000Y-504190000D03*
%TO.P,U6,6*%
%TO.N,Net-(U14-Pad13)*%
X461010000Y-504190000D03*
%TO.P,U6,5*%
%TO.N,GND*%
X463550000Y-504190000D03*
%TO.P,U6,4*%
%TO.N,Net-(U14-Pad12)*%
X466090000Y-504190000D03*
%TO.P,U6,3*%
%TO.N,GND*%
X468630000Y-504190000D03*
%TO.P,U6,2*%
%TO.N,Net-(U14-Pad11)*%
X471170000Y-504190000D03*
D13*
%TO.P,U6,1*%
%TO.N,Net-(U6-Pad1)*%
X473710000Y-504190000D03*
%TD*%
D10*
%TO.P,U5,20*%
%TO.N,+5V*%
X441960000Y-521970000D03*
%TO.P,U5,19*%
%TO.N,Net-(J7-Pad1)*%
X441960000Y-524510000D03*
%TO.P,U5,18*%
%TO.N,Net-(U12-Pad27)*%
X441960000Y-527050000D03*
%TO.P,U5,17*%
%TO.N,Net-(J1-Pad16)*%
X441960000Y-529590000D03*
%TO.P,U5,16*%
%TO.N,Net-(U12-Pad26)*%
X441960000Y-532130000D03*
%TO.P,U5,15*%
%TO.N,Net-(J1-Pad15)*%
X441960000Y-534670000D03*
%TO.P,U5,14*%
%TO.N,Net-(U12-Pad23)*%
X441960000Y-537210000D03*
%TO.P,U5,13*%
%TO.N,Net-(J1-Pad14)*%
X441960000Y-539750000D03*
%TO.P,U5,12*%
%TO.N,Net-(U12-Pad25)*%
X441960000Y-542290000D03*
%TO.P,U5,11*%
%TO.N,Net-(J1-Pad13)*%
X441960000Y-544830000D03*
%TO.P,U5,10*%
%TO.N,GND*%
X434340000Y-544830000D03*
%TO.P,U5,9*%
%TO.N,Net-(U12-Pad4)*%
X434340000Y-542290000D03*
%TO.P,U5,8*%
%TO.N,Net-(J1-Pad12)*%
X434340000Y-539750000D03*
%TO.P,U5,7*%
%TO.N,Net-(U12-Pad28)*%
X434340000Y-537210000D03*
%TO.P,U5,6*%
%TO.N,Net-(J1-Pad11)*%
X434340000Y-534670000D03*
%TO.P,U5,5*%
%TO.N,Net-(U12-Pad3)*%
X434340000Y-532130000D03*
%TO.P,U5,4*%
%TO.N,Net-(J1-Pad10)*%
X434340000Y-529590000D03*
%TO.P,U5,3*%
%TO.N,Net-(U12-Pad31)*%
X434340000Y-527050000D03*
%TO.P,U5,2*%
%TO.N,Net-(J1-Pad9)*%
X434340000Y-524510000D03*
D11*
%TO.P,U5,1*%
%TO.N,Net-(J7-Pad1)*%
X434340000Y-521970000D03*
%TD*%
D14*
%TO.P,U4,14*%
%TO.N,+5V*%
X445770000Y-491650000D03*
%TO.P,U4,13*%
%TO.N,Net-(U4-Pad13)*%
X443230000Y-491650000D03*
%TO.P,U4,12*%
%TO.N,Net-(U4-Pad12)*%
X440690000Y-491650000D03*
%TO.P,U4,11*%
%TO.N,Net-(U4-Pad11)*%
X438150000Y-491650000D03*
%TO.P,U4,10*%
%TO.N,Net-(U4-Pad10)*%
X435610000Y-491650000D03*
%TO.P,U4,9*%
%TO.N,Net-(U4-Pad9)*%
X433070000Y-491650000D03*
%TO.P,U4,8*%
%TO.N,Net-(U4-Pad8)*%
X430530000Y-491650000D03*
%TO.P,U4,7*%
%TO.N,GND*%
X430530000Y-483710000D03*
%TO.P,U4,6*%
%TO.N,Net-(U4-Pad2)*%
X433070000Y-483710000D03*
%TO.P,U4,5*%
%TO.N,Net-(U11-Pad2)*%
X435610000Y-483710000D03*
%TO.P,U4,4*%
%TO.N,+5V*%
X438150000Y-483710000D03*
%TO.P,U4,3*%
%TO.N,Net-(U4-Pad3)*%
X440690000Y-483710000D03*
%TO.P,U4,2*%
%TO.N,Net-(U4-Pad2)*%
X443230000Y-483710000D03*
D15*
%TO.P,U4,1*%
%TO.N,+5V*%
X445770000Y-483710000D03*
%TD*%
D10*
%TO.P,U3,20*%
%TO.N,+5V*%
X537210000Y-568960000D03*
%TO.P,U3,19*%
%TO.N,Net-(J4-Pad5)*%
X539750000Y-568960000D03*
%TO.P,U3,18*%
%TO.N,Net-(U12-Pad18)*%
X542290000Y-568960000D03*
%TO.P,U3,17*%
%TO.N,Net-(U3-Pad17)*%
X544830000Y-568960000D03*
%TO.P,U3,16*%
%TO.N,Net-(U3-Pad16)*%
X547370000Y-568960000D03*
%TO.P,U3,15*%
%TO.N,Net-(U3-Pad15)*%
X549910000Y-568960000D03*
%TO.P,U3,14*%
%TO.N,Net-(U3-Pad14)*%
X552450000Y-568960000D03*
%TO.P,U3,13*%
%TO.N,Net-(U3-Pad13)*%
X554990000Y-568960000D03*
%TO.P,U3,12*%
%TO.N,Net-(U3-Pad12)*%
X557530000Y-568960000D03*
%TO.P,U3,11*%
%TO.N,Net-(U11-Pad2)*%
X560070000Y-568960000D03*
%TO.P,U3,10*%
%TO.N,GND*%
X560070000Y-576580000D03*
%TO.P,U3,9*%
%TO.N,Net-(J4-Pad4)*%
X557530000Y-576580000D03*
%TO.P,U3,8*%
%TO.N,Net-(U12-Pad17)*%
X554990000Y-576580000D03*
%TO.P,U3,7*%
%TO.N,Net-(U16-Pad3)*%
X552450000Y-576580000D03*
%TO.P,U3,6*%
%TO.N,Net-(R6-Pad1)*%
X549910000Y-576580000D03*
%TO.P,U3,5*%
%TO.N,Net-(R4-Pad1)*%
X547370000Y-576580000D03*
%TO.P,U3,4*%
%TO.N,Net-(U16-Pad5)*%
X544830000Y-576580000D03*
%TO.P,U3,3*%
%TO.N,Net-(U16-Pad7)*%
X542290000Y-576580000D03*
%TO.P,U3,2*%
%TO.N,Net-(R2-Pad1)*%
X539750000Y-576580000D03*
D11*
%TO.P,U3,1*%
%TO.N,+5V*%
X537210000Y-576580000D03*
%TD*%
D10*
%TO.P,U2,20*%
%TO.N,+5V*%
X424180000Y-521970000D03*
%TO.P,U2,19*%
%TO.N,Net-(J7-Pad1)*%
X424180000Y-524510000D03*
%TO.P,U2,18*%
%TO.N,Net-(U12-Pad12)*%
X424180000Y-527050000D03*
%TO.P,U2,17*%
%TO.N,Net-(J1-Pad8)*%
X424180000Y-529590000D03*
%TO.P,U2,16*%
%TO.N,Net-(U12-Pad11)*%
X424180000Y-532130000D03*
%TO.P,U2,15*%
%TO.N,Net-(J1-Pad7)*%
X424180000Y-534670000D03*
%TO.P,U2,14*%
%TO.N,Net-(U12-Pad10)*%
X424180000Y-537210000D03*
%TO.P,U2,13*%
%TO.N,Net-(J1-Pad6)*%
X424180000Y-539750000D03*
%TO.P,U2,12*%
%TO.N,Net-(U12-Pad9)*%
X424180000Y-542290000D03*
%TO.P,U2,11*%
%TO.N,Net-(J1-Pad5)*%
X424180000Y-544830000D03*
%TO.P,U2,10*%
%TO.N,GND*%
X416560000Y-544830000D03*
%TO.P,U2,9*%
%TO.N,Net-(U12-Pad8)*%
X416560000Y-542290000D03*
%TO.P,U2,8*%
%TO.N,Net-(J1-Pad4)*%
X416560000Y-539750000D03*
%TO.P,U2,7*%
%TO.N,Net-(U12-Pad7)*%
X416560000Y-537210000D03*
%TO.P,U2,6*%
%TO.N,Net-(J1-Pad3)*%
X416560000Y-534670000D03*
%TO.P,U2,5*%
%TO.N,Net-(U12-Pad6)*%
X416560000Y-532130000D03*
%TO.P,U2,4*%
%TO.N,Net-(J1-Pad2)*%
X416560000Y-529590000D03*
%TO.P,U2,3*%
%TO.N,Net-(U12-Pad5)*%
X416560000Y-527050000D03*
%TO.P,U2,2*%
%TO.N,Net-(J1-Pad1)*%
X416560000Y-524510000D03*
D11*
%TO.P,U2,1*%
%TO.N,Net-(J7-Pad1)*%
X416560000Y-521970000D03*
%TD*%
D12*
%TO.P,U1,20*%
%TO.N,+5V*%
X440690000Y-511810000D03*
%TO.P,U1,19*%
%TO.N,Net-(U1-Pad19)*%
X438150000Y-511810000D03*
%TO.P,U1,18*%
%TO.N,+5V*%
X435610000Y-511810000D03*
%TO.P,U1,17*%
%TO.N,Net-(U1-Pad17)*%
X433070000Y-511810000D03*
%TO.P,U1,16*%
%TO.N,+5V*%
X430530000Y-511810000D03*
%TO.P,U1,15*%
%TO.N,Net-(U1-Pad15)*%
X427990000Y-511810000D03*
%TO.P,U1,14*%
%TO.N,+5V*%
X425450000Y-511810000D03*
%TO.P,U1,13*%
%TO.N,Net-(U1-Pad13)*%
X422910000Y-511810000D03*
%TO.P,U1,12*%
%TO.N,+5V*%
X420370000Y-511810000D03*
%TO.P,U1,11*%
%TO.N,Net-(U1-Pad11)*%
X417830000Y-511810000D03*
%TO.P,U1,10*%
%TO.N,GND*%
X417830000Y-504190000D03*
%TO.P,U1,9*%
X420370000Y-504190000D03*
%TO.P,U1,8*%
%TO.N,Net-(U1-Pad8)*%
X422910000Y-504190000D03*
%TO.P,U1,7*%
%TO.N,GND*%
X425450000Y-504190000D03*
%TO.P,U1,6*%
%TO.N,Net-(U1-Pad6)*%
X427990000Y-504190000D03*
%TO.P,U1,5*%
%TO.N,+5V*%
X430530000Y-504190000D03*
%TO.P,U1,4*%
%TO.N,Net-(U1-Pad4)*%
X433070000Y-504190000D03*
%TO.P,U1,3*%
%TO.N,GND*%
X435610000Y-504190000D03*
%TO.P,U1,2*%
%TO.N,Net-(U1-Pad2)*%
X438150000Y-504190000D03*
D13*
%TO.P,U1,1*%
%TO.N,Net-(U1-Pad1)*%
X440690000Y-504190000D03*
%TD*%
D16*
%TO.P,R6,2*%
%TO.N,/B*%
X525780000Y-585470000D03*
D17*
%TO.P,R6,1*%
%TO.N,Net-(R6-Pad1)*%
X525780000Y-593090000D03*
%TD*%
D16*
%TO.P,R5,2*%
%TO.N,GND*%
X525780000Y-574040000D03*
D17*
%TO.P,R5,1*%
%TO.N,/B*%
X525780000Y-581660000D03*
%TD*%
D16*
%TO.P,R4,2*%
%TO.N,/G*%
X520700000Y-585470000D03*
D17*
%TO.P,R4,1*%
%TO.N,Net-(R4-Pad1)*%
X520700000Y-593090000D03*
%TD*%
D16*
%TO.P,R3,2*%
%TO.N,GND*%
X520700000Y-574040000D03*
D17*
%TO.P,R3,1*%
%TO.N,/G*%
X520700000Y-581660000D03*
%TD*%
D16*
%TO.P,R2,2*%
%TO.N,Net-(J4-Pad1)*%
X515620000Y-585470000D03*
D17*
%TO.P,R2,1*%
%TO.N,Net-(R2-Pad1)*%
X515620000Y-593090000D03*
%TD*%
D16*
%TO.P,R1,2*%
%TO.N,GND*%
X515620000Y-574040000D03*
D17*
%TO.P,R1,1*%
%TO.N,Net-(J4-Pad1)*%
X515620000Y-581660000D03*
%TD*%
D18*
%TO.P,J7,2*%
%TO.N,Net-(J7-Pad2)*%
X488950000Y-610870000D03*
D19*
%TO.P,J7,1*%
%TO.N,Net-(J7-Pad1)*%
X486410000Y-610870000D03*
%TD*%
D20*
%TO.P,J6,S2*%
%TO.N,Net-(J6-PadS1)*%
X568755000Y-605790000D03*
%TO.P,J6,S1*%
X543765000Y-605790000D03*
D21*
%TO.P,J6,15*%
%TO.N,Net-(J6-Pad15)*%
X551430000Y-608330000D03*
%TO.P,J6,14*%
%TO.N,Net-(J4-Pad5)*%
X553720000Y-608330000D03*
%TO.P,J6,13*%
%TO.N,Net-(J4-Pad4)*%
X556010000Y-608330000D03*
%TO.P,J6,12*%
%TO.N,Net-(J6-Pad12)*%
X558300000Y-608330000D03*
%TO.P,J6,11*%
%TO.N,Net-(J6-Pad11)*%
X560590000Y-608330000D03*
%TO.P,J6,10*%
%TO.N,GND*%
X552575000Y-605790000D03*
%TO.P,J6,9*%
%TO.N,Net-(J6-Pad9)*%
X554865000Y-605790000D03*
%TO.P,J6,8*%
%TO.N,GND*%
X557155000Y-605790000D03*
%TO.P,J6,7*%
X559445000Y-605790000D03*
%TO.P,J6,6*%
X561735000Y-605790000D03*
%TO.P,J6,5*%
X551430000Y-603250000D03*
%TO.P,J6,4*%
%TO.N,Net-(J6-Pad4)*%
X553720000Y-603250000D03*
%TO.P,J6,3*%
%TO.N,/B*%
X556010000Y-603250000D03*
%TO.P,J6,2*%
%TO.N,/G*%
X558300000Y-603250000D03*
D22*
%TO.P,J6,1*%
%TO.N,Net-(J4-Pad1)*%
X560590000Y-603250000D03*
%TD*%
D18*
%TO.P,J5,5*%
%TO.N,GND*%
X506730000Y-610870000D03*
%TO.P,J5,4*%
X504190000Y-610870000D03*
%TO.P,J5,3*%
X501650000Y-610870000D03*
%TO.P,J5,2*%
%TO.N,+5V*%
X499110000Y-610870000D03*
D19*
%TO.P,J5,1*%
X496570000Y-610870000D03*
%TD*%
D18*
%TO.P,J4,5*%
%TO.N,Net-(J4-Pad5)*%
X528320000Y-610870000D03*
%TO.P,J4,4*%
%TO.N,Net-(J4-Pad4)*%
X525780000Y-610870000D03*
%TO.P,J4,3*%
%TO.N,/B*%
X523240000Y-610870000D03*
%TO.P,J4,2*%
%TO.N,/G*%
X520700000Y-610870000D03*
D19*
%TO.P,J4,1*%
%TO.N,Net-(J4-Pad1)*%
X518160000Y-610870000D03*
%TD*%
%TO.P,J3,1*%
%TO.N,GND*%
X514350000Y-610870000D03*
%TD*%
D18*
%TO.P,J2,5*%
%TO.N,Net-(J2-Pad5)*%
X478790000Y-610870000D03*
%TO.P,J2,4*%
%TO.N,Net-(J2-Pad4)*%
X476250000Y-610870000D03*
%TO.P,J2,3*%
%TO.N,Net-(J2-Pad3)*%
X473710000Y-610870000D03*
%TO.P,J2,2*%
%TO.N,Net-(J2-Pad2)*%
X471170000Y-610870000D03*
D19*
%TO.P,J2,1*%
%TO.N,Net-(J2-Pad1)*%
X468630000Y-610870000D03*
%TD*%
D18*
%TO.P,J1,18*%
%TO.N,Net-(J1-Pad18)*%
X461010000Y-610870000D03*
%TO.P,J1,17*%
%TO.N,Net-(J1-Pad17)*%
X458470000Y-610870000D03*
%TO.P,J1,16*%
%TO.N,Net-(J1-Pad16)*%
X455930000Y-610870000D03*
%TO.P,J1,15*%
%TO.N,Net-(J1-Pad15)*%
X453390000Y-610870000D03*
%TO.P,J1,14*%
%TO.N,Net-(J1-Pad14)*%
X450850000Y-610870000D03*
%TO.P,J1,13*%
%TO.N,Net-(J1-Pad13)*%
X448310000Y-610870000D03*
%TO.P,J1,12*%
%TO.N,Net-(J1-Pad12)*%
X445770000Y-610870000D03*
%TO.P,J1,11*%
%TO.N,Net-(J1-Pad11)*%
X443230000Y-610870000D03*
%TO.P,J1,10*%
%TO.N,Net-(J1-Pad10)*%
X440690000Y-610870000D03*
%TO.P,J1,9*%
%TO.N,Net-(J1-Pad9)*%
X438150000Y-610870000D03*
%TO.P,J1,8*%
%TO.N,Net-(J1-Pad8)*%
X435610000Y-610870000D03*
%TO.P,J1,7*%
%TO.N,Net-(J1-Pad7)*%
X433070000Y-610870000D03*
%TO.P,J1,6*%
%TO.N,Net-(J1-Pad6)*%
X430530000Y-610870000D03*
%TO.P,J1,5*%
%TO.N,Net-(J1-Pad5)*%
X427990000Y-610870000D03*
%TO.P,J1,4*%
%TO.N,Net-(J1-Pad4)*%
X425450000Y-610870000D03*
%TO.P,J1,3*%
%TO.N,Net-(J1-Pad3)*%
X422910000Y-610870000D03*
%TO.P,J1,2*%
%TO.N,Net-(J1-Pad2)*%
X420370000Y-610870000D03*
D19*
%TO.P,J1,1*%
%TO.N,Net-(J1-Pad1)*%
X417830000Y-610870000D03*
%TD*%
D23*
%TO.P,C4,2*%
%TO.N,GND*%
X573920000Y-586740000D03*
D24*
%TO.P,C4,1*%
%TO.N,+5V*%
X566420000Y-586740000D03*
%TD*%
D23*
%TO.P,C3,2*%
%TO.N,GND*%
X408820000Y-483870000D03*
D24*
%TO.P,C3,1*%
%TO.N,+5V*%
X401320000Y-483870000D03*
%TD*%
D23*
%TO.P,C2,2*%
%TO.N,GND*%
X573920000Y-483870000D03*
D24*
%TO.P,C2,1*%
%TO.N,+5V*%
X566420000Y-483870000D03*
%TD*%
D23*
%TO.P,C1,2*%
%TO.N,GND*%
X408820000Y-609600000D03*
D24*
%TO.P,C1,1*%
%TO.N,+5V*%
X401320000Y-609600000D03*
%TD*%
D25*
%TO.N,Net-(J4-Pad5)*%
X549910000Y-608330000D03*
%TO.N,Net-(J7-Pad1)*%
X412750000Y-515620000D03*
X453390000Y-519430000D03*
X454660000Y-521970000D03*
%TO.N,Net-(U1-Pad19)*%
X486410000Y-511810000D03*
%TO.N,Net-(U1-Pad17)*%
X534670000Y-481330000D03*
%TO.N,Net-(U1-Pad8)*%
X511810000Y-499110000D03*
X514350000Y-501650000D03*
X449580000Y-496570000D03*
%TO.N,Net-(U1-Pad6)*%
X511810000Y-500380000D03*
X513080000Y-502920000D03*
X516890000Y-502920000D03*
X519430000Y-502920000D03*
%TO.N,Net-(U1-Pad4)*%
X453390000Y-501650000D03*
X481330000Y-487680000D03*
%TO.N,Net-(U1-Pad2)*%
X477520000Y-486410000D03*
X432705304Y-505383213D03*
%TO.N,Net-(U12-Pad12)*%
X412750000Y-530860000D03*
X406400000Y-525780000D03*
X504190000Y-520700000D03*
%TO.N,Net-(U12-Pad11)*%
X421640000Y-537210000D03*
X406400000Y-546100000D03*
X506730000Y-521970000D03*
%TO.N,Net-(U12-Pad10)*%
X407670000Y-527050000D03*
X507774231Y-523014231D03*
%TO.N,Net-(U12-Pad9)*%
X474980000Y-541188203D03*
%TO.N,Net-(U12-Pad8)*%
X415290000Y-558800000D03*
X415290000Y-563880000D03*
X494030000Y-575310000D03*
X488950000Y-551180000D03*
X488950000Y-548640000D03*
%TO.N,Net-(U12-Pad7)*%
X414020000Y-537210000D03*
X414020000Y-554990000D03*
X421640000Y-579120000D03*
X513080000Y-574040000D03*
X538480000Y-537210000D03*
%TO.N,Net-(U12-Pad6)*%
X506730000Y-576580000D03*
X519430000Y-549910000D03*
%TO.N,Net-(U12-Pad5)*%
X474980000Y-525780000D03*
%TO.N,Net-(U12-Pad18)*%
X455930000Y-537210000D03*
X455930000Y-568960000D03*
%TO.N,Net-(U12-Pad27)*%
X518160000Y-537210000D03*
%TO.N,Net-(U12-Pad26)*%
X506730000Y-549910000D03*
X504190000Y-549910000D03*
X474980000Y-529590000D03*
X496570000Y-548640000D03*
X499110000Y-552450000D03*
%TO.N,Net-(U12-Pad23)*%
X483870000Y-535940000D03*
X483870000Y-546100000D03*
X490220000Y-551180000D03*
%TO.N,Net-(U12-Pad25)*%
X513080000Y-548640000D03*
X502920000Y-548640000D03*
X420370000Y-560070000D03*
X421640000Y-589280000D03*
X495480001Y-571319999D03*
X495300000Y-558800000D03*
%TO.N,Net-(U12-Pad4)*%
X525780000Y-539750000D03*
%TO.N,Net-(U12-Pad28)*%
X436880000Y-537210000D03*
X436880000Y-551180000D03*
X431649847Y-558558437D03*
X431800000Y-572770000D03*
X501650000Y-572045000D03*
%TO.N,Net-(U12-Pad3)*%
X511400769Y-536800769D03*
%TO.N,Net-(U12-Pad31)*%
X509270000Y-572770000D03*
X431800000Y-568960000D03*
X510540000Y-574040000D03*
%TO.N,Net-(U10-Pad13)*%
X474980000Y-513080000D03*
X477520000Y-513080000D03*
%TO.N,Net-(U11-Pad14)*%
X518160000Y-500380000D03*
X468630000Y-516890000D03*
X511810000Y-527050000D03*
%TO.N,Net-(U11-Pad13)*%
X519430000Y-500380000D03*
X515620000Y-494030000D03*
X483870000Y-496570000D03*
%TO.N,Net-(U11-Pad12)*%
X524510000Y-501650000D03*
X519430000Y-495300000D03*
X485140000Y-496570000D03*
%TO.N,Net-(U11-Pad11)*%
X525780000Y-500380000D03*
X521970000Y-496570000D03*
X477520000Y-495300000D03*
%TO.N,Net-(U14-Pad14)*%
X552450000Y-497840000D03*
X552450000Y-502920000D03*
X445770000Y-511810000D03*
X536243963Y-493305000D03*
%TO.N,Net-(U14-Pad13)*%
X556455858Y-502724142D03*
X441960000Y-502492299D03*
X425450000Y-499110000D03*
X452120000Y-488950000D03*
X463550000Y-488950000D03*
%TO.N,Net-(U14-Pad12)*%
X558800000Y-505460000D03*
X480060000Y-497659999D03*
X474980000Y-501650000D03*
%TO.N,Net-(U14-Pad11)*%
X484589799Y-494505105D03*
%TO.N,Net-(U10-Pad3)*%
X466090000Y-481330000D03*
%TO.N,Net-(U12-Pad2)*%
X495300000Y-528320000D03*
X514350000Y-535940000D03*
X521970000Y-529590000D03*
%TO.N,Net-(U12-Pad13)*%
X466090000Y-532130000D03*
X482600000Y-543560000D03*
X487680000Y-551180000D03*
%TO.N,Net-(U12-Pad14)*%
X471170000Y-537210000D03*
X533400000Y-549910000D03*
X542290000Y-549910000D03*
%TO.N,Net-(U12-Pad15)*%
X477520000Y-542290000D03*
X533400000Y-552450000D03*
X537210000Y-548640000D03*
%TO.N,Net-(U12-Pad30)*%
X499110000Y-549910000D03*
X508000000Y-552450000D03*
X521970000Y-552450000D03*
%TO.N,Net-(U12-Pad24)*%
X527050000Y-513080000D03*
X552450000Y-565150000D03*
%TO.N,Net-(U13-Pad13)*%
X572770000Y-542290000D03*
X525780000Y-497840000D03*
X529590000Y-495300000D03*
X542290000Y-494030000D03*
X544830000Y-494030000D03*
%TO.N,Net-(U13-Pad11)*%
X529590000Y-496570000D03*
X527050000Y-499110000D03*
%TD*%
D26*
%TO.N,GND*%
X551430000Y-604645000D02*
X552575000Y-605790000D01*
X551430000Y-603250000D02*
X551430000Y-604645000D01*
X558906799Y-516783201D02*
X560070000Y-515620000D01*
X538373201Y-516783201D02*
X558906799Y-516783201D01*
X537210000Y-515620000D02*
X538373201Y-516783201D01*
%TO.N,Net-(J4-Pad5)*%
X539750000Y-568960000D02*
X546206799Y-575416799D01*
X539750000Y-598170000D02*
X549910000Y-608330000D01*
X546206799Y-575416799D02*
X550468337Y-575416799D01*
X550468337Y-575416799D02*
X551073201Y-576021663D01*
X551073201Y-576021663D02*
X551073201Y-577138337D01*
X551073201Y-577138337D02*
X539750000Y-588461538D01*
X539750000Y-588461538D02*
X539750000Y-598170000D01*
%TO.N,Net-(J4-Pad4)*%
X554687501Y-607007501D02*
X556010000Y-608330000D01*
X551990599Y-607007501D02*
X554687501Y-607007501D01*
X550212499Y-605229401D02*
X551990599Y-607007501D01*
X550212499Y-583897501D02*
X550212499Y-605229401D01*
X557530000Y-576580000D02*
X550212499Y-583897501D01*
%TO.N,/G*%
X520700000Y-581660000D02*
X520700000Y-585470000D01*
%TO.N,Net-(J4-Pad1)*%
X561732500Y-603250000D02*
X560590000Y-603250000D01*
X562952501Y-604470001D02*
X561732500Y-603250000D01*
X561174401Y-609547501D02*
X562952501Y-607769401D01*
X522823497Y-609547501D02*
X561174401Y-609547501D01*
X522064999Y-610305999D02*
X522823497Y-609547501D01*
X521264001Y-612045001D02*
X522064999Y-611244003D01*
X562952501Y-607769401D02*
X562952501Y-604470001D01*
X519335001Y-612045001D02*
X521264001Y-612045001D01*
X522064999Y-611244003D02*
X522064999Y-610305999D01*
X518160000Y-610870000D02*
X519335001Y-612045001D01*
%TO.N,Net-(J7-Pad1)*%
X405224990Y-600549992D02*
X405224990Y-523145010D01*
X417620018Y-612945020D02*
X405224990Y-600549992D01*
X486410000Y-610870000D02*
X484334980Y-612945020D01*
X484334980Y-612945020D02*
X417620018Y-612945020D01*
X405224990Y-523145010D02*
X412750000Y-515620000D01*
X453390000Y-519430000D02*
X453390000Y-520700000D01*
X453390000Y-520700000D02*
X454660000Y-521970000D01*
%TO.N,Net-(R6-Pad1)*%
X533400000Y-593090000D02*
X525780000Y-593090000D01*
X549910000Y-576580000D02*
X533400000Y-593090000D01*
%TO.N,Net-(U1-Pad19)*%
X479570097Y-512276897D02*
X480013201Y-512720001D01*
X480013201Y-512720001D02*
X485499999Y-512720001D01*
X474682701Y-512276897D02*
X479570097Y-512276897D01*
X474176897Y-512782701D02*
X474682701Y-512276897D01*
X438150000Y-511810000D02*
X439122701Y-512782701D01*
X439122701Y-512782701D02*
X474176897Y-512782701D01*
X485499999Y-512720001D02*
X486410000Y-511810000D01*
%TO.N,Net-(U1-Pad17)*%
X523348328Y-509613210D02*
X514693210Y-509613210D01*
X524403201Y-508558337D02*
X523348328Y-509613210D01*
X524403201Y-502857201D02*
X524403201Y-508558337D01*
X536743103Y-490517299D02*
X524403201Y-502857201D01*
X514693210Y-509613210D02*
X513080000Y-508000000D01*
X547242299Y-490517299D02*
X536743103Y-490517299D01*
X553422701Y-484336897D02*
X547242299Y-490517299D01*
X553422701Y-483403103D02*
X553422701Y-484336897D01*
X551349598Y-481330000D02*
X553422701Y-483403103D01*
X534670000Y-481330000D02*
X551349598Y-481330000D01*
%TO.N,Net-(U1-Pad15)*%
X508544999Y-500924999D02*
X515620000Y-508000000D01*
X452225587Y-500924999D02*
X508544999Y-500924999D01*
X451388601Y-495394989D02*
X449045598Y-495394990D01*
X454957299Y-491826291D02*
X451388601Y-495394989D01*
X455463103Y-490517299D02*
X454957299Y-491023103D01*
X456991495Y-490517299D02*
X455463103Y-490517299D01*
X457497299Y-491023103D02*
X456991495Y-490517299D01*
X457497299Y-491956897D02*
X457497299Y-491023103D01*
X449045598Y-495394990D02*
X448404989Y-496035599D01*
X458003103Y-492462701D02*
X457497299Y-491956897D01*
X448404989Y-496035599D02*
X448404990Y-497104402D01*
X454957299Y-491023103D02*
X454957299Y-491826291D01*
X460037299Y-492462701D02*
X458003103Y-492462701D01*
X448404990Y-497104402D02*
X452225587Y-500924999D01*
X461010000Y-491490000D02*
X460037299Y-492462701D01*
%TO.N,Net-(U1-Pad13)*%
X519323201Y-509163201D02*
X518160000Y-508000000D01*
X521863201Y-508558337D02*
X521258337Y-509163201D01*
X521863201Y-507441663D02*
X521863201Y-508558337D01*
X521258337Y-509163201D02*
X519323201Y-509163201D01*
X516110197Y-505950197D02*
X520371735Y-505950197D01*
X516110197Y-502337195D02*
X516110197Y-505950197D01*
X512158001Y-498384999D02*
X516110197Y-502337195D01*
X479531997Y-498384999D02*
X512158001Y-498384999D01*
X520371735Y-505950197D02*
X521863201Y-507441663D01*
X476794999Y-495648001D02*
X479531997Y-498384999D01*
X476794999Y-494951999D02*
X476794999Y-495648001D01*
X486112701Y-491956897D02*
X483494599Y-494574999D01*
X486112701Y-491023103D02*
X486112701Y-491956897D01*
X477171999Y-494574999D02*
X476794999Y-494951999D01*
X485156887Y-490067289D02*
X486112701Y-491023103D01*
X475896907Y-490067289D02*
X485156887Y-490067289D01*
X475446897Y-490517299D02*
X475896907Y-490067289D01*
X459442701Y-490517299D02*
X475446897Y-490517299D01*
X483494599Y-494574999D02*
X477171999Y-494574999D01*
X458470000Y-491490000D02*
X459442701Y-490517299D01*
%TO.N,Net-(U1-Pad11)*%
X519536799Y-506836799D02*
X520700000Y-508000000D01*
X515923797Y-506836799D02*
X519536799Y-506836799D01*
X509118997Y-500031999D02*
X515923797Y-506836799D01*
X451968997Y-500031999D02*
X509118997Y-500031999D01*
X448854999Y-496918001D02*
X451968997Y-500031999D01*
X448854999Y-496221999D02*
X448854999Y-496918001D01*
X449231999Y-495844999D02*
X448854999Y-496221999D01*
X451575001Y-495844999D02*
X449231999Y-495844999D01*
X455930000Y-491490000D02*
X451575001Y-495844999D01*
%TO.N,Net-(U1-Pad8)*%
X511810000Y-499110000D02*
X514350000Y-501650000D01*
X482133103Y-492462701D02*
X484167299Y-492462701D01*
X481627299Y-491956897D02*
X482133103Y-492462701D01*
X481627299Y-491490000D02*
X481627299Y-491956897D01*
X480654598Y-490517299D02*
X481627299Y-491490000D01*
X477053103Y-490517299D02*
X480654598Y-490517299D01*
X484167299Y-492462701D02*
X485140000Y-491490000D01*
X476547299Y-491023103D02*
X477053103Y-490517299D01*
X476547299Y-491362299D02*
X476547299Y-491023103D01*
X471339598Y-496570000D02*
X476547299Y-491362299D01*
X449580000Y-496570000D02*
X471339598Y-496570000D01*
%TO.N,Net-(U1-Pad6)*%
X511810000Y-500380000D02*
X513080000Y-501650000D01*
X513080000Y-501650000D02*
X513080000Y-502920000D01*
X516890000Y-502920000D02*
X519430000Y-502920000D01*
%TO.N,Net-(U1-Pad4)*%
X435610000Y-501650000D02*
X433070000Y-504190000D01*
X453390000Y-501650000D02*
X435610000Y-501650000D01*
X433698197Y-485684999D02*
X479334999Y-485684999D01*
X432159999Y-479063591D02*
X432159999Y-484146801D01*
X555962701Y-491956897D02*
X555962701Y-482962299D01*
X432159999Y-484146801D02*
X433698197Y-485684999D01*
X432883600Y-478339990D02*
X432159999Y-479063591D01*
X528320000Y-508000000D02*
X539205001Y-497114999D01*
X539205001Y-497114999D02*
X550804599Y-497114999D01*
X550804599Y-497114999D02*
X555962701Y-491956897D01*
X555962701Y-482962299D02*
X551340392Y-478339990D01*
X551340392Y-478339990D02*
X432883600Y-478339990D01*
X479334999Y-485684999D02*
X481330000Y-487680000D01*
%TO.N,Net-(U1-Pad2)*%
X452417299Y-491023103D02*
X457030402Y-486410000D01*
X452417299Y-491956897D02*
X452417299Y-491023103D01*
X440875421Y-494944981D02*
X449429215Y-494944981D01*
X432097299Y-503723103D02*
X440875421Y-494944981D01*
X528796780Y-510063220D02*
X508341682Y-510063220D01*
X508341682Y-510063220D02*
X503441163Y-505162701D01*
X457030402Y-486410000D02*
X477520000Y-486410000D01*
X503441163Y-505162701D02*
X432603103Y-505162701D01*
X530860000Y-508000000D02*
X528796780Y-510063220D01*
X432603103Y-505162701D02*
X432097299Y-504656897D01*
X449429215Y-494944981D02*
X452417299Y-491956897D01*
X432097299Y-504656897D02*
X432097299Y-503723103D01*
%TO.N,Net-(U12-Pad12)*%
X417011538Y-528320000D02*
X415290000Y-528320000D01*
X424180000Y-527050000D02*
X418281538Y-527050000D01*
X418281538Y-527050000D02*
X417011538Y-528320000D01*
X415290000Y-528320000D02*
X412750000Y-530860000D01*
X474149412Y-520700000D02*
X504190000Y-520700000D01*
X469164402Y-515714990D02*
X474149412Y-520700000D01*
X406400000Y-525780000D02*
X416465010Y-515714990D01*
X416465010Y-515714990D02*
X469164402Y-515714990D01*
%TO.N,Net-(U12-Pad11)*%
X424180000Y-532130000D02*
X421640000Y-534670000D01*
X421640000Y-534670000D02*
X421640000Y-537210000D01*
X500024980Y-515264980D02*
X503279999Y-518519999D01*
X415842018Y-515264980D02*
X500024980Y-515264980D01*
X405674999Y-525431999D02*
X415842018Y-515264980D01*
X503516801Y-518519999D02*
X506730000Y-521733198D01*
X405674999Y-545374999D02*
X405674999Y-527578003D01*
X406400000Y-546100000D02*
X405674999Y-545374999D01*
X405674999Y-526128001D02*
X405674999Y-525431999D01*
X405674999Y-527578003D02*
X406748001Y-526505001D01*
X503279999Y-518519999D02*
X503516801Y-518519999D01*
X406748001Y-526505001D02*
X406051999Y-526505001D01*
X406051999Y-526505001D02*
X405674999Y-526128001D01*
X506730000Y-521733198D02*
X506730000Y-521970000D01*
%TO.N,Net-(U12-Pad10)*%
X407670000Y-527050000D02*
X418555001Y-516164999D01*
X468978001Y-516164999D02*
X475827233Y-523014231D01*
X418555001Y-516164999D02*
X468978001Y-516164999D01*
X475827233Y-523014231D02*
X507774231Y-523014231D01*
%TO.N,Net-(U12-Pad9)*%
X424180000Y-542290000D02*
X425450000Y-541020000D01*
X425450000Y-541020000D02*
X474811797Y-541020000D01*
X474811797Y-541020000D02*
X474980000Y-541188203D01*
%TO.N,Net-(U12-Pad8)*%
X415396799Y-543453201D02*
X415396799Y-558693201D01*
X416560000Y-542290000D02*
X415396799Y-543453201D01*
X415396799Y-558693201D02*
X415290000Y-558800000D01*
X415290000Y-563880000D02*
X426720000Y-575310000D01*
X426720000Y-575310000D02*
X494030000Y-575310000D01*
X488950000Y-551180000D02*
X488950000Y-548640000D01*
%TO.N,Net-(U12-Pad7)*%
X411029990Y-556446400D02*
X428623590Y-574040000D01*
X411029990Y-528318472D02*
X411029990Y-556446400D01*
X416001663Y-523346799D02*
X411029990Y-528318472D01*
X433813209Y-525886799D02*
X431273209Y-523346799D01*
X435503201Y-527608337D02*
X435503201Y-526491663D01*
X417723201Y-538373201D02*
X419871935Y-538373201D01*
X435503201Y-526491663D02*
X434898337Y-525886799D01*
X416560000Y-537210000D02*
X417723201Y-538373201D01*
X434898337Y-525886799D02*
X433813209Y-525886799D01*
X419871935Y-531962929D02*
X423621663Y-528213201D01*
X419871935Y-538373201D02*
X419871935Y-531962929D01*
X423621663Y-528213201D02*
X434898337Y-528213201D01*
X434898337Y-528213201D02*
X435503201Y-527608337D01*
X431273209Y-523346799D02*
X416001663Y-523346799D01*
X414020000Y-537210000D02*
X414020000Y-554990000D01*
X427005589Y-577305001D02*
X509814999Y-577305001D01*
X407321999Y-557621411D02*
X427005589Y-577305001D01*
X421640000Y-579120000D02*
X407321999Y-564801999D01*
X407321999Y-564801999D02*
X407321999Y-557621411D01*
X509814999Y-577305001D02*
X513080000Y-574040000D01*
X538480000Y-530860000D02*
X523240000Y-515620000D01*
X538480000Y-537210000D02*
X538480000Y-530860000D01*
%TO.N,Net-(U12-Pad6)*%
X410579981Y-560242983D02*
X426916998Y-576580000D01*
X420321945Y-538559601D02*
X425975263Y-538559601D01*
X425975263Y-538559601D02*
X433781663Y-530753201D01*
X417754747Y-541126799D02*
X420321945Y-538559601D01*
X416001663Y-541126799D02*
X417754747Y-541126799D01*
X416560000Y-532130000D02*
X415396799Y-533293201D01*
X433781663Y-530753201D02*
X434898337Y-530753201D01*
X432571935Y-523346799D02*
X430031935Y-520806799D01*
X434898337Y-530753201D02*
X435953210Y-529698328D01*
X415396799Y-540521935D02*
X416001663Y-541126799D01*
X415396799Y-533293201D02*
X415396799Y-540521935D01*
X435953210Y-524401672D02*
X434898337Y-523346799D01*
X430031935Y-520806799D02*
X415461799Y-520806799D01*
X435953210Y-529698328D02*
X435953210Y-524401672D01*
X434898337Y-523346799D02*
X432571935Y-523346799D01*
X410579981Y-525688617D02*
X410579981Y-560242983D01*
X415461799Y-520806799D02*
X410579981Y-525688617D01*
X426916998Y-576580000D02*
X506730000Y-576580000D01*
X519430000Y-549910000D02*
X516890000Y-547370000D01*
X516890000Y-547370000D02*
X499110000Y-547370000D01*
X499110000Y-541020000D02*
X500380000Y-539750000D01*
X499110000Y-547370000D02*
X499110000Y-541020000D01*
%TO.N,Net-(U12-Pad5)*%
X518508001Y-537935001D02*
X504734999Y-537935001D01*
X504734999Y-537935001D02*
X502920000Y-539750000D01*
X518885001Y-537558001D02*
X518508001Y-537935001D01*
X518885001Y-536861999D02*
X518885001Y-537558001D01*
X509618001Y-527594999D02*
X518885001Y-536861999D01*
X476794999Y-527594999D02*
X509618001Y-527594999D01*
X474980000Y-525780000D02*
X476794999Y-527594999D01*
%TO.N,Net-(U12-Pad18)*%
X452120000Y-537210000D02*
X455930000Y-537210000D01*
X477520000Y-563246410D02*
X477520000Y-554990000D01*
X455930000Y-568960000D02*
X471806410Y-568960000D01*
X474663205Y-566103205D02*
X479743205Y-566103205D01*
X474663205Y-566103205D02*
X477520000Y-563246410D01*
X471806410Y-568960000D02*
X474663205Y-566103205D01*
X479743205Y-566103205D02*
X483870000Y-570230000D01*
X483870000Y-570230000D02*
X534670000Y-570230000D01*
X541126799Y-567796799D02*
X542290000Y-568960000D01*
X534670000Y-569778462D02*
X536651663Y-567796799D01*
X536651663Y-567796799D02*
X541126799Y-567796799D01*
X534670000Y-570230000D02*
X534670000Y-569778462D01*
%TO.N,Net-(U11-Pad2)*%
X465117299Y-484842701D02*
X466090000Y-483870000D01*
X435610000Y-483710000D02*
X436742701Y-484842701D01*
X436742701Y-484842701D02*
X465117299Y-484842701D01*
X486707299Y-484842701D02*
X487680000Y-483870000D01*
X467062701Y-484842701D02*
X486707299Y-484842701D01*
X466090000Y-483870000D02*
X467062701Y-484842701D01*
X508297299Y-484842701D02*
X509270000Y-483870000D01*
X488652701Y-484842701D02*
X508297299Y-484842701D01*
X487680000Y-483870000D02*
X488652701Y-484842701D01*
X529887299Y-484842701D02*
X530860000Y-483870000D01*
X510242701Y-484842701D02*
X529887299Y-484842701D01*
X509270000Y-483870000D02*
X510242701Y-484842701D01*
X551477299Y-484842701D02*
X552450000Y-483870000D01*
X531832701Y-484842701D02*
X551477299Y-484842701D01*
X530860000Y-483870000D02*
X531832701Y-484842701D01*
%TO.N,Net-(U12-Pad17)*%
X558693201Y-568401663D02*
X544118337Y-553826799D01*
X558693201Y-572876799D02*
X558693201Y-568401663D01*
X476143201Y-553826799D02*
X474980000Y-554990000D01*
X544118337Y-553826799D02*
X476143201Y-553826799D01*
X554990000Y-576580000D02*
X558693201Y-572876799D01*
X450956799Y-543453201D02*
X450956799Y-563986799D01*
X452120000Y-542290000D02*
X450956799Y-543453201D01*
X450956799Y-563986799D02*
X452120000Y-565150000D01*
X452120000Y-565150000D02*
X474980000Y-565150000D01*
X474980000Y-565150000D02*
X474980000Y-554990000D01*
%TO.N,Net-(U4-Pad2)*%
X433070000Y-483710000D02*
X433070000Y-478790000D01*
X433070000Y-478790000D02*
X443230000Y-478790000D01*
X443230000Y-478790000D02*
X443230000Y-483710000D01*
%TO.N,Net-(U12-Pad27)*%
X507893201Y-530753201D02*
X514350000Y-537210000D01*
X441960000Y-527050000D02*
X445663201Y-530753201D01*
X445663201Y-530753201D02*
X507893201Y-530753201D01*
X514350000Y-537210000D02*
X518160000Y-537210000D01*
%TO.N,Net-(U12-Pad26)*%
X506730000Y-549910000D02*
X504190000Y-549910000D01*
X441401663Y-523346799D02*
X468736799Y-523346799D01*
X440346789Y-524401673D02*
X441401663Y-523346799D01*
X441960000Y-532130000D02*
X440346789Y-530516789D01*
X440346789Y-530516789D02*
X440346789Y-524401673D01*
X468736799Y-523346799D02*
X474980000Y-529590000D01*
X496570000Y-548640000D02*
X499110000Y-551180000D01*
X499110000Y-551180000D02*
X499110000Y-552450000D01*
%TO.N,Net-(U12-Pad23)*%
X441960000Y-537210000D02*
X443230000Y-535940000D01*
X443230000Y-535940000D02*
X483870000Y-535940000D01*
X487483002Y-546100000D02*
X490220000Y-548836998D01*
X483870000Y-546100000D02*
X487483002Y-546100000D01*
X490220000Y-548836998D02*
X490220000Y-551180000D01*
%TO.N,Net-(U12-Pad25)*%
X513080000Y-548640000D02*
X502920000Y-548640000D01*
X441960000Y-542290000D02*
X424180000Y-560070000D01*
X424180000Y-560070000D02*
X420370000Y-560070000D01*
X511433001Y-571319999D02*
X495480001Y-571319999D01*
X513805001Y-573691999D02*
X511433001Y-571319999D01*
X513805001Y-574584999D02*
X513805001Y-573691999D01*
X478695001Y-609694999D02*
X513805001Y-574584999D01*
X478225999Y-609694999D02*
X478695001Y-609694999D01*
X444689978Y-589280000D02*
X467904988Y-612495010D01*
X467904988Y-612495010D02*
X476363992Y-612495010D01*
X476363992Y-612495010D02*
X477614999Y-611244003D01*
X421640000Y-589280000D02*
X444689978Y-589280000D01*
X477614999Y-610305999D02*
X478225999Y-609694999D01*
X477614999Y-611244003D02*
X477614999Y-610305999D01*
X495300000Y-558800000D02*
X495300000Y-554990000D01*
%TO.N,Net-(U12-Pad4)*%
X506623201Y-538586799D02*
X505460000Y-539750000D01*
X524616799Y-538586799D02*
X506623201Y-538586799D01*
X525780000Y-539750000D02*
X524616799Y-538586799D01*
X504296799Y-540913201D02*
X505460000Y-539750000D01*
X500938337Y-538586799D02*
X501756799Y-539405261D01*
X427246791Y-538586799D02*
X500938337Y-538586799D01*
X501756799Y-539405261D02*
X501756799Y-540308337D01*
X424706791Y-541126799D02*
X427246791Y-538586799D01*
X423621663Y-541126799D02*
X424706791Y-541126799D01*
X423016799Y-541731663D02*
X423621663Y-541126799D01*
X501756799Y-540308337D02*
X502361663Y-540913201D01*
X423016799Y-542848337D02*
X423016799Y-541731663D01*
X423621663Y-543453201D02*
X423016799Y-542848337D01*
X433176799Y-543453201D02*
X423621663Y-543453201D01*
X502361663Y-540913201D02*
X504296799Y-540913201D01*
X434340000Y-542290000D02*
X433176799Y-543453201D01*
%TO.N,Net-(U12-Pad28)*%
X434340000Y-537210000D02*
X436880000Y-537210000D01*
X436880000Y-551180000D02*
X436880000Y-553720000D01*
X436880000Y-553720000D02*
X432041563Y-558558437D01*
X432041563Y-558558437D02*
X431649847Y-558558437D01*
X509618001Y-572044999D02*
X504915001Y-572044999D01*
X511265001Y-573691999D02*
X509618001Y-572044999D01*
X433614999Y-574584999D02*
X510011997Y-574584999D01*
X504915001Y-572044999D02*
X504640010Y-572319990D01*
X431800000Y-572770000D02*
X433614999Y-574584999D01*
X510011997Y-574584999D02*
X510191999Y-574765001D01*
X510191999Y-574765001D02*
X510888001Y-574765001D01*
X510888001Y-574765001D02*
X511265001Y-574388001D01*
X511265001Y-574388001D02*
X511265001Y-573691999D01*
X504640010Y-572319990D02*
X501650000Y-572319990D01*
X501650000Y-572319990D02*
X501650000Y-572045000D01*
%TO.N,Net-(U12-Pad3)*%
X456641663Y-525886799D02*
X459181663Y-528426799D01*
X459181663Y-528426799D02*
X460298337Y-528426799D01*
X435503201Y-533293201D02*
X447566791Y-533293201D01*
X441401663Y-525886799D02*
X456641663Y-525886799D01*
X434340000Y-532130000D02*
X435503201Y-533293201D01*
X460298337Y-528426799D02*
X461461538Y-529590000D01*
X447566791Y-533293201D02*
X507893201Y-533293201D01*
X442486791Y-528213201D02*
X447566791Y-533293201D01*
X441401663Y-528213201D02*
X442486791Y-528213201D01*
X440796799Y-527608337D02*
X441401663Y-528213201D01*
X440796799Y-526491663D02*
X440796799Y-527608337D01*
X507893201Y-533293201D02*
X511400769Y-536800769D01*
X441401663Y-525886799D02*
X440796799Y-526491663D01*
X465164739Y-525886799D02*
X441401663Y-525886799D01*
X461461538Y-529590000D02*
X465164739Y-525886799D01*
%TO.N,Net-(U12-Pad31)*%
X416001663Y-525886799D02*
X411480000Y-530408462D01*
X434340000Y-527050000D02*
X433176799Y-525886799D01*
X433176799Y-525886799D02*
X416001663Y-525886799D01*
X411480000Y-530408462D02*
X411480000Y-556260000D01*
X411480000Y-556260000D02*
X427990000Y-572770000D01*
X450506789Y-564609791D02*
X458666998Y-572770000D01*
X450506789Y-542181673D02*
X450506789Y-564609791D01*
X427990000Y-572770000D02*
X427990000Y-564698462D01*
X458666998Y-572770000D02*
X509270000Y-572770000D01*
X427990000Y-564698462D02*
X450506789Y-542181673D01*
X431800000Y-568960000D02*
X436880000Y-574040000D01*
X436880000Y-574040000D02*
X510540000Y-574040000D01*
%TO.N,Net-(U10-Pad13)*%
X474980000Y-513080000D02*
X477520000Y-513080000D01*
%TO.N,Net-(U11-Pad14)*%
X515620000Y-500380000D02*
X506730000Y-491490000D01*
X518160000Y-500380000D02*
X515620000Y-500380000D01*
X468630000Y-516890000D02*
X478790000Y-527050000D01*
X478790000Y-527050000D02*
X511810000Y-527050000D01*
%TO.N,Net-(U11-Pad13)*%
X519430000Y-500380000D02*
X515620000Y-496570000D01*
X515620000Y-496570000D02*
X515620000Y-494030000D01*
X498384999Y-497295001D02*
X504190000Y-491490000D01*
X484791999Y-497295001D02*
X498384999Y-497295001D01*
X484414999Y-496918001D02*
X484791999Y-497295001D01*
X484414999Y-496221999D02*
X484414999Y-496918001D01*
X484791999Y-495844999D02*
X484414999Y-496221999D01*
X484595001Y-495844999D02*
X484791999Y-495844999D01*
X483870000Y-496570000D02*
X484595001Y-495844999D01*
%TO.N,Net-(U11-Pad12)*%
X524510000Y-501650000D02*
X519430000Y-496570000D01*
X519430000Y-496570000D02*
X519430000Y-495300000D01*
X501650000Y-492126410D02*
X501650000Y-491490000D01*
X497206410Y-496570000D02*
X501650000Y-492126410D01*
X485140000Y-496570000D02*
X497206410Y-496570000D01*
%TO.N,Net-(U11-Pad11)*%
X525780000Y-500380000D02*
X521970000Y-496570000D01*
X477520000Y-495300000D02*
X497840000Y-495300000D01*
X497840000Y-495300000D02*
X497840000Y-492760000D01*
X497840000Y-492760000D02*
X499110000Y-491490000D01*
%TO.N,Net-(U14-Pad14)*%
X552450000Y-497840000D02*
X552450000Y-502920000D01*
X529483201Y-508558337D02*
X528878337Y-509163201D01*
X530301663Y-506836799D02*
X529483201Y-507655261D01*
X447066771Y-510513229D02*
X530068309Y-510513229D01*
X527156799Y-508558337D02*
X527156799Y-501543201D01*
X527761663Y-509163201D02*
X527156799Y-508558337D01*
X528878337Y-509163201D02*
X527761663Y-509163201D01*
X445770000Y-511810000D02*
X447066771Y-510513229D01*
X529483201Y-507655261D02*
X529483201Y-508558337D01*
X530068309Y-510513229D02*
X532023201Y-508558337D01*
X532023201Y-508558337D02*
X532023201Y-507441663D01*
X532023201Y-507441663D02*
X531418337Y-506836799D01*
X531418337Y-506836799D02*
X530301663Y-506836799D01*
X527156799Y-501543201D02*
X535395000Y-493305000D01*
X535395000Y-493305000D02*
X536243963Y-493305000D01*
%TO.N,Net-(U14-Pad13)*%
X556455858Y-506534142D02*
X554990000Y-508000000D01*
X556455858Y-502724142D02*
X556455858Y-506534142D01*
X461010000Y-504190000D02*
X459312299Y-502492299D01*
X459312299Y-502492299D02*
X441960000Y-502492299D01*
X451950402Y-488950000D02*
X452120000Y-488950000D01*
X446405431Y-494494971D02*
X451950402Y-488950000D01*
X425450000Y-499110000D02*
X430065029Y-494494971D01*
X430065029Y-494494971D02*
X446405431Y-494494971D01*
X523240000Y-488950000D02*
X525780000Y-491490000D01*
X463550000Y-488950000D02*
X523240000Y-488950000D01*
%TO.N,Net-(U14-Pad12)*%
X558800000Y-506730000D02*
X557530000Y-508000000D01*
X558800000Y-505460000D02*
X558800000Y-506730000D01*
X515708591Y-501105001D02*
X512443590Y-497840000D01*
X519778001Y-501105001D02*
X515708591Y-501105001D01*
X520351999Y-494378001D02*
X516345001Y-494378001D01*
X523240000Y-491490000D02*
X520351999Y-494378001D01*
X516345001Y-494378001D02*
X516345001Y-496221999D01*
X516345001Y-496221999D02*
X520155001Y-500031999D01*
X520155001Y-500031999D02*
X520155001Y-500728001D01*
X520155001Y-500728001D02*
X519778001Y-501105001D01*
X512443590Y-497840000D02*
X480240001Y-497840000D01*
X480240001Y-497840000D02*
X480060000Y-497659999D01*
X467190402Y-504190000D02*
X466090000Y-504190000D01*
X469730402Y-501650000D02*
X467190402Y-504190000D01*
X474980000Y-501650000D02*
X469730402Y-501650000D01*
%TO.N,Net-(U14-Pad11)*%
X519727299Y-490517299D02*
X520700000Y-491490000D01*
X496103103Y-490517299D02*
X519727299Y-490517299D01*
X495597299Y-491023103D02*
X496103103Y-490517299D01*
X495597299Y-491362299D02*
X495597299Y-491023103D01*
X492454493Y-494505105D02*
X495597299Y-491362299D01*
X484589799Y-494505105D02*
X492454493Y-494505105D01*
%TO.N,Net-(U10-Pad3)*%
X466090000Y-481330000D02*
X468630000Y-483870000D01*
%TO.N,Net-(U12-Pad2)*%
X495300000Y-528320000D02*
X506730000Y-528320000D01*
X506730000Y-528320000D02*
X514350000Y-535940000D01*
X524510000Y-529590000D02*
X539750000Y-544830000D01*
X521970000Y-529590000D02*
X524510000Y-529590000D01*
%TO.N,Net-(U12-Pad13)*%
X459740000Y-532130000D02*
X466090000Y-532130000D01*
X490568001Y-551905001D02*
X488405001Y-551905001D01*
X490945001Y-551528001D02*
X490568001Y-551905001D01*
X490945001Y-548925589D02*
X490945001Y-551528001D01*
X482600000Y-543560000D02*
X485579412Y-543560000D01*
X485579412Y-543560000D02*
X490945001Y-548925589D01*
X488405001Y-551905001D02*
X487680000Y-551180000D01*
%TO.N,Net-(U12-Pad14)*%
X459740000Y-537210000D02*
X471170000Y-537210000D01*
X514001999Y-550635001D02*
X532674999Y-550635001D01*
X512457008Y-549090010D02*
X514001999Y-550635001D01*
X481223201Y-540913201D02*
X492016791Y-540913201D01*
X503542992Y-549090010D02*
X512457008Y-549090010D01*
X480060000Y-539750000D02*
X481223201Y-540913201D01*
X492016791Y-540913201D02*
X500468591Y-549365001D01*
X500468591Y-549365001D02*
X503268001Y-549365001D01*
X503268001Y-549365001D02*
X503542992Y-549090010D01*
X532674999Y-550635001D02*
X533400000Y-549910000D01*
X544830000Y-549910000D02*
X547370000Y-552450000D01*
X542290000Y-549910000D02*
X544830000Y-549910000D01*
%TO.N,Net-(U12-Pad15)*%
X459740000Y-542290000D02*
X477520000Y-542290000D01*
X477520000Y-542290000D02*
X482600000Y-547370000D01*
X488405001Y-553175001D02*
X532674999Y-553175001D01*
X482600000Y-547370000D02*
X488405001Y-553175001D01*
X532674999Y-553175001D02*
X533400000Y-552450000D01*
X537210000Y-548640000D02*
X552450000Y-548640000D01*
X552450000Y-548640000D02*
X552450000Y-552450000D01*
%TO.N,Net-(U12-Pad30)*%
X499110000Y-549910000D02*
X501650000Y-552450000D01*
X501650000Y-552450000D02*
X508000000Y-552450000D01*
X508000000Y-552450000D02*
X521970000Y-552450000D01*
%TO.N,Net-(U10-Pad2)*%
X501450001Y-507640001D02*
X503080000Y-509270000D01*
X482080001Y-507640001D02*
X501450001Y-507640001D01*
X481170000Y-506730000D02*
X482080001Y-507640001D01*
%TO.N,Net-(U12-Pad24)*%
X534670000Y-513080000D02*
X539750000Y-508000000D01*
X527050000Y-513080000D02*
X534670000Y-513080000D01*
X492760000Y-557333002D02*
X500576998Y-565150000D01*
X492760000Y-554990000D02*
X492760000Y-557333002D01*
X500576998Y-565150000D02*
X552450000Y-565150000D01*
%TO.N,Net-(U13-Pad13)*%
X544830000Y-542290000D02*
X542290000Y-544830000D01*
X572770000Y-542290000D02*
X544830000Y-542290000D01*
X525780000Y-497840000D02*
X527050000Y-497840000D01*
X527050000Y-497840000D02*
X529590000Y-495300000D01*
X542290000Y-494030000D02*
X544830000Y-494030000D01*
%TO.N,Net-(U13-Pad11)*%
X529590000Y-496570000D02*
X527050000Y-499110000D01*
X503990001Y-516886999D02*
X537210000Y-550106998D01*
X503080000Y-511810000D02*
X503990001Y-512720001D01*
X503990001Y-512720001D02*
X503990001Y-516886999D01*
X537210000Y-550106998D02*
X537210000Y-553376789D01*
%TD*%
M02*
