%TF.GenerationSoftware,KiCad,Pcbnew,5.1.12-84ad8e8a86~92~ubuntu18.04.1*%
%TF.CreationDate,2021-11-25T10:44:01-05:00*%
%TF.ProjectId,vectron_vga_plus_design,76656374-726f-46e5-9f76-67615f706c75,rev?*%
%TF.SameCoordinates,Original*%
%TF.FileFunction,Copper,L1,Top*%
%TF.FilePolarity,Positive*%
%FSLAX46Y46*%
G04 Gerber Fmt 4.6, Leading zero omitted, Abs format (unit mm)*
G04 Created by KiCad (PCBNEW 5.1.12-84ad8e8a86~92~ubuntu18.04.1) date 2021-11-25 10:44:01*
%MOMM*%
%LPD*%
G01*
G04 APERTURE LIST*
%TA.AperFunction,ComponentPad*%
%ADD10C,1.676400*%
%TD*%
%TA.AperFunction,ComponentPad*%
%ADD11R,1.676400X1.676400*%
%TD*%
%TA.AperFunction,SMDPad,CuDef*%
%ADD12R,1.800000X2.000000*%
%TD*%
%TA.AperFunction,ComponentPad*%
%ADD13C,1.295400*%
%TD*%
%TA.AperFunction,ComponentPad*%
%ADD14R,1.295400X1.295400*%
%TD*%
%TA.AperFunction,ComponentPad*%
%ADD15C,1.170000*%
%TD*%
%TA.AperFunction,ComponentPad*%
%ADD16R,1.170000X1.170000*%
%TD*%
%TA.AperFunction,ComponentPad*%
%ADD17O,1.600000X1.600000*%
%TD*%
%TA.AperFunction,ComponentPad*%
%ADD18C,1.600000*%
%TD*%
%TA.AperFunction,ComponentPad*%
%ADD19O,1.700000X1.700000*%
%TD*%
%TA.AperFunction,ComponentPad*%
%ADD20R,1.700000X1.700000*%
%TD*%
%TA.AperFunction,ComponentPad*%
%ADD21C,4.066000*%
%TD*%
%TA.AperFunction,ComponentPad*%
%ADD22C,1.785000*%
%TD*%
%TA.AperFunction,ComponentPad*%
%ADD23R,1.785000X1.785000*%
%TD*%
%TA.AperFunction,ComponentPad*%
%ADD24C,2.000000*%
%TD*%
%TA.AperFunction,ComponentPad*%
%ADD25R,2.000000X2.000000*%
%TD*%
%TA.AperFunction,ViaPad*%
%ADD26C,0.800000*%
%TD*%
%TA.AperFunction,Conductor*%
%ADD27C,0.250000*%
%TD*%
G04 APERTURE END LIST*
D10*
%TO.P,U17,20*%
%TO.N,+5V*%
X537210000Y-508000000D03*
%TO.P,U17,19*%
%TO.N,Net-(U12-Pad24)*%
X539750000Y-508000000D03*
%TO.P,U17,18*%
%TO.N,Net-(U11-Pad14)*%
X542290000Y-508000000D03*
%TO.P,U17,17*%
%TO.N,Net-(U11-Pad13)*%
X544830000Y-508000000D03*
%TO.P,U17,16*%
%TO.N,Net-(U11-Pad12)*%
X547370000Y-508000000D03*
%TO.P,U17,15*%
%TO.N,Net-(U11-Pad11)*%
X549910000Y-508000000D03*
%TO.P,U17,14*%
%TO.N,Net-(U14-Pad14)*%
X552450000Y-508000000D03*
%TO.P,U17,13*%
%TO.N,Net-(U14-Pad13)*%
X554990000Y-508000000D03*
%TO.P,U17,12*%
%TO.N,Net-(U14-Pad12)*%
X557530000Y-508000000D03*
%TO.P,U17,11*%
%TO.N,Net-(U14-Pad11)*%
X560070000Y-508000000D03*
%TO.P,U17,10*%
%TO.N,GND*%
X560070000Y-515620000D03*
%TO.P,U17,9*%
%TO.N,Net-(U12-Pad31)*%
X557530000Y-515620000D03*
%TO.P,U17,8*%
%TO.N,Net-(U12-Pad3)*%
X554990000Y-515620000D03*
%TO.P,U17,7*%
%TO.N,Net-(U12-Pad28)*%
X552450000Y-515620000D03*
%TO.P,U17,6*%
%TO.N,Net-(U12-Pad4)*%
X549910000Y-515620000D03*
%TO.P,U17,5*%
%TO.N,Net-(U12-Pad25)*%
X547370000Y-515620000D03*
%TO.P,U17,4*%
%TO.N,Net-(U12-Pad23)*%
X544830000Y-515620000D03*
%TO.P,U17,3*%
%TO.N,Net-(U12-Pad26)*%
X542290000Y-515620000D03*
%TO.P,U17,2*%
%TO.N,Net-(U12-Pad27)*%
X539750000Y-515620000D03*
D11*
%TO.P,U17,1*%
%TO.N,GND*%
X537210000Y-515620000D03*
%TD*%
D12*
%TO.P,X1,4*%
%TO.N,+5V*%
X420370000Y-484310000D03*
%TO.P,X1,3*%
%TO.N,Net-(U4-Pad3)*%
X425450000Y-484310000D03*
%TO.P,X1,2*%
%TO.N,GND*%
X425450000Y-488510000D03*
%TO.P,X1,1*%
%TO.N,Net-(X1-Pad1)*%
X420370000Y-488510000D03*
%TD*%
D13*
%TO.P,U18,16*%
%TO.N,+5V*%
X554990000Y-491490000D03*
%TO.P,U18,15*%
%TO.N,Net-(U18-Pad15)*%
X552450000Y-491490000D03*
%TO.P,U18,14*%
%TO.N,Net-(U13-Pad11)*%
X549910000Y-491490000D03*
%TO.P,U18,13*%
%TO.N,Net-(U13-Pad13)*%
X547370000Y-491490000D03*
%TO.P,U18,12*%
%TO.N,Net-(U18-Pad12)*%
X544830000Y-491490000D03*
%TO.P,U18,11*%
%TO.N,Net-(U18-Pad11)*%
X542290000Y-491490000D03*
%TO.P,U18,10*%
%TO.N,Net-(U14-Pad15)*%
X539750000Y-491490000D03*
%TO.P,U18,9*%
%TO.N,+5V*%
X537210000Y-491490000D03*
%TO.P,U18,8*%
%TO.N,GND*%
X537210000Y-483870000D03*
%TO.P,U18,7*%
%TO.N,Net-(U14-Pad15)*%
X539750000Y-483870000D03*
%TO.P,U18,6*%
%TO.N,Net-(U18-Pad6)*%
X542290000Y-483870000D03*
%TO.P,U18,5*%
%TO.N,Net-(U18-Pad5)*%
X544830000Y-483870000D03*
%TO.P,U18,4*%
%TO.N,Net-(U18-Pad4)*%
X547370000Y-483870000D03*
%TO.P,U18,3*%
%TO.N,Net-(U18-Pad3)*%
X549910000Y-483870000D03*
%TO.P,U18,2*%
%TO.N,Net-(U11-Pad2)*%
X552450000Y-483870000D03*
D14*
%TO.P,U18,1*%
%TO.N,Net-(U10-Pad3)*%
X554990000Y-483870000D03*
%TD*%
D10*
%TO.P,U16,20*%
%TO.N,+5V*%
X560070000Y-552450000D03*
%TO.P,U16,19*%
%TO.N,Net-(U12-Pad24)*%
X557530000Y-552450000D03*
%TO.P,U16,18*%
%TO.N,Net-(U16-Pad18)*%
X554990000Y-552450000D03*
%TO.P,U16,17*%
%TO.N,Net-(U12-Pad15)*%
X552450000Y-552450000D03*
%TO.P,U16,16*%
%TO.N,Net-(U16-Pad16)*%
X549910000Y-552450000D03*
%TO.P,U16,15*%
%TO.N,Net-(U12-Pad14)*%
X547370000Y-552450000D03*
%TO.P,U16,14*%
%TO.N,Net-(U16-Pad14)*%
X544830000Y-552450000D03*
%TO.P,U16,13*%
%TO.N,Net-(U12-Pad13)*%
X542290000Y-552450000D03*
%TO.P,U16,12*%
%TO.N,Net-(U12-Pad30)*%
X539750000Y-552450000D03*
%TO.P,U16,11*%
%TO.N,Net-(U13-Pad11)*%
X537210000Y-552450000D03*
%TO.P,U16,10*%
%TO.N,GND*%
X537210000Y-544830000D03*
%TO.P,U16,9*%
%TO.N,Net-(U12-Pad2)*%
X539750000Y-544830000D03*
%TO.P,U16,8*%
%TO.N,Net-(U13-Pad13)*%
X542290000Y-544830000D03*
%TO.P,U16,7*%
%TO.N,Net-(U16-Pad7)*%
X544830000Y-544830000D03*
%TO.P,U16,6*%
%TO.N,Net-(U16-Pad6)*%
X547370000Y-544830000D03*
%TO.P,U16,5*%
%TO.N,Net-(U16-Pad5)*%
X549910000Y-544830000D03*
%TO.P,U16,4*%
%TO.N,Net-(U16-Pad4)*%
X552450000Y-544830000D03*
%TO.P,U16,3*%
%TO.N,Net-(U16-Pad3)*%
X554990000Y-544830000D03*
%TO.P,U16,2*%
%TO.N,Net-(U16-Pad2)*%
X557530000Y-544830000D03*
D11*
%TO.P,U16,1*%
%TO.N,Net-(U12-Pad24)*%
X560070000Y-544830000D03*
%TD*%
D10*
%TO.P,U15,20*%
%TO.N,+5V*%
X508000000Y-508000000D03*
%TO.P,U15,19*%
%TO.N,Net-(U12-Pad24)*%
X510540000Y-508000000D03*
%TO.P,U15,18*%
%TO.N,Net-(U1-Pad17)*%
X513080000Y-508000000D03*
%TO.P,U15,17*%
%TO.N,Net-(U1-Pad15)*%
X515620000Y-508000000D03*
%TO.P,U15,16*%
%TO.N,Net-(U1-Pad13)*%
X518160000Y-508000000D03*
%TO.P,U15,15*%
%TO.N,Net-(U1-Pad11)*%
X520700000Y-508000000D03*
%TO.P,U15,14*%
%TO.N,Net-(U1-Pad8)*%
X523240000Y-508000000D03*
%TO.P,U15,13*%
%TO.N,Net-(U1-Pad6)*%
X525780000Y-508000000D03*
%TO.P,U15,12*%
%TO.N,Net-(U1-Pad4)*%
X528320000Y-508000000D03*
%TO.P,U15,11*%
%TO.N,Net-(U1-Pad2)*%
X530860000Y-508000000D03*
%TO.P,U15,10*%
%TO.N,GND*%
X530860000Y-515620000D03*
%TO.P,U15,9*%
%TO.N,Net-(U12-Pad5)*%
X528320000Y-515620000D03*
%TO.P,U15,8*%
%TO.N,Net-(U12-Pad6)*%
X525780000Y-515620000D03*
%TO.P,U15,7*%
%TO.N,Net-(U12-Pad7)*%
X523240000Y-515620000D03*
%TO.P,U15,6*%
%TO.N,Net-(U12-Pad8)*%
X520700000Y-515620000D03*
%TO.P,U15,5*%
%TO.N,Net-(U12-Pad9)*%
X518160000Y-515620000D03*
%TO.P,U15,4*%
%TO.N,Net-(U12-Pad10)*%
X515620000Y-515620000D03*
%TO.P,U15,3*%
%TO.N,Net-(U12-Pad11)*%
X513080000Y-515620000D03*
%TO.P,U15,2*%
%TO.N,Net-(U12-Pad12)*%
X510540000Y-515620000D03*
D11*
%TO.P,U15,1*%
%TO.N,GND*%
X508000000Y-515620000D03*
%TD*%
D13*
%TO.P,U14,16*%
%TO.N,+5V*%
X533400000Y-491490000D03*
%TO.P,U14,15*%
%TO.N,Net-(U14-Pad15)*%
X530860000Y-491490000D03*
%TO.P,U14,14*%
%TO.N,Net-(U14-Pad14)*%
X528320000Y-491490000D03*
%TO.P,U14,13*%
%TO.N,Net-(U14-Pad13)*%
X525780000Y-491490000D03*
%TO.P,U14,12*%
%TO.N,Net-(U14-Pad12)*%
X523240000Y-491490000D03*
%TO.P,U14,11*%
%TO.N,Net-(U14-Pad11)*%
X520700000Y-491490000D03*
%TO.P,U14,10*%
%TO.N,Net-(U11-Pad15)*%
X518160000Y-491490000D03*
%TO.P,U14,9*%
%TO.N,+5V*%
X515620000Y-491490000D03*
%TO.P,U14,8*%
%TO.N,GND*%
X515620000Y-483870000D03*
%TO.P,U14,7*%
%TO.N,Net-(U11-Pad15)*%
X518160000Y-483870000D03*
%TO.P,U14,6*%
%TO.N,Net-(U14-Pad6)*%
X520700000Y-483870000D03*
%TO.P,U14,5*%
%TO.N,Net-(U14-Pad5)*%
X523240000Y-483870000D03*
%TO.P,U14,4*%
%TO.N,Net-(U14-Pad4)*%
X525780000Y-483870000D03*
%TO.P,U14,3*%
%TO.N,Net-(U14-Pad3)*%
X528320000Y-483870000D03*
%TO.P,U14,2*%
%TO.N,Net-(U11-Pad2)*%
X530860000Y-483870000D03*
D14*
%TO.P,U14,1*%
%TO.N,Net-(U10-Pad3)*%
X533400000Y-483870000D03*
%TD*%
D15*
%TO.P,U13,14*%
%TO.N,+5V*%
X503080000Y-504190000D03*
%TO.P,U13,13*%
%TO.N,Net-(U13-Pad13)*%
X503080000Y-506730000D03*
%TO.P,U13,12*%
%TO.N,Net-(U10-Pad2)*%
X503080000Y-509270000D03*
%TO.P,U13,11*%
%TO.N,Net-(U13-Pad11)*%
X503080000Y-511810000D03*
%TO.P,U13,10*%
%TO.N,Net-(U10-Pad9)*%
X503080000Y-514350000D03*
%TO.P,U13,9*%
%TO.N,Net-(U13-Pad9)*%
X503080000Y-516890000D03*
%TO.P,U13,8*%
%TO.N,Net-(U13-Pad8)*%
X503080000Y-519430000D03*
%TO.P,U13,7*%
%TO.N,GND*%
X495140000Y-519430000D03*
%TO.P,U13,6*%
%TO.N,Net-(U13-Pad6)*%
X495140000Y-516890000D03*
%TO.P,U13,5*%
%TO.N,Net-(U13-Pad5)*%
X495140000Y-514350000D03*
%TO.P,U13,4*%
%TO.N,Net-(U13-Pad4)*%
X495140000Y-511810000D03*
%TO.P,U13,3*%
%TO.N,Net-(U13-Pad3)*%
X495140000Y-509270000D03*
%TO.P,U13,2*%
%TO.N,Net-(U12-Pad24)*%
X495140000Y-506730000D03*
D16*
%TO.P,U13,1*%
%TO.N,Net-(J7-Pad1)*%
X495140000Y-504190000D03*
%TD*%
D10*
%TO.P,U12,32*%
%TO.N,+5V*%
X513080000Y-554990000D03*
%TO.P,U12,31*%
%TO.N,Net-(U12-Pad31)*%
X510540000Y-554990000D03*
%TO.P,U12,30*%
%TO.N,Net-(U12-Pad30)*%
X508000000Y-554990000D03*
%TO.P,U12,29*%
%TO.N,Net-(J7-Pad1)*%
X505460000Y-554990000D03*
%TO.P,U12,28*%
%TO.N,Net-(U12-Pad28)*%
X502920000Y-554990000D03*
%TO.P,U12,27*%
%TO.N,Net-(U12-Pad27)*%
X500380000Y-554990000D03*
%TO.P,U12,26*%
%TO.N,Net-(U12-Pad26)*%
X497840000Y-554990000D03*
%TO.P,U12,25*%
%TO.N,Net-(U12-Pad25)*%
X495300000Y-554990000D03*
%TO.P,U12,24*%
%TO.N,Net-(U12-Pad24)*%
X492760000Y-554990000D03*
%TO.P,U12,23*%
%TO.N,Net-(U12-Pad23)*%
X490220000Y-554990000D03*
%TO.P,U12,22*%
%TO.N,Net-(J7-Pad2)*%
X487680000Y-554990000D03*
%TO.P,U12,21*%
%TO.N,Net-(U12-Pad21)*%
X485140000Y-554990000D03*
%TO.P,U12,20*%
%TO.N,Net-(U12-Pad20)*%
X482600000Y-554990000D03*
%TO.P,U12,19*%
%TO.N,Net-(U12-Pad19)*%
X480060000Y-554990000D03*
%TO.P,U12,18*%
%TO.N,Net-(U12-Pad18)*%
X477520000Y-554990000D03*
%TO.P,U12,17*%
%TO.N,Net-(U12-Pad17)*%
X474980000Y-554990000D03*
%TO.P,U12,16*%
%TO.N,GND*%
X474980000Y-539750000D03*
%TO.P,U12,15*%
%TO.N,Net-(U12-Pad15)*%
X477520000Y-539750000D03*
%TO.P,U12,14*%
%TO.N,Net-(U12-Pad14)*%
X480060000Y-539750000D03*
%TO.P,U12,13*%
%TO.N,Net-(U12-Pad13)*%
X482600000Y-539750000D03*
%TO.P,U12,12*%
%TO.N,Net-(U12-Pad12)*%
X485140000Y-539750000D03*
%TO.P,U12,11*%
%TO.N,Net-(U12-Pad11)*%
X487680000Y-539750000D03*
%TO.P,U12,10*%
%TO.N,Net-(U12-Pad10)*%
X490220000Y-539750000D03*
%TO.P,U12,9*%
%TO.N,Net-(U12-Pad9)*%
X492760000Y-539750000D03*
%TO.P,U12,8*%
%TO.N,Net-(U12-Pad8)*%
X495300000Y-539750000D03*
%TO.P,U12,7*%
%TO.N,Net-(U12-Pad7)*%
X497840000Y-539750000D03*
%TO.P,U12,6*%
%TO.N,Net-(U12-Pad6)*%
X500380000Y-539750000D03*
%TO.P,U12,5*%
%TO.N,Net-(U12-Pad5)*%
X502920000Y-539750000D03*
%TO.P,U12,4*%
%TO.N,Net-(U12-Pad4)*%
X505460000Y-539750000D03*
%TO.P,U12,3*%
%TO.N,Net-(U12-Pad3)*%
X508000000Y-539750000D03*
%TO.P,U12,2*%
%TO.N,Net-(U12-Pad2)*%
X510540000Y-539750000D03*
D11*
%TO.P,U12,1*%
%TO.N,GND*%
X513080000Y-539750000D03*
%TD*%
D13*
%TO.P,U11,16*%
%TO.N,+5V*%
X511810000Y-491490000D03*
%TO.P,U11,15*%
%TO.N,Net-(U11-Pad15)*%
X509270000Y-491490000D03*
%TO.P,U11,14*%
%TO.N,Net-(U11-Pad14)*%
X506730000Y-491490000D03*
%TO.P,U11,13*%
%TO.N,Net-(U11-Pad13)*%
X504190000Y-491490000D03*
%TO.P,U11,12*%
%TO.N,Net-(U11-Pad12)*%
X501650000Y-491490000D03*
%TO.P,U11,11*%
%TO.N,Net-(U11-Pad11)*%
X499110000Y-491490000D03*
%TO.P,U11,10*%
%TO.N,Net-(U11-Pad10)*%
X496570000Y-491490000D03*
%TO.P,U11,9*%
%TO.N,+5V*%
X494030000Y-491490000D03*
%TO.P,U11,8*%
%TO.N,GND*%
X494030000Y-483870000D03*
%TO.P,U11,7*%
%TO.N,Net-(U11-Pad10)*%
X496570000Y-483870000D03*
%TO.P,U11,6*%
%TO.N,Net-(U11-Pad6)*%
X499110000Y-483870000D03*
%TO.P,U11,5*%
%TO.N,Net-(U11-Pad5)*%
X501650000Y-483870000D03*
%TO.P,U11,4*%
%TO.N,Net-(U11-Pad4)*%
X504190000Y-483870000D03*
%TO.P,U11,3*%
%TO.N,Net-(U11-Pad3)*%
X506730000Y-483870000D03*
%TO.P,U11,2*%
%TO.N,Net-(U11-Pad2)*%
X509270000Y-483870000D03*
D14*
%TO.P,U11,1*%
%TO.N,Net-(U10-Pad3)*%
X511810000Y-483870000D03*
%TD*%
D15*
%TO.P,U10,14*%
%TO.N,+5V*%
X489110000Y-504190000D03*
%TO.P,U10,13*%
%TO.N,Net-(U10-Pad13)*%
X489110000Y-506730000D03*
%TO.P,U10,12*%
%TO.N,Net-(U1-Pad19)*%
X489110000Y-509270000D03*
%TO.P,U10,11*%
%TO.N,Net-(U10-Pad10)*%
X489110000Y-511810000D03*
%TO.P,U10,10*%
X489110000Y-514350000D03*
%TO.P,U10,9*%
%TO.N,Net-(U10-Pad9)*%
X489110000Y-516890000D03*
%TO.P,U10,8*%
%TO.N,Net-(U10-Pad1)*%
X489110000Y-519430000D03*
%TO.P,U10,7*%
%TO.N,GND*%
X481170000Y-519430000D03*
%TO.P,U10,6*%
%TO.N,Net-(U10-Pad6)*%
X481170000Y-516890000D03*
%TO.P,U10,5*%
%TO.N,Net-(U10-Pad5)*%
X481170000Y-514350000D03*
%TO.P,U10,4*%
%TO.N,Net-(U10-Pad4)*%
X481170000Y-511810000D03*
%TO.P,U10,3*%
%TO.N,Net-(U10-Pad3)*%
X481170000Y-509270000D03*
%TO.P,U10,2*%
%TO.N,Net-(U10-Pad2)*%
X481170000Y-506730000D03*
D16*
%TO.P,U10,1*%
%TO.N,Net-(U10-Pad1)*%
X481170000Y-504190000D03*
%TD*%
D10*
%TO.P,U9,20*%
%TO.N,+5V*%
X459740000Y-521970000D03*
%TO.P,U9,19*%
%TO.N,Net-(J7-Pad1)*%
X459740000Y-524510000D03*
%TO.P,U9,18*%
%TO.N,Net-(U12-Pad2)*%
X459740000Y-527050000D03*
%TO.P,U9,17*%
%TO.N,Net-(J1-Pad18)*%
X459740000Y-529590000D03*
%TO.P,U9,16*%
%TO.N,Net-(U12-Pad13)*%
X459740000Y-532130000D03*
%TO.P,U9,15*%
%TO.N,Net-(U9-Pad15)*%
X459740000Y-534670000D03*
%TO.P,U9,14*%
%TO.N,Net-(U12-Pad14)*%
X459740000Y-537210000D03*
%TO.P,U9,13*%
%TO.N,Net-(J2-Pad5)*%
X459740000Y-539750000D03*
%TO.P,U9,12*%
%TO.N,Net-(U12-Pad15)*%
X459740000Y-542290000D03*
%TO.P,U9,11*%
%TO.N,Net-(J2-Pad4)*%
X459740000Y-544830000D03*
%TO.P,U9,10*%
%TO.N,GND*%
X452120000Y-544830000D03*
%TO.P,U9,9*%
%TO.N,Net-(U12-Pad17)*%
X452120000Y-542290000D03*
%TO.P,U9,8*%
%TO.N,Net-(J2-Pad3)*%
X452120000Y-539750000D03*
%TO.P,U9,7*%
%TO.N,Net-(U12-Pad18)*%
X452120000Y-537210000D03*
%TO.P,U9,6*%
%TO.N,Net-(J2-Pad2)*%
X452120000Y-534670000D03*
%TO.P,U9,5*%
%TO.N,Net-(U9-Pad5)*%
X452120000Y-532130000D03*
%TO.P,U9,4*%
%TO.N,Net-(J2-Pad1)*%
X452120000Y-529590000D03*
%TO.P,U9,3*%
%TO.N,Net-(U12-Pad30)*%
X452120000Y-527050000D03*
%TO.P,U9,2*%
%TO.N,Net-(J1-Pad17)*%
X452120000Y-524510000D03*
D11*
%TO.P,U9,1*%
%TO.N,Net-(J7-Pad1)*%
X452120000Y-521970000D03*
%TD*%
D13*
%TO.P,U8,16*%
%TO.N,+5V*%
X490220000Y-491490000D03*
%TO.P,U8,15*%
%TO.N,Net-(U11-Pad10)*%
X487680000Y-491490000D03*
%TO.P,U8,14*%
%TO.N,Net-(U1-Pad8)*%
X485140000Y-491490000D03*
%TO.P,U8,13*%
%TO.N,Net-(U1-Pad6)*%
X482600000Y-491490000D03*
%TO.P,U8,12*%
%TO.N,Net-(U1-Pad4)*%
X480060000Y-491490000D03*
%TO.P,U8,11*%
%TO.N,Net-(U1-Pad2)*%
X477520000Y-491490000D03*
%TO.P,U8,10*%
%TO.N,Net-(U7-Pad15)*%
X474980000Y-491490000D03*
%TO.P,U8,9*%
%TO.N,+5V*%
X472440000Y-491490000D03*
%TO.P,U8,8*%
%TO.N,GND*%
X472440000Y-483870000D03*
%TO.P,U8,7*%
%TO.N,Net-(U7-Pad15)*%
X474980000Y-483870000D03*
%TO.P,U8,6*%
%TO.N,Net-(U8-Pad6)*%
X477520000Y-483870000D03*
%TO.P,U8,5*%
%TO.N,Net-(U8-Pad5)*%
X480060000Y-483870000D03*
%TO.P,U8,4*%
%TO.N,Net-(U8-Pad4)*%
X482600000Y-483870000D03*
%TO.P,U8,3*%
%TO.N,Net-(U8-Pad3)*%
X485140000Y-483870000D03*
%TO.P,U8,2*%
%TO.N,Net-(U11-Pad2)*%
X487680000Y-483870000D03*
D14*
%TO.P,U8,1*%
%TO.N,Net-(U10-Pad3)*%
X490220000Y-483870000D03*
%TD*%
D13*
%TO.P,U7,16*%
%TO.N,+5V*%
X468630000Y-491490000D03*
%TO.P,U7,15*%
%TO.N,Net-(U7-Pad15)*%
X466090000Y-491490000D03*
%TO.P,U7,14*%
%TO.N,Net-(U1-Pad17)*%
X463550000Y-491490000D03*
%TO.P,U7,13*%
%TO.N,Net-(U1-Pad15)*%
X461010000Y-491490000D03*
%TO.P,U7,12*%
%TO.N,Net-(U1-Pad13)*%
X458470000Y-491490000D03*
%TO.P,U7,11*%
%TO.N,Net-(U1-Pad11)*%
X455930000Y-491490000D03*
%TO.P,U7,10*%
%TO.N,+5V*%
X453390000Y-491490000D03*
%TO.P,U7,9*%
X450850000Y-491490000D03*
%TO.P,U7,8*%
%TO.N,GND*%
X450850000Y-483870000D03*
%TO.P,U7,7*%
%TO.N,+5V*%
X453390000Y-483870000D03*
%TO.P,U7,6*%
%TO.N,Net-(U7-Pad6)*%
X455930000Y-483870000D03*
%TO.P,U7,5*%
%TO.N,Net-(U7-Pad5)*%
X458470000Y-483870000D03*
%TO.P,U7,4*%
%TO.N,Net-(U7-Pad4)*%
X461010000Y-483870000D03*
%TO.P,U7,3*%
%TO.N,Net-(U7-Pad3)*%
X463550000Y-483870000D03*
%TO.P,U7,2*%
%TO.N,Net-(U11-Pad2)*%
X466090000Y-483870000D03*
D14*
%TO.P,U7,1*%
%TO.N,Net-(U10-Pad3)*%
X468630000Y-483870000D03*
%TD*%
D13*
%TO.P,U6,20*%
%TO.N,+5V*%
X473710000Y-511810000D03*
%TO.P,U6,19*%
%TO.N,Net-(U10-Pad13)*%
X471170000Y-511810000D03*
%TO.P,U6,18*%
%TO.N,GND*%
X468630000Y-511810000D03*
%TO.P,U6,17*%
%TO.N,Net-(U11-Pad14)*%
X466090000Y-511810000D03*
%TO.P,U6,16*%
%TO.N,GND*%
X463550000Y-511810000D03*
%TO.P,U6,15*%
%TO.N,Net-(U11-Pad13)*%
X461010000Y-511810000D03*
%TO.P,U6,14*%
%TO.N,+5V*%
X458470000Y-511810000D03*
%TO.P,U6,13*%
%TO.N,Net-(U11-Pad12)*%
X455930000Y-511810000D03*
%TO.P,U6,12*%
%TO.N,GND*%
X453390000Y-511810000D03*
%TO.P,U6,11*%
%TO.N,Net-(U11-Pad11)*%
X450850000Y-511810000D03*
%TO.P,U6,10*%
%TO.N,GND*%
X450850000Y-504190000D03*
%TO.P,U6,9*%
%TO.N,+5V*%
X453390000Y-504190000D03*
%TO.P,U6,8*%
%TO.N,Net-(U14-Pad14)*%
X455930000Y-504190000D03*
%TO.P,U6,7*%
%TO.N,+5V*%
X458470000Y-504190000D03*
%TO.P,U6,6*%
%TO.N,Net-(U14-Pad13)*%
X461010000Y-504190000D03*
%TO.P,U6,5*%
%TO.N,GND*%
X463550000Y-504190000D03*
%TO.P,U6,4*%
%TO.N,Net-(U14-Pad12)*%
X466090000Y-504190000D03*
%TO.P,U6,3*%
%TO.N,GND*%
X468630000Y-504190000D03*
%TO.P,U6,2*%
%TO.N,Net-(U14-Pad11)*%
X471170000Y-504190000D03*
D14*
%TO.P,U6,1*%
%TO.N,Net-(U6-Pad1)*%
X473710000Y-504190000D03*
%TD*%
D10*
%TO.P,U5,20*%
%TO.N,+5V*%
X441960000Y-521970000D03*
%TO.P,U5,19*%
%TO.N,Net-(J7-Pad1)*%
X441960000Y-524510000D03*
%TO.P,U5,18*%
%TO.N,Net-(U12-Pad27)*%
X441960000Y-527050000D03*
%TO.P,U5,17*%
%TO.N,Net-(J1-Pad16)*%
X441960000Y-529590000D03*
%TO.P,U5,16*%
%TO.N,Net-(U12-Pad26)*%
X441960000Y-532130000D03*
%TO.P,U5,15*%
%TO.N,Net-(J1-Pad15)*%
X441960000Y-534670000D03*
%TO.P,U5,14*%
%TO.N,Net-(U12-Pad23)*%
X441960000Y-537210000D03*
%TO.P,U5,13*%
%TO.N,Net-(J1-Pad14)*%
X441960000Y-539750000D03*
%TO.P,U5,12*%
%TO.N,Net-(U12-Pad25)*%
X441960000Y-542290000D03*
%TO.P,U5,11*%
%TO.N,Net-(J1-Pad13)*%
X441960000Y-544830000D03*
%TO.P,U5,10*%
%TO.N,GND*%
X434340000Y-544830000D03*
%TO.P,U5,9*%
%TO.N,Net-(U12-Pad4)*%
X434340000Y-542290000D03*
%TO.P,U5,8*%
%TO.N,Net-(J1-Pad12)*%
X434340000Y-539750000D03*
%TO.P,U5,7*%
%TO.N,Net-(U12-Pad28)*%
X434340000Y-537210000D03*
%TO.P,U5,6*%
%TO.N,Net-(J1-Pad11)*%
X434340000Y-534670000D03*
%TO.P,U5,5*%
%TO.N,Net-(U12-Pad3)*%
X434340000Y-532130000D03*
%TO.P,U5,4*%
%TO.N,Net-(J1-Pad10)*%
X434340000Y-529590000D03*
%TO.P,U5,3*%
%TO.N,Net-(U12-Pad31)*%
X434340000Y-527050000D03*
%TO.P,U5,2*%
%TO.N,Net-(J1-Pad9)*%
X434340000Y-524510000D03*
D11*
%TO.P,U5,1*%
%TO.N,Net-(J7-Pad1)*%
X434340000Y-521970000D03*
%TD*%
D15*
%TO.P,U4,14*%
%TO.N,+5V*%
X445770000Y-491650000D03*
%TO.P,U4,13*%
%TO.N,Net-(U4-Pad13)*%
X443230000Y-491650000D03*
%TO.P,U4,12*%
%TO.N,Net-(U4-Pad12)*%
X440690000Y-491650000D03*
%TO.P,U4,11*%
%TO.N,Net-(U4-Pad11)*%
X438150000Y-491650000D03*
%TO.P,U4,10*%
%TO.N,Net-(U4-Pad10)*%
X435610000Y-491650000D03*
%TO.P,U4,9*%
%TO.N,Net-(U4-Pad9)*%
X433070000Y-491650000D03*
%TO.P,U4,8*%
%TO.N,Net-(U4-Pad8)*%
X430530000Y-491650000D03*
%TO.P,U4,7*%
%TO.N,GND*%
X430530000Y-483710000D03*
%TO.P,U4,6*%
%TO.N,Net-(U4-Pad2)*%
X433070000Y-483710000D03*
%TO.P,U4,5*%
%TO.N,Net-(U11-Pad2)*%
X435610000Y-483710000D03*
%TO.P,U4,4*%
%TO.N,+5V*%
X438150000Y-483710000D03*
%TO.P,U4,3*%
%TO.N,Net-(U4-Pad3)*%
X440690000Y-483710000D03*
%TO.P,U4,2*%
%TO.N,Net-(U4-Pad2)*%
X443230000Y-483710000D03*
D16*
%TO.P,U4,1*%
%TO.N,+5V*%
X445770000Y-483710000D03*
%TD*%
D10*
%TO.P,U3,20*%
%TO.N,+5V*%
X537210000Y-568960000D03*
%TO.P,U3,19*%
%TO.N,Net-(J4-Pad5)*%
X539750000Y-568960000D03*
%TO.P,U3,18*%
%TO.N,Net-(U12-Pad18)*%
X542290000Y-568960000D03*
%TO.P,U3,17*%
%TO.N,Net-(U3-Pad17)*%
X544830000Y-568960000D03*
%TO.P,U3,16*%
%TO.N,Net-(U3-Pad16)*%
X547370000Y-568960000D03*
%TO.P,U3,15*%
%TO.N,Net-(U3-Pad15)*%
X549910000Y-568960000D03*
%TO.P,U3,14*%
%TO.N,Net-(U3-Pad14)*%
X552450000Y-568960000D03*
%TO.P,U3,13*%
%TO.N,Net-(U3-Pad13)*%
X554990000Y-568960000D03*
%TO.P,U3,12*%
%TO.N,Net-(U3-Pad12)*%
X557530000Y-568960000D03*
%TO.P,U3,11*%
%TO.N,Net-(U11-Pad2)*%
X560070000Y-568960000D03*
%TO.P,U3,10*%
%TO.N,GND*%
X560070000Y-576580000D03*
%TO.P,U3,9*%
%TO.N,Net-(J4-Pad4)*%
X557530000Y-576580000D03*
%TO.P,U3,8*%
%TO.N,Net-(U12-Pad17)*%
X554990000Y-576580000D03*
%TO.P,U3,7*%
%TO.N,Net-(U16-Pad3)*%
X552450000Y-576580000D03*
%TO.P,U3,6*%
%TO.N,Net-(R6-Pad1)*%
X549910000Y-576580000D03*
%TO.P,U3,5*%
%TO.N,Net-(R4-Pad1)*%
X547370000Y-576580000D03*
%TO.P,U3,4*%
%TO.N,Net-(U16-Pad5)*%
X544830000Y-576580000D03*
%TO.P,U3,3*%
%TO.N,Net-(U16-Pad7)*%
X542290000Y-576580000D03*
%TO.P,U3,2*%
%TO.N,Net-(R2-Pad1)*%
X539750000Y-576580000D03*
D11*
%TO.P,U3,1*%
%TO.N,+5V*%
X537210000Y-576580000D03*
%TD*%
D10*
%TO.P,U2,20*%
%TO.N,+5V*%
X424180000Y-521970000D03*
%TO.P,U2,19*%
%TO.N,Net-(J7-Pad1)*%
X424180000Y-524510000D03*
%TO.P,U2,18*%
%TO.N,Net-(U12-Pad12)*%
X424180000Y-527050000D03*
%TO.P,U2,17*%
%TO.N,Net-(J1-Pad8)*%
X424180000Y-529590000D03*
%TO.P,U2,16*%
%TO.N,Net-(U12-Pad11)*%
X424180000Y-532130000D03*
%TO.P,U2,15*%
%TO.N,Net-(J1-Pad7)*%
X424180000Y-534670000D03*
%TO.P,U2,14*%
%TO.N,Net-(U12-Pad10)*%
X424180000Y-537210000D03*
%TO.P,U2,13*%
%TO.N,Net-(J1-Pad6)*%
X424180000Y-539750000D03*
%TO.P,U2,12*%
%TO.N,Net-(U12-Pad9)*%
X424180000Y-542290000D03*
%TO.P,U2,11*%
%TO.N,Net-(J1-Pad5)*%
X424180000Y-544830000D03*
%TO.P,U2,10*%
%TO.N,GND*%
X416560000Y-544830000D03*
%TO.P,U2,9*%
%TO.N,Net-(U12-Pad8)*%
X416560000Y-542290000D03*
%TO.P,U2,8*%
%TO.N,Net-(J1-Pad4)*%
X416560000Y-539750000D03*
%TO.P,U2,7*%
%TO.N,Net-(U12-Pad7)*%
X416560000Y-537210000D03*
%TO.P,U2,6*%
%TO.N,Net-(J1-Pad3)*%
X416560000Y-534670000D03*
%TO.P,U2,5*%
%TO.N,Net-(U12-Pad6)*%
X416560000Y-532130000D03*
%TO.P,U2,4*%
%TO.N,Net-(J1-Pad2)*%
X416560000Y-529590000D03*
%TO.P,U2,3*%
%TO.N,Net-(U12-Pad5)*%
X416560000Y-527050000D03*
%TO.P,U2,2*%
%TO.N,Net-(J1-Pad1)*%
X416560000Y-524510000D03*
D11*
%TO.P,U2,1*%
%TO.N,Net-(J7-Pad1)*%
X416560000Y-521970000D03*
%TD*%
D13*
%TO.P,U1,20*%
%TO.N,+5V*%
X440690000Y-511810000D03*
%TO.P,U1,19*%
%TO.N,Net-(U1-Pad19)*%
X438150000Y-511810000D03*
%TO.P,U1,18*%
%TO.N,+5V*%
X435610000Y-511810000D03*
%TO.P,U1,17*%
%TO.N,Net-(U1-Pad17)*%
X433070000Y-511810000D03*
%TO.P,U1,16*%
%TO.N,+5V*%
X430530000Y-511810000D03*
%TO.P,U1,15*%
%TO.N,Net-(U1-Pad15)*%
X427990000Y-511810000D03*
%TO.P,U1,14*%
%TO.N,+5V*%
X425450000Y-511810000D03*
%TO.P,U1,13*%
%TO.N,Net-(U1-Pad13)*%
X422910000Y-511810000D03*
%TO.P,U1,12*%
%TO.N,+5V*%
X420370000Y-511810000D03*
%TO.P,U1,11*%
%TO.N,Net-(U1-Pad11)*%
X417830000Y-511810000D03*
%TO.P,U1,10*%
%TO.N,GND*%
X417830000Y-504190000D03*
%TO.P,U1,9*%
X420370000Y-504190000D03*
%TO.P,U1,8*%
%TO.N,Net-(U1-Pad8)*%
X422910000Y-504190000D03*
%TO.P,U1,7*%
%TO.N,GND*%
X425450000Y-504190000D03*
%TO.P,U1,6*%
%TO.N,Net-(U1-Pad6)*%
X427990000Y-504190000D03*
%TO.P,U1,5*%
%TO.N,+5V*%
X430530000Y-504190000D03*
%TO.P,U1,4*%
%TO.N,Net-(U1-Pad4)*%
X433070000Y-504190000D03*
%TO.P,U1,3*%
%TO.N,GND*%
X435610000Y-504190000D03*
%TO.P,U1,2*%
%TO.N,Net-(U1-Pad2)*%
X438150000Y-504190000D03*
D14*
%TO.P,U1,1*%
%TO.N,Net-(U1-Pad1)*%
X440690000Y-504190000D03*
%TD*%
D17*
%TO.P,R6,2*%
%TO.N,/B*%
X525780000Y-585470000D03*
D18*
%TO.P,R6,1*%
%TO.N,Net-(R6-Pad1)*%
X525780000Y-593090000D03*
%TD*%
D17*
%TO.P,R5,2*%
%TO.N,GND*%
X525780000Y-574040000D03*
D18*
%TO.P,R5,1*%
%TO.N,/B*%
X525780000Y-581660000D03*
%TD*%
D17*
%TO.P,R4,2*%
%TO.N,/G*%
X520700000Y-585470000D03*
D18*
%TO.P,R4,1*%
%TO.N,Net-(R4-Pad1)*%
X520700000Y-593090000D03*
%TD*%
D17*
%TO.P,R3,2*%
%TO.N,GND*%
X520700000Y-574040000D03*
D18*
%TO.P,R3,1*%
%TO.N,/G*%
X520700000Y-581660000D03*
%TD*%
D17*
%TO.P,R2,2*%
%TO.N,Net-(J4-Pad1)*%
X515620000Y-585470000D03*
D18*
%TO.P,R2,1*%
%TO.N,Net-(R2-Pad1)*%
X515620000Y-593090000D03*
%TD*%
D17*
%TO.P,R1,2*%
%TO.N,GND*%
X515620000Y-574040000D03*
D18*
%TO.P,R1,1*%
%TO.N,Net-(J4-Pad1)*%
X515620000Y-581660000D03*
%TD*%
D19*
%TO.P,J7,2*%
%TO.N,Net-(J7-Pad2)*%
X488950000Y-610870000D03*
D20*
%TO.P,J7,1*%
%TO.N,Net-(J7-Pad1)*%
X486410000Y-610870000D03*
%TD*%
D21*
%TO.P,J6,S2*%
%TO.N,Net-(J6-PadS1)*%
X568755000Y-605790000D03*
%TO.P,J6,S1*%
X543765000Y-605790000D03*
D22*
%TO.P,J6,15*%
%TO.N,Net-(J6-Pad15)*%
X551430000Y-608330000D03*
%TO.P,J6,14*%
%TO.N,Net-(J4-Pad5)*%
X553720000Y-608330000D03*
%TO.P,J6,13*%
%TO.N,Net-(J4-Pad4)*%
X556010000Y-608330000D03*
%TO.P,J6,12*%
%TO.N,Net-(J6-Pad12)*%
X558300000Y-608330000D03*
%TO.P,J6,11*%
%TO.N,Net-(J6-Pad11)*%
X560590000Y-608330000D03*
%TO.P,J6,10*%
%TO.N,GND*%
X552575000Y-605790000D03*
%TO.P,J6,9*%
%TO.N,Net-(J6-Pad9)*%
X554865000Y-605790000D03*
%TO.P,J6,8*%
%TO.N,GND*%
X557155000Y-605790000D03*
%TO.P,J6,7*%
X559445000Y-605790000D03*
%TO.P,J6,6*%
X561735000Y-605790000D03*
%TO.P,J6,5*%
X551430000Y-603250000D03*
%TO.P,J6,4*%
%TO.N,Net-(J6-Pad4)*%
X553720000Y-603250000D03*
%TO.P,J6,3*%
%TO.N,/B*%
X556010000Y-603250000D03*
%TO.P,J6,2*%
%TO.N,/G*%
X558300000Y-603250000D03*
D23*
%TO.P,J6,1*%
%TO.N,Net-(J4-Pad1)*%
X560590000Y-603250000D03*
%TD*%
D19*
%TO.P,J5,5*%
%TO.N,GND*%
X506730000Y-610870000D03*
%TO.P,J5,4*%
X504190000Y-610870000D03*
%TO.P,J5,3*%
X501650000Y-610870000D03*
%TO.P,J5,2*%
%TO.N,+5V*%
X499110000Y-610870000D03*
D20*
%TO.P,J5,1*%
X496570000Y-610870000D03*
%TD*%
D19*
%TO.P,J4,5*%
%TO.N,Net-(J4-Pad5)*%
X528320000Y-610870000D03*
%TO.P,J4,4*%
%TO.N,Net-(J4-Pad4)*%
X525780000Y-610870000D03*
%TO.P,J4,3*%
%TO.N,/B*%
X523240000Y-610870000D03*
%TO.P,J4,2*%
%TO.N,/G*%
X520700000Y-610870000D03*
D20*
%TO.P,J4,1*%
%TO.N,Net-(J4-Pad1)*%
X518160000Y-610870000D03*
%TD*%
%TO.P,J3,1*%
%TO.N,GND*%
X514350000Y-610870000D03*
%TD*%
D19*
%TO.P,J2,5*%
%TO.N,Net-(J2-Pad5)*%
X478790000Y-610870000D03*
%TO.P,J2,4*%
%TO.N,Net-(J2-Pad4)*%
X476250000Y-610870000D03*
%TO.P,J2,3*%
%TO.N,Net-(J2-Pad3)*%
X473710000Y-610870000D03*
%TO.P,J2,2*%
%TO.N,Net-(J2-Pad2)*%
X471170000Y-610870000D03*
D20*
%TO.P,J2,1*%
%TO.N,Net-(J2-Pad1)*%
X468630000Y-610870000D03*
%TD*%
D19*
%TO.P,J1,18*%
%TO.N,Net-(J1-Pad18)*%
X461010000Y-610870000D03*
%TO.P,J1,17*%
%TO.N,Net-(J1-Pad17)*%
X458470000Y-610870000D03*
%TO.P,J1,16*%
%TO.N,Net-(J1-Pad16)*%
X455930000Y-610870000D03*
%TO.P,J1,15*%
%TO.N,Net-(J1-Pad15)*%
X453390000Y-610870000D03*
%TO.P,J1,14*%
%TO.N,Net-(J1-Pad14)*%
X450850000Y-610870000D03*
%TO.P,J1,13*%
%TO.N,Net-(J1-Pad13)*%
X448310000Y-610870000D03*
%TO.P,J1,12*%
%TO.N,Net-(J1-Pad12)*%
X445770000Y-610870000D03*
%TO.P,J1,11*%
%TO.N,Net-(J1-Pad11)*%
X443230000Y-610870000D03*
%TO.P,J1,10*%
%TO.N,Net-(J1-Pad10)*%
X440690000Y-610870000D03*
%TO.P,J1,9*%
%TO.N,Net-(J1-Pad9)*%
X438150000Y-610870000D03*
%TO.P,J1,8*%
%TO.N,Net-(J1-Pad8)*%
X435610000Y-610870000D03*
%TO.P,J1,7*%
%TO.N,Net-(J1-Pad7)*%
X433070000Y-610870000D03*
%TO.P,J1,6*%
%TO.N,Net-(J1-Pad6)*%
X430530000Y-610870000D03*
%TO.P,J1,5*%
%TO.N,Net-(J1-Pad5)*%
X427990000Y-610870000D03*
%TO.P,J1,4*%
%TO.N,Net-(J1-Pad4)*%
X425450000Y-610870000D03*
%TO.P,J1,3*%
%TO.N,Net-(J1-Pad3)*%
X422910000Y-610870000D03*
%TO.P,J1,2*%
%TO.N,Net-(J1-Pad2)*%
X420370000Y-610870000D03*
D20*
%TO.P,J1,1*%
%TO.N,Net-(J1-Pad1)*%
X417830000Y-610870000D03*
%TD*%
D24*
%TO.P,C4,2*%
%TO.N,GND*%
X573920000Y-586740000D03*
D25*
%TO.P,C4,1*%
%TO.N,+5V*%
X566420000Y-586740000D03*
%TD*%
D24*
%TO.P,C3,2*%
%TO.N,GND*%
X408820000Y-483870000D03*
D25*
%TO.P,C3,1*%
%TO.N,+5V*%
X401320000Y-483870000D03*
%TD*%
D24*
%TO.P,C2,2*%
%TO.N,GND*%
X573920000Y-483870000D03*
D25*
%TO.P,C2,1*%
%TO.N,+5V*%
X566420000Y-483870000D03*
%TD*%
D24*
%TO.P,C1,2*%
%TO.N,GND*%
X408820000Y-609600000D03*
D25*
%TO.P,C1,1*%
%TO.N,+5V*%
X401320000Y-609600000D03*
%TD*%
D26*
%TO.N,Net-(J4-Pad5)*%
X549910000Y-608330000D03*
%TO.N,Net-(J7-Pad1)*%
X412750000Y-515620000D03*
X453390000Y-519430000D03*
X454660000Y-521970000D03*
%TO.N,Net-(U1-Pad19)*%
X486410000Y-511810000D03*
%TO.N,Net-(U1-Pad17)*%
X534670000Y-481330000D03*
%TO.N,Net-(U1-Pad8)*%
X511810000Y-499110000D03*
X514350000Y-501650000D03*
X449580000Y-496570000D03*
%TO.N,Net-(U1-Pad6)*%
X511810000Y-500380000D03*
X513080000Y-502920000D03*
X516890000Y-502920000D03*
X519430000Y-502920000D03*
%TO.N,Net-(U1-Pad4)*%
X453390000Y-501650000D03*
X481330000Y-487680000D03*
%TO.N,Net-(U1-Pad2)*%
X477520000Y-486410000D03*
X432705304Y-505383213D03*
%TO.N,Net-(U12-Pad12)*%
X412750000Y-530860000D03*
X406400000Y-525780000D03*
X504190000Y-520700000D03*
%TO.N,Net-(U12-Pad11)*%
X421640000Y-537210000D03*
X406400000Y-546100000D03*
X506730000Y-521970000D03*
%TO.N,Net-(U12-Pad10)*%
X407670000Y-527050000D03*
X507774231Y-523014231D03*
%TO.N,Net-(U12-Pad9)*%
X474980000Y-541188203D03*
%TO.N,Net-(U12-Pad8)*%
X415290000Y-558800000D03*
X415290000Y-563880000D03*
X494030000Y-575310000D03*
X488950000Y-551180000D03*
X488950000Y-548640000D03*
%TO.N,Net-(U12-Pad7)*%
X414020000Y-537210000D03*
X414020000Y-554990000D03*
X421640000Y-579120000D03*
X513080000Y-574040000D03*
X538480000Y-537210000D03*
%TO.N,Net-(U12-Pad6)*%
X506730000Y-576580000D03*
X519430000Y-549910000D03*
%TO.N,Net-(U12-Pad5)*%
X474980000Y-525780000D03*
%TO.N,Net-(U12-Pad18)*%
X455930000Y-537210000D03*
X455930000Y-568960000D03*
%TO.N,Net-(U12-Pad27)*%
X518160000Y-537210000D03*
%TO.N,Net-(U12-Pad26)*%
X506730000Y-549910000D03*
X504190000Y-549910000D03*
X474980000Y-529590000D03*
X496570000Y-548640000D03*
X499110000Y-552450000D03*
%TO.N,Net-(U12-Pad23)*%
X483870000Y-535940000D03*
X483870000Y-546100000D03*
X490220000Y-551180000D03*
%TO.N,Net-(U12-Pad25)*%
X513080000Y-548640000D03*
X502920000Y-548640000D03*
X420370000Y-560070000D03*
X421640000Y-589280000D03*
X495480001Y-571319999D03*
X495300000Y-558800000D03*
%TO.N,Net-(U12-Pad4)*%
X525780000Y-539750000D03*
%TO.N,Net-(U12-Pad28)*%
X436880000Y-537210000D03*
X436880000Y-551180000D03*
X431649847Y-558558437D03*
X431800000Y-572770000D03*
X501650000Y-572045000D03*
%TO.N,Net-(U12-Pad3)*%
X511400769Y-536800769D03*
%TO.N,Net-(U12-Pad31)*%
X509270000Y-572770000D03*
X431800000Y-568960000D03*
X510540000Y-574040000D03*
%TO.N,Net-(U10-Pad13)*%
X474980000Y-513080000D03*
X477520000Y-513080000D03*
%TO.N,Net-(U11-Pad14)*%
X518160000Y-500380000D03*
X468630000Y-516890000D03*
X511810000Y-527050000D03*
%TO.N,Net-(U11-Pad13)*%
X519430000Y-500380000D03*
X515620000Y-494030000D03*
X483870000Y-496570000D03*
%TO.N,Net-(U11-Pad12)*%
X524510000Y-501650000D03*
X519430000Y-495300000D03*
X485140000Y-496570000D03*
%TO.N,Net-(U11-Pad11)*%
X525780000Y-500380000D03*
X521970000Y-496570000D03*
X477520000Y-495300000D03*
%TO.N,Net-(U14-Pad14)*%
X552450000Y-497840000D03*
X552450000Y-502920000D03*
X445770000Y-511810000D03*
X536243963Y-493305000D03*
%TO.N,Net-(U14-Pad13)*%
X556455858Y-502724142D03*
X441960000Y-502492299D03*
X425450000Y-499110000D03*
X452120000Y-488950000D03*
X463550000Y-488950000D03*
%TO.N,Net-(U14-Pad12)*%
X558800000Y-505460000D03*
X480060000Y-497659999D03*
X474980000Y-501650000D03*
%TO.N,Net-(U14-Pad11)*%
X484589799Y-494505105D03*
%TO.N,Net-(U10-Pad3)*%
X466090000Y-481330000D03*
%TO.N,Net-(U12-Pad2)*%
X495300000Y-528320000D03*
X514350000Y-535940000D03*
X521970000Y-529590000D03*
%TO.N,Net-(U12-Pad13)*%
X466090000Y-532130000D03*
X482600000Y-543560000D03*
X487680000Y-551180000D03*
%TO.N,Net-(U12-Pad14)*%
X471170000Y-537210000D03*
X533400000Y-549910000D03*
X542290000Y-549910000D03*
%TO.N,Net-(U12-Pad15)*%
X477520000Y-542290000D03*
X533400000Y-552450000D03*
X537210000Y-548640000D03*
%TO.N,Net-(U12-Pad30)*%
X499110000Y-549910000D03*
X508000000Y-552450000D03*
X521970000Y-552450000D03*
%TO.N,Net-(U12-Pad24)*%
X527050000Y-513080000D03*
X552450000Y-565150000D03*
%TO.N,Net-(U13-Pad13)*%
X572770000Y-542290000D03*
X525780000Y-497840000D03*
X529590000Y-495300000D03*
X542290000Y-494030000D03*
X544830000Y-494030000D03*
%TO.N,Net-(U13-Pad11)*%
X529590000Y-496570000D03*
X527050000Y-499110000D03*
%TD*%
D27*
%TO.N,GND*%
X424124999Y-487184999D02*
X412134999Y-487184999D01*
X412134999Y-487184999D02*
X408820000Y-483870000D01*
X425450000Y-488510000D02*
X424124999Y-487184999D01*
X557155000Y-605790000D02*
X559445000Y-605790000D01*
X559445000Y-605790000D02*
X561735000Y-605790000D01*
%TO.N,+5V*%
X402645001Y-482544999D02*
X401320000Y-483870000D01*
X417454999Y-482544999D02*
X402645001Y-482544999D01*
X419220000Y-484310000D02*
X417454999Y-482544999D01*
X420370000Y-484310000D02*
X419220000Y-484310000D01*
%TO.N,Net-(J1-Pad18)*%
X458576799Y-530753201D02*
X459740000Y-529590000D01*
X458576799Y-593997797D02*
X458576799Y-530753201D01*
X474885001Y-610305999D02*
X458576799Y-593997797D01*
X474885001Y-611434001D02*
X474885001Y-610305999D01*
X474274001Y-612045001D02*
X474885001Y-611434001D01*
X462185001Y-612045001D02*
X474274001Y-612045001D01*
X461010000Y-610870000D02*
X462185001Y-612045001D01*
%TO.N,Net-(J1-Pad17)*%
X452120000Y-524510000D02*
X444500000Y-532130000D01*
X444500000Y-532130000D02*
X444500000Y-552450000D01*
X435610000Y-561340000D02*
X435610000Y-592453590D01*
X444500000Y-552450000D02*
X435610000Y-561340000D01*
X450586390Y-607429980D02*
X455029980Y-607429980D01*
X455029980Y-607429980D02*
X458470000Y-610870000D01*
X435610000Y-592453590D02*
X450586390Y-607429980D01*
%TO.N,Net-(J1-Pad16)*%
X444023219Y-531653219D02*
X444023219Y-551656781D01*
X441960000Y-529590000D02*
X444023219Y-531653219D01*
X444023219Y-551656781D02*
X434790010Y-560889990D01*
X434790010Y-560889990D02*
X434790010Y-592270010D01*
X452939990Y-607879990D02*
X455930000Y-610870000D01*
X450399990Y-607879990D02*
X452939990Y-607879990D01*
X434790010Y-592270010D02*
X450399990Y-607879990D01*
%TO.N,Net-(J1-Pad15)*%
X443573210Y-536283210D02*
X443573210Y-550836790D01*
X441960000Y-534670000D02*
X443573210Y-536283210D01*
X443573210Y-550836790D02*
X434340000Y-560070000D01*
X434340000Y-560070000D02*
X434340000Y-593090000D01*
X450850000Y-608330000D02*
X453390000Y-610870000D01*
X449580000Y-608330000D02*
X450850000Y-608330000D01*
X434340000Y-593090000D02*
X449580000Y-608330000D01*
%TO.N,Net-(J1-Pad14)*%
X443123201Y-544271663D02*
X443123201Y-550016799D01*
X442518337Y-543666799D02*
X443123201Y-544271663D01*
X441401663Y-543666799D02*
X442518337Y-543666799D01*
X440796799Y-543061935D02*
X441401663Y-543666799D01*
X441960000Y-539750000D02*
X440796799Y-540913201D01*
X440796799Y-540913201D02*
X440796799Y-543061935D01*
X443123201Y-550016799D02*
X433520010Y-559619990D01*
X433520010Y-593540010D02*
X450850000Y-610870000D01*
X433520010Y-559619990D02*
X433520010Y-593540010D01*
%TO.N,Net-(J1-Pad13)*%
X441960000Y-544830000D02*
X441960000Y-549910000D01*
X441960000Y-549910000D02*
X433070000Y-558800000D01*
X433070000Y-595630000D02*
X448310000Y-610870000D01*
X433070000Y-558800000D02*
X433070000Y-595630000D01*
%TO.N,Net-(J1-Pad12)*%
X429710010Y-593540010D02*
X445770000Y-609600000D01*
X429710010Y-541839990D02*
X429710010Y-593540010D01*
X434340000Y-539750000D02*
X433070000Y-541020000D01*
X445770000Y-609600000D02*
X445770000Y-610870000D01*
X430530000Y-541020000D02*
X429710010Y-541839990D01*
X433070000Y-541020000D02*
X430530000Y-541020000D01*
%TO.N,Net-(J1-Pad11)*%
X434340000Y-534670000D02*
X430530000Y-534670000D01*
X430530000Y-534670000D02*
X429260000Y-535940000D01*
X443230000Y-608960770D02*
X443230000Y-610870000D01*
X429260000Y-594990770D02*
X443230000Y-608960770D01*
X429260000Y-535940000D02*
X429260000Y-594990770D01*
%TO.N,Net-(J1-Pad10)*%
X434340000Y-529590000D02*
X429896410Y-529590000D01*
X429896410Y-529590000D02*
X428440010Y-531046400D01*
X440690000Y-607057180D02*
X440690000Y-610870000D01*
X428440010Y-594807190D02*
X440690000Y-607057180D01*
X428440010Y-531046400D02*
X428440010Y-594807190D01*
%TO.N,Net-(J1-Pad9)*%
X434340000Y-524510000D02*
X427990000Y-530860000D01*
X438150000Y-605153590D02*
X438150000Y-610870000D01*
X427990000Y-594993590D02*
X438150000Y-605153590D01*
X427990000Y-530860000D02*
X427990000Y-594993590D01*
%TO.N,Net-(J1-Pad8)*%
X424180000Y-529590000D02*
X427356410Y-532766410D01*
X427356410Y-532766410D02*
X427356410Y-594996410D01*
X435610000Y-603250000D02*
X435610000Y-610870000D01*
X427356410Y-594996410D02*
X435610000Y-603250000D01*
%TO.N,Net-(J1-Pad7)*%
X424180000Y-534670000D02*
X426720000Y-537210000D01*
X426720000Y-537210000D02*
X426720000Y-595630000D01*
X429260000Y-599437180D02*
X433070000Y-603247180D01*
X429260000Y-598170000D02*
X429260000Y-599437180D01*
X433070000Y-603247180D02*
X433070000Y-610870000D01*
X426720000Y-595630000D02*
X429260000Y-598170000D01*
%TO.N,Net-(J1-Pad6)*%
X425768205Y-596581795D02*
X430530000Y-601343590D01*
X430530000Y-601343590D02*
X430530000Y-610870000D01*
X424180000Y-539750000D02*
X425768205Y-541338205D01*
X425768205Y-541338205D02*
X425768205Y-596581795D01*
%TO.N,Net-(J1-Pad5)*%
X424180000Y-544830000D02*
X424180000Y-596900000D01*
X424180000Y-596900000D02*
X425450000Y-598170000D01*
X425450000Y-608330000D02*
X427990000Y-610870000D01*
X425450000Y-598170000D02*
X425450000Y-608330000D01*
%TO.N,Net-(J1-Pad4)*%
X416560000Y-539750000D02*
X408940000Y-539750000D01*
X408940000Y-539750000D02*
X403860000Y-544830000D01*
X403860000Y-544830000D02*
X403860000Y-591820000D01*
X406400000Y-591820000D02*
X425450000Y-610870000D01*
X403860000Y-591820000D02*
X406400000Y-591820000D01*
%TO.N,Net-(J1-Pad3)*%
X416560000Y-534670000D02*
X412750000Y-534670000D01*
X412750000Y-534670000D02*
X403040010Y-544379990D01*
X403040010Y-544379990D02*
X403040010Y-592903600D01*
X422109002Y-610870000D02*
X422910000Y-610870000D01*
X404142602Y-592903600D02*
X422109002Y-610870000D01*
X403040010Y-592903600D02*
X404142602Y-592903600D01*
%TO.N,Net-(J1-Pad2)*%
X416560000Y-529590000D02*
X402590000Y-543560000D01*
X402590000Y-593090000D02*
X420370000Y-610870000D01*
X402590000Y-543560000D02*
X402590000Y-593090000D01*
%TO.N,Net-(J1-Pad1)*%
X416560000Y-524510000D02*
X402590000Y-524510000D01*
X402590000Y-524510000D02*
X400050000Y-527050000D01*
X400050000Y-593090000D02*
X417830000Y-610870000D01*
X400050000Y-527050000D02*
X400050000Y-593090000D01*
%TO.N,Net-(J2-Pad5)*%
X473816799Y-605896799D02*
X478790000Y-610870000D01*
X473816799Y-553826799D02*
X473816799Y-605896799D01*
X459740000Y-539750000D02*
X473816799Y-553826799D01*
%TO.N,Net-(J2-Pad4)*%
X459740000Y-594360000D02*
X476250000Y-610870000D01*
X459740000Y-544830000D02*
X459740000Y-594360000D01*
%TO.N,Net-(J2-Pad3)*%
X452120000Y-539750000D02*
X448310000Y-543560000D01*
X446220010Y-544379990D02*
X446220010Y-564699990D01*
X448310000Y-543560000D02*
X447040000Y-543560000D01*
X447040000Y-543560000D02*
X446220010Y-544379990D01*
X446220010Y-564699990D02*
X439420000Y-571500000D01*
X439420000Y-576580000D02*
X473710000Y-610870000D01*
X439420000Y-571500000D02*
X439420000Y-576580000D01*
%TO.N,Net-(J2-Pad2)*%
X452120000Y-534670000D02*
X447040000Y-534670000D01*
X447040000Y-534670000D02*
X445770000Y-535940000D01*
X445770000Y-535940000D02*
X445770000Y-553720000D01*
X445770000Y-553720000D02*
X436880000Y-562610000D01*
X436880000Y-576580000D02*
X471170000Y-610870000D01*
X436880000Y-562610000D02*
X436880000Y-576580000D01*
%TO.N,Net-(J2-Pad1)*%
X448310000Y-529590000D02*
X452120000Y-529590000D01*
X464739970Y-606979970D02*
X450772790Y-606979970D01*
X468630000Y-610870000D02*
X464739970Y-606979970D01*
X450772790Y-606979970D02*
X436060010Y-592267190D01*
X444950010Y-532949990D02*
X448310000Y-529590000D01*
X436060010Y-592267190D02*
X436060010Y-562159990D01*
X436060010Y-562159990D02*
X444950010Y-553269990D01*
X444950010Y-553269990D02*
X444950010Y-532949990D01*
%TO.N,Net-(J4-Pad5)*%
X528320000Y-610870000D02*
X552450000Y-610870000D01*
X553720000Y-609600000D02*
X553720000Y-608330000D01*
X552450000Y-610870000D02*
X553720000Y-609600000D01*
X552502499Y-607112499D02*
X553720000Y-608330000D01*
X550561816Y-607112499D02*
X552502499Y-607112499D01*
X549910000Y-607764315D02*
X550561816Y-607112499D01*
X549910000Y-608330000D02*
X549910000Y-607764315D01*
%TO.N,Net-(J4-Pad4)*%
X552294999Y-612045001D02*
X556010000Y-608330000D01*
X527755999Y-612045001D02*
X552294999Y-612045001D01*
X526580998Y-610870000D02*
X527755999Y-612045001D01*
X525780000Y-610870000D02*
X526580998Y-610870000D01*
%TO.N,/B*%
X552014401Y-604467501D02*
X554792499Y-604467501D01*
X548333901Y-608148001D02*
X552014401Y-604467501D01*
X554792499Y-604467501D02*
X556010000Y-603250000D01*
X525961999Y-608148001D02*
X548333901Y-608148001D01*
X523240000Y-610870000D02*
X525961999Y-608148001D01*
X523240000Y-610870000D02*
X529590000Y-604520000D01*
X529590000Y-589280000D02*
X525780000Y-585470000D01*
X529590000Y-604520000D02*
X529590000Y-589280000D01*
X525780000Y-585470000D02*
X525780000Y-581660000D01*
%TO.N,/G*%
X559517501Y-602032499D02*
X558300000Y-603250000D01*
X561742501Y-602032499D02*
X559517501Y-602032499D01*
X562952501Y-603242499D02*
X561742501Y-602032499D01*
X562952501Y-607769401D02*
X562952501Y-603242499D01*
X558226891Y-612495011D02*
X562952501Y-607769401D01*
X522325011Y-612495011D02*
X558226891Y-612495011D01*
X520700000Y-610870000D02*
X522325011Y-612495011D01*
X521825001Y-586595001D02*
X520700000Y-585470000D01*
X521825001Y-609744999D02*
X521825001Y-586595001D01*
X520700000Y-610870000D02*
X521825001Y-609744999D01*
%TO.N,Net-(J4-Pad1)*%
X515620000Y-591424998D02*
X515620000Y-585470000D01*
X518160000Y-593964998D02*
X515620000Y-591424998D01*
X518160000Y-610870000D02*
X518160000Y-593964998D01*
X515620000Y-585470000D02*
X515620000Y-581660000D01*
%TO.N,Net-(J6-PadS1)*%
X543765000Y-605790000D02*
X543765000Y-599645000D01*
X543765000Y-599645000D02*
X545240000Y-598170000D01*
X545240000Y-598170000D02*
X567690000Y-598170000D01*
X568755000Y-599235000D02*
X568755000Y-605790000D01*
X567690000Y-598170000D02*
X568755000Y-599235000D01*
%TO.N,Net-(J7-Pad2)*%
X487680000Y-609600000D02*
X488950000Y-610870000D01*
X487680000Y-554990000D02*
X487680000Y-609600000D01*
%TO.N,Net-(J7-Pad1)*%
X421640000Y-521970000D02*
X424180000Y-524510000D01*
X416560000Y-521970000D02*
X421640000Y-521970000D01*
X431800000Y-524510000D02*
X434340000Y-521970000D01*
X424180000Y-524510000D02*
X431800000Y-524510000D01*
X439420000Y-521970000D02*
X441960000Y-524510000D01*
X434340000Y-521970000D02*
X439420000Y-521970000D01*
X449580000Y-524510000D02*
X452120000Y-521970000D01*
X441960000Y-524510000D02*
X449580000Y-524510000D01*
X457200000Y-521970000D02*
X459740000Y-524510000D01*
X452120000Y-521970000D02*
X457200000Y-521970000D01*
X487585001Y-612045001D02*
X486410000Y-610870000D01*
X489514001Y-612045001D02*
X487585001Y-612045001D01*
X505460000Y-596099002D02*
X489514001Y-612045001D01*
X505460000Y-554990000D02*
X505460000Y-596099002D01*
X492760000Y-506570000D02*
X495140000Y-504190000D01*
X492760000Y-523240000D02*
X492760000Y-506570000D01*
X488950000Y-527050000D02*
X492760000Y-523240000D01*
X459740000Y-524510000D02*
X462280000Y-527050000D01*
X462280000Y-527050000D02*
X488950000Y-527050000D01*
X412750000Y-515620000D02*
X416560000Y-519430000D01*
X416560000Y-519430000D02*
X453390000Y-519430000D01*
%TO.N,Net-(R2-Pad1)*%
X514494999Y-591964999D02*
X515620000Y-593090000D01*
X514494999Y-581119999D02*
X514494999Y-591964999D01*
X520198199Y-575416799D02*
X514494999Y-581119999D01*
X538586799Y-575416799D02*
X520198199Y-575416799D01*
X539750000Y-576580000D02*
X538586799Y-575416799D01*
%TO.N,Net-(R4-Pad1)*%
X519574999Y-591964999D02*
X520700000Y-593090000D01*
X519574999Y-584929999D02*
X519574999Y-591964999D01*
X523969999Y-580534999D02*
X519574999Y-584929999D01*
X543415001Y-580534999D02*
X523969999Y-580534999D01*
X547370000Y-576580000D02*
X543415001Y-580534999D01*
%TO.N,Net-(U1-Pad19)*%
X486410000Y-511810000D02*
X488950000Y-509270000D01*
X488950000Y-509270000D02*
X489110000Y-509270000D01*
%TO.N,Net-(U1-Pad17)*%
X434042701Y-510837299D02*
X433070000Y-511810000D01*
X440690000Y-510837299D02*
X434042701Y-510837299D01*
X460037299Y-491490000D02*
X440690000Y-510837299D01*
X460037299Y-491023103D02*
X460037299Y-491490000D01*
X460543103Y-490517299D02*
X460037299Y-491023103D01*
X462577299Y-490517299D02*
X460543103Y-490517299D01*
X463550000Y-491490000D02*
X462577299Y-490517299D01*
X463550000Y-491490000D02*
X467657299Y-487382701D01*
X469289598Y-481330000D02*
X534670000Y-481330000D01*
X467657299Y-482962299D02*
X469289598Y-481330000D01*
X467657299Y-487382701D02*
X467657299Y-482962299D01*
%TO.N,Net-(U1-Pad15)*%
X428962701Y-512782701D02*
X427990000Y-511810000D01*
X441156897Y-512782701D02*
X428962701Y-512782701D01*
X441662701Y-512276897D02*
X441156897Y-512782701D01*
X441662701Y-510837299D02*
X441662701Y-512276897D01*
X461010000Y-491490000D02*
X441662701Y-510837299D01*
%TO.N,Net-(U1-Pad13)*%
X419397299Y-503723103D02*
X419397299Y-508297299D01*
X419397299Y-508297299D02*
X422910000Y-511810000D01*
X419903103Y-503217299D02*
X419397299Y-503723103D01*
X446742701Y-503217299D02*
X419903103Y-503217299D01*
X458470000Y-491490000D02*
X446742701Y-503217299D01*
%TO.N,Net-(U1-Pad11)*%
X416857299Y-510837299D02*
X417830000Y-511810000D01*
X426038846Y-490517299D02*
X416857299Y-499698846D01*
X454957299Y-490517299D02*
X426038846Y-490517299D01*
X416857299Y-499698846D02*
X416857299Y-510837299D01*
X455930000Y-491490000D02*
X454957299Y-490517299D01*
%TO.N,Net-(U1-Pad8)*%
X485140000Y-491490000D02*
X491490000Y-497840000D01*
X491490000Y-497840000D02*
X510540000Y-497840000D01*
X510540000Y-497840000D02*
X511810000Y-499110000D01*
X514350000Y-501650000D02*
X518160000Y-501650000D01*
X518160000Y-502920000D02*
X523240000Y-508000000D01*
X518160000Y-501650000D02*
X518160000Y-502920000D01*
X425913992Y-496570000D02*
X449580000Y-496570000D01*
X418947290Y-503536702D02*
X425913992Y-496570000D01*
X418947289Y-508483699D02*
X418947290Y-503536702D01*
X421937299Y-511473709D02*
X418947289Y-508483699D01*
X421937299Y-512276897D02*
X421937299Y-511473709D01*
X423882701Y-505162701D02*
X423882701Y-512276897D01*
X422910000Y-504190000D02*
X423882701Y-505162701D01*
X423882701Y-512276897D02*
X423376897Y-512782701D01*
X423376897Y-512782701D02*
X422443103Y-512782701D01*
X422443103Y-512782701D02*
X421937299Y-512276897D01*
%TO.N,Net-(U1-Pad6)*%
X482600000Y-491490000D02*
X490220000Y-499110000D01*
X490220000Y-499110000D02*
X510540000Y-499110000D01*
X510540000Y-499110000D02*
X511810000Y-500380000D01*
X513080000Y-502920000D02*
X516890000Y-502920000D01*
X525075685Y-508000000D02*
X525780000Y-508000000D01*
X519995685Y-502920000D02*
X525075685Y-508000000D01*
X519430000Y-502920000D02*
X519995685Y-502920000D01*
X468163103Y-503217299D02*
X470872701Y-503217299D01*
X467657299Y-504062299D02*
X467657299Y-503723103D01*
X466106887Y-505612711D02*
X467657299Y-504062299D01*
X470872701Y-503217299D02*
X482600000Y-491490000D01*
X457683699Y-505612711D02*
X466106887Y-505612711D01*
X451822701Y-511473709D02*
X457683699Y-505612711D01*
X451822701Y-512276897D02*
X451822701Y-511473709D01*
X450416877Y-513682721D02*
X451822701Y-512276897D01*
X467657299Y-503723103D02*
X468163103Y-503217299D01*
X427786713Y-513682721D02*
X450416877Y-513682721D01*
X426567290Y-512463298D02*
X427786713Y-513682721D01*
X426567290Y-505612710D02*
X426567290Y-512463298D01*
X427990000Y-504190000D02*
X426567290Y-505612710D01*
%TO.N,Net-(U1-Pad4)*%
X480060000Y-491490000D02*
X469900000Y-501650000D01*
X469900000Y-501650000D02*
X453390000Y-501650000D01*
X481330000Y-487680000D02*
X480060000Y-488950000D01*
X480060000Y-488950000D02*
X480060000Y-491490000D01*
%TO.N,Net-(U1-Pad2)*%
X433197701Y-505162701D02*
X437177299Y-505162701D01*
X427017299Y-511343103D02*
X433197701Y-505162701D01*
X427017299Y-512276897D02*
X427017299Y-511343103D01*
X427973113Y-513232711D02*
X427017299Y-512276897D01*
X441343297Y-513232711D02*
X427973113Y-513232711D01*
X442112710Y-512463298D02*
X441343297Y-513232711D01*
X461137701Y-492462701D02*
X442112711Y-511487691D01*
X437177299Y-505162701D02*
X438150000Y-504190000D01*
X476547299Y-492462701D02*
X461137701Y-492462701D01*
X442112711Y-511487691D02*
X442112710Y-512463298D01*
X477520000Y-491490000D02*
X476547299Y-492462701D01*
X433197701Y-505162701D02*
X432925816Y-505162701D01*
X432925816Y-505162701D02*
X432705304Y-505383213D01*
%TO.N,Net-(U12-Pad12)*%
X504549999Y-520340001D02*
X485140000Y-539750000D01*
X505819999Y-520340001D02*
X504549999Y-520340001D01*
X510540000Y-515620000D02*
X505819999Y-520340001D01*
X410406998Y-530860000D02*
X406400000Y-526853002D01*
X412750000Y-530860000D02*
X410406998Y-530860000D01*
X406400000Y-526853002D02*
X406400000Y-525780000D01*
%TO.N,Net-(U12-Pad11)*%
X490113201Y-538586799D02*
X513080000Y-515620000D01*
X488843201Y-538586799D02*
X490113201Y-538586799D01*
X487680000Y-539750000D02*
X488843201Y-538586799D01*
X421640000Y-541471538D02*
X417011538Y-546100000D01*
X421640000Y-537210000D02*
X421640000Y-541471538D01*
X417011538Y-546100000D02*
X406400000Y-546100000D01*
%TO.N,Net-(U12-Pad10)*%
X491038462Y-539750000D02*
X490220000Y-539750000D01*
X515620000Y-515620000D02*
X515168462Y-515620000D01*
X416904739Y-528213201D02*
X408833201Y-528213201D01*
X417723201Y-529031663D02*
X416904739Y-528213201D01*
X424180000Y-537210000D02*
X417723201Y-530753201D01*
X417723201Y-530753201D02*
X417723201Y-529031663D01*
X408833201Y-528213201D02*
X407670000Y-527050000D01*
X515168462Y-515620000D02*
X507774231Y-523014231D01*
X507774231Y-523014231D02*
X491038462Y-539750000D01*
%TO.N,Net-(U12-Pad9)*%
X493923201Y-538586799D02*
X495193201Y-538586799D01*
X495193201Y-538586799D02*
X518160000Y-515620000D01*
X492760000Y-539750000D02*
X493923201Y-538586799D01*
X474980000Y-541188203D02*
X482431797Y-548640000D01*
X483870000Y-548640000D02*
X492760000Y-539750000D01*
X482431797Y-548640000D02*
X483870000Y-548640000D01*
%TO.N,Net-(U12-Pad8)*%
X520248462Y-515620000D02*
X496118462Y-539750000D01*
X496118462Y-539750000D02*
X495300000Y-539750000D01*
X520700000Y-515620000D02*
X520248462Y-515620000D01*
X415290000Y-558800000D02*
X415290000Y-563880000D01*
X494030000Y-575310000D02*
X488950000Y-570230000D01*
X488950000Y-570230000D02*
X488950000Y-551180000D01*
X488950000Y-546100000D02*
X495300000Y-539750000D01*
X488950000Y-548640000D02*
X488950000Y-546100000D01*
%TO.N,Net-(U12-Pad7)*%
X520806799Y-516783201D02*
X497840000Y-539750000D01*
X522076799Y-516783201D02*
X520806799Y-516783201D01*
X523240000Y-515620000D02*
X522076799Y-516783201D01*
X416560000Y-537210000D02*
X414020000Y-537210000D01*
X414020000Y-554990000D02*
X414020000Y-571500000D01*
X414020000Y-571500000D02*
X421640000Y-579120000D01*
X535636203Y-551286799D02*
X533748001Y-553175001D01*
X527869990Y-559250010D02*
X539936400Y-559250010D01*
X533748001Y-553175001D02*
X533051999Y-553175001D01*
X513080000Y-574040000D02*
X527869990Y-559250010D01*
X540913201Y-551891663D02*
X540308337Y-551286799D01*
X532674999Y-552798001D02*
X532674999Y-544285001D01*
X539936400Y-559250010D02*
X540913201Y-558273209D01*
X540913201Y-558273209D02*
X540913201Y-551891663D01*
X533051999Y-553175001D02*
X532674999Y-552798001D01*
X540308337Y-551286799D02*
X535636203Y-551286799D01*
X532674999Y-544285001D02*
X538480000Y-538480000D01*
X538480000Y-538480000D02*
X538480000Y-537210000D01*
%TO.N,Net-(U12-Pad6)*%
X502813201Y-538586799D02*
X525780000Y-515620000D01*
X501543201Y-538586799D02*
X502813201Y-538586799D01*
X500380000Y-539750000D02*
X501543201Y-538586799D01*
X507746988Y-551630010D02*
X517709990Y-551630010D01*
X506730000Y-576580000D02*
X506730000Y-552646998D01*
X506730000Y-552646998D02*
X507746988Y-551630010D01*
X517709990Y-551630010D02*
X519430000Y-549910000D01*
%TO.N,Net-(U12-Pad5)*%
X503738462Y-539750000D02*
X502920000Y-539750000D01*
X527868462Y-515620000D02*
X503738462Y-539750000D01*
X528320000Y-515620000D02*
X527868462Y-515620000D01*
X456673209Y-520806799D02*
X459213209Y-523346799D01*
X434898337Y-523346799D02*
X437224739Y-525673201D01*
X433781663Y-523346799D02*
X434898337Y-523346799D01*
X431241663Y-525886799D02*
X433781663Y-523346799D01*
X417723201Y-525886799D02*
X431241663Y-525886799D01*
X416560000Y-527050000D02*
X417723201Y-525886799D01*
X415396799Y-520871799D02*
X415461799Y-520806799D01*
X435438201Y-523133201D02*
X433813209Y-523133201D01*
X417658201Y-523133201D02*
X415461799Y-523133201D01*
X433813209Y-523133201D02*
X431273209Y-525673201D01*
X431273209Y-525673201D02*
X420198201Y-525673201D01*
X420198201Y-525673201D02*
X417658201Y-523133201D01*
X459213209Y-523346799D02*
X472546799Y-523346799D01*
X415461799Y-523133201D02*
X415396799Y-523068201D01*
X437978201Y-525673201D02*
X435438201Y-523133201D01*
X415396799Y-523068201D02*
X415396799Y-520871799D01*
X437224739Y-525673201D02*
X437978201Y-525673201D01*
X415461799Y-520806799D02*
X456673209Y-520806799D01*
X472546799Y-523346799D02*
X474980000Y-525780000D01*
%TO.N,Net-(U12-Pad18)*%
X455930000Y-537210000D02*
X455930000Y-568960000D01*
%TO.N,Net-(U11-Pad2)*%
X560070000Y-568960000D02*
X566420000Y-568960000D01*
X575245001Y-506665001D02*
X552450000Y-483870000D01*
X575245001Y-560134999D02*
X575245001Y-506665001D01*
X566420000Y-568960000D02*
X575245001Y-560134999D01*
%TO.N,Net-(U16-Pad3)*%
X551286799Y-575416799D02*
X552450000Y-576580000D01*
X551286799Y-548533201D02*
X551286799Y-575416799D01*
X554990000Y-544830000D02*
X551286799Y-548533201D01*
%TO.N,Net-(U16-Pad5)*%
X545993201Y-575416799D02*
X544830000Y-576580000D01*
X545993201Y-548746799D02*
X545993201Y-575416799D01*
X549910000Y-544830000D02*
X545993201Y-548746799D01*
%TO.N,Net-(U16-Pad7)*%
X543666799Y-545993201D02*
X543666799Y-575203201D01*
X543666799Y-575203201D02*
X542290000Y-576580000D01*
X544830000Y-544830000D02*
X543666799Y-545993201D01*
%TO.N,Net-(U4-Pad3)*%
X425450000Y-484310000D02*
X429260000Y-480500000D01*
X437480000Y-480500000D02*
X440690000Y-483710000D01*
X429260000Y-480500000D02*
X437480000Y-480500000D01*
%TO.N,Net-(U12-Pad27)*%
X539750000Y-515620000D02*
X518160000Y-537210000D01*
X518160000Y-537210000D02*
X500380000Y-554990000D01*
%TO.N,Net-(U12-Pad26)*%
X542290000Y-515620000D02*
X508000000Y-549910000D01*
X508000000Y-549910000D02*
X506730000Y-549910000D01*
X502920000Y-549910000D02*
X497840000Y-554990000D01*
X504190000Y-549910000D02*
X502920000Y-549910000D01*
X482083796Y-549365001D02*
X495844999Y-549365001D01*
X465364999Y-532646204D02*
X482083796Y-549365001D01*
X465364999Y-531781999D02*
X465364999Y-532646204D01*
X474980000Y-529590000D02*
X467556998Y-529590000D01*
X467556998Y-529590000D02*
X465364999Y-531781999D01*
X495844999Y-549365001D02*
X496570000Y-548640000D01*
X499110000Y-553720000D02*
X497840000Y-554990000D01*
X499110000Y-552450000D02*
X499110000Y-553720000D01*
%TO.N,Net-(U12-Pad23)*%
X491383201Y-556153201D02*
X490220000Y-554990000D01*
X501756799Y-555548337D02*
X501151935Y-556153201D01*
X501151935Y-556153201D02*
X491383201Y-556153201D01*
X505458471Y-550729991D02*
X501756799Y-554431663D01*
X501756799Y-554431663D02*
X501756799Y-555548337D01*
X509720009Y-550729991D02*
X505458471Y-550729991D01*
X544830000Y-515620000D02*
X509720009Y-550729991D01*
X483870000Y-535940000D02*
X483870000Y-546100000D01*
X490220000Y-551180000D02*
X490220000Y-554990000D01*
%TO.N,Net-(U12-Pad25)*%
X547370000Y-515620000D02*
X514350000Y-548640000D01*
X514350000Y-548640000D02*
X513080000Y-548640000D01*
X501650000Y-548640000D02*
X495300000Y-554990000D01*
X502920000Y-548640000D02*
X501650000Y-548640000D01*
X422365001Y-562065001D02*
X422365001Y-588554999D01*
X420370000Y-560070000D02*
X422365001Y-562065001D01*
X422365001Y-588554999D02*
X421640000Y-589280000D01*
X495480001Y-571319999D02*
X495480001Y-558980001D01*
X495480001Y-558980001D02*
X495300000Y-558800000D01*
%TO.N,Net-(U12-Pad4)*%
X549910000Y-515620000D02*
X525780000Y-539750000D01*
%TO.N,Net-(U12-Pad28)*%
X552450000Y-515620000D02*
X516890000Y-551180000D01*
X507548462Y-551180000D02*
X503738462Y-554990000D01*
X503738462Y-554990000D02*
X502920000Y-554990000D01*
X516890000Y-551180000D02*
X507548462Y-551180000D01*
X436880000Y-537210000D02*
X436880000Y-551180000D01*
X431074999Y-559133285D02*
X431074999Y-572044999D01*
X431649847Y-558558437D02*
X431074999Y-559133285D01*
X431074999Y-572044999D02*
X431800000Y-572770000D01*
X502920000Y-570775000D02*
X502920000Y-554990000D01*
X501650000Y-572045000D02*
X502920000Y-570775000D01*
%TO.N,Net-(U12-Pad3)*%
X508451538Y-539750000D02*
X508000000Y-539750000D01*
X553826799Y-514456799D02*
X533744739Y-514456799D01*
X554990000Y-515620000D02*
X553826799Y-514456799D01*
X511400769Y-536800769D02*
X508451538Y-539750000D01*
X533744739Y-514456799D02*
X511400769Y-536800769D01*
%TO.N,Net-(U12-Pad31)*%
X557530000Y-515620000D02*
X516890000Y-556260000D01*
X511810000Y-556260000D02*
X510540000Y-554990000D01*
X516890000Y-556260000D02*
X511810000Y-556260000D01*
X509270000Y-556260000D02*
X510540000Y-554990000D01*
X509270000Y-572770000D02*
X509270000Y-556260000D01*
X435503201Y-555730389D02*
X431800000Y-559433590D01*
X434340000Y-527050000D02*
X435503201Y-528213201D01*
X435503201Y-528213201D02*
X435503201Y-555730389D01*
X431800000Y-559433590D02*
X431800000Y-568960000D01*
X510540000Y-574040000D02*
X510540000Y-554990000D01*
%TO.N,Net-(U10-Pad13)*%
X471170000Y-511810000D02*
X472440000Y-513080000D01*
X472440000Y-513080000D02*
X474980000Y-513080000D01*
X480324999Y-503279999D02*
X485659999Y-503279999D01*
X485659999Y-503279999D02*
X489110000Y-506730000D01*
X477520000Y-506084998D02*
X480324999Y-503279999D01*
X477520000Y-513080000D02*
X477520000Y-506084998D01*
%TO.N,Net-(U11-Pad14)*%
X542290000Y-503370010D02*
X521150010Y-503370010D01*
X521150010Y-503370010D02*
X518160000Y-500380000D01*
X466090000Y-511810000D02*
X466090000Y-514350000D01*
X466090000Y-514350000D02*
X468630000Y-516890000D01*
X511810000Y-527050000D02*
X514350000Y-524510000D01*
X529696799Y-513791663D02*
X538028462Y-505460000D01*
X529696799Y-515964739D02*
X529696799Y-513791663D01*
X506623201Y-540308337D02*
X506623201Y-539038337D01*
X506018337Y-540913201D02*
X506623201Y-540308337D01*
X499821663Y-540913201D02*
X506018337Y-540913201D01*
X499216799Y-540308337D02*
X499821663Y-540913201D01*
X499216799Y-539191663D02*
X499216799Y-540308337D01*
X514350000Y-524510000D02*
X513898462Y-524510000D01*
X542290000Y-505460000D02*
X542290000Y-503370010D01*
X538028462Y-505460000D02*
X542290000Y-505460000D01*
X506623201Y-539038337D02*
X529696799Y-515964739D01*
X513898462Y-524510000D02*
X499216799Y-539191663D01*
X542290000Y-508000000D02*
X542290000Y-505460000D01*
%TO.N,Net-(U11-Pad13)*%
X544830000Y-508000000D02*
X544830000Y-504190000D01*
X544830000Y-504190000D02*
X544830000Y-502920000D01*
X544830000Y-502920000D02*
X521970000Y-502920000D01*
X521970000Y-502920000D02*
X519430000Y-500380000D01*
X515620000Y-494030000D02*
X504190000Y-494030000D01*
X504190000Y-494030000D02*
X504190000Y-491490000D01*
X467546401Y-505273599D02*
X475166401Y-505273599D01*
X461010000Y-511810000D02*
X467546401Y-505273599D01*
X475166401Y-505273599D02*
X483870000Y-496570000D01*
%TO.N,Net-(U11-Pad12)*%
X547370000Y-508000000D02*
X547370000Y-502100010D01*
X547370000Y-502100010D02*
X524960010Y-502100010D01*
X524960010Y-502100010D02*
X524510000Y-501650000D01*
X519430000Y-495300000D02*
X501650000Y-495300000D01*
X501650000Y-495300000D02*
X501650000Y-492760000D01*
X501650000Y-492760000D02*
X501650000Y-491490000D01*
X456902701Y-512782701D02*
X456902701Y-514052701D01*
X455930000Y-511810000D02*
X456902701Y-512782701D01*
X456902701Y-514052701D02*
X463550000Y-520700000D01*
X463550000Y-520700000D02*
X476250000Y-520700000D01*
X476250000Y-520700000D02*
X476250000Y-505460000D01*
X476250000Y-505460000D02*
X485140000Y-496570000D01*
%TO.N,Net-(U11-Pad11)*%
X549910000Y-508000000D02*
X549910000Y-501650000D01*
X549910000Y-501650000D02*
X528320000Y-501650000D01*
X528320000Y-501650000D02*
X527050000Y-501650000D01*
X527050000Y-501650000D02*
X525780000Y-500380000D01*
X521970000Y-496570000D02*
X499110000Y-496570000D01*
X499110000Y-496570000D02*
X499110000Y-491490000D01*
X465117299Y-503723103D02*
X466740392Y-502100010D01*
X465117299Y-504062299D02*
X465117299Y-503723103D01*
X464016897Y-505162701D02*
X465117299Y-504062299D01*
X466740392Y-502100010D02*
X470719990Y-502100010D01*
X450850000Y-511810000D02*
X457497299Y-505162701D01*
X457497299Y-505162701D02*
X464016897Y-505162701D01*
X470719990Y-502100010D02*
X477520000Y-495300000D01*
%TO.N,Net-(U14-Pad14)*%
X528320000Y-491490000D02*
X528320000Y-496570000D01*
X528320000Y-496570000D02*
X529590000Y-497840000D01*
X529590000Y-497840000D02*
X552450000Y-497840000D01*
X552450000Y-502920000D02*
X552450000Y-508000000D01*
X451822701Y-504317701D02*
X451822701Y-505757299D01*
X452923103Y-503217299D02*
X451822701Y-504317701D01*
X455930000Y-504190000D02*
X454957299Y-503217299D01*
X454957299Y-503217299D02*
X452923103Y-503217299D01*
X451822701Y-505757299D02*
X445770000Y-511810000D01*
X536243963Y-493305000D02*
X530135000Y-493305000D01*
X530135000Y-493305000D02*
X528320000Y-491490000D01*
%TO.N,Net-(U14-Pad13)*%
X525780000Y-491490000D02*
X525780000Y-495297180D01*
X525780000Y-495297180D02*
X529592820Y-499110000D01*
X529592820Y-499110000D02*
X552452820Y-499110000D01*
X552452820Y-499110000D02*
X556066962Y-502724142D01*
X556066962Y-502724142D02*
X556455858Y-502724142D01*
X441960000Y-502492299D02*
X428832299Y-502492299D01*
X428832299Y-502492299D02*
X425450000Y-499110000D01*
X452120000Y-488950000D02*
X463550000Y-488950000D01*
%TO.N,Net-(U14-Pad12)*%
X523240000Y-491490000D02*
X523240000Y-493393590D01*
X529776400Y-499929990D02*
X552636400Y-499929990D01*
X523240000Y-493393590D02*
X529776400Y-499929990D01*
X552636400Y-499929990D02*
X552636401Y-499929991D01*
X552636401Y-499929991D02*
X558166410Y-505460000D01*
X558166410Y-505460000D02*
X558800000Y-505460000D01*
X480060000Y-497659999D02*
X476069999Y-501650000D01*
X476069999Y-501650000D02*
X474980000Y-501650000D01*
%TO.N,Net-(U14-Pad11)*%
X520700000Y-491490000D02*
X529590000Y-500380000D01*
X552450000Y-500380000D02*
X560070000Y-508000000D01*
X529590000Y-500380000D02*
X552450000Y-500380000D01*
X479515001Y-495844999D02*
X483325001Y-495844999D01*
X471170000Y-504190000D02*
X479515001Y-495844999D01*
X483325001Y-495844999D02*
X484589799Y-494580201D01*
X484589799Y-494580201D02*
X484589799Y-494505105D01*
%TO.N,Net-(U7-Pad15)*%
X467005986Y-491490000D02*
X474625986Y-483870000D01*
X474625986Y-483870000D02*
X474980000Y-483870000D01*
X466090000Y-491490000D02*
X467005986Y-491490000D01*
X474980000Y-483870000D02*
X474980000Y-491490000D01*
%TO.N,Net-(U10-Pad3)*%
X468630000Y-482972300D02*
X469002300Y-482600000D01*
X468630000Y-483870000D02*
X468630000Y-482972300D01*
X488950000Y-482600000D02*
X490220000Y-483870000D01*
X469002300Y-482600000D02*
X488950000Y-482600000D01*
X490220000Y-483870000D02*
X491490000Y-482600000D01*
X510540000Y-482600000D02*
X511810000Y-483870000D01*
X491490000Y-482600000D02*
X510540000Y-482600000D01*
X511810000Y-483870000D02*
X513080000Y-482600000D01*
X532130000Y-482600000D02*
X533400000Y-483870000D01*
X513080000Y-482600000D02*
X532130000Y-482600000D01*
X533400000Y-483870000D02*
X534670000Y-482600000D01*
X553720000Y-482600000D02*
X554990000Y-483870000D01*
X534670000Y-482600000D02*
X553720000Y-482600000D01*
X454957299Y-483403103D02*
X457030402Y-481330000D01*
X454957299Y-484336897D02*
X454957299Y-483403103D01*
X449226907Y-490067289D02*
X454957299Y-484336897D01*
X425852446Y-490067289D02*
X449226907Y-490067289D01*
X416407290Y-499512445D02*
X425852446Y-490067289D01*
X416407290Y-511826888D02*
X416407290Y-499512445D01*
X418713133Y-514132731D02*
X416407290Y-511826888D01*
X480259999Y-510180001D02*
X480259999Y-517326411D01*
X481170000Y-509270000D02*
X480259999Y-510180001D01*
X480259999Y-517326411D02*
X476174747Y-521411663D01*
X476174747Y-521411663D02*
X460903201Y-521411663D01*
X460903201Y-521411663D02*
X453624269Y-514132731D01*
X453624269Y-514132731D02*
X418713133Y-514132731D01*
X457030402Y-481330000D02*
X466090000Y-481330000D01*
%TO.N,Net-(U11-Pad10)*%
X496215986Y-483870000D02*
X496570000Y-483870000D01*
X488595986Y-491490000D02*
X496215986Y-483870000D01*
X487680000Y-491490000D02*
X488595986Y-491490000D01*
X496570000Y-483870000D02*
X496570000Y-491490000D01*
%TO.N,Net-(U12-Pad2)*%
X459740000Y-527050000D02*
X461010000Y-528320000D01*
X461010000Y-528320000D02*
X495300000Y-528320000D01*
X514350000Y-535940000D02*
X510540000Y-539750000D01*
X514350000Y-535940000D02*
X515620000Y-535940000D01*
X515620000Y-535940000D02*
X521970000Y-529590000D01*
%TO.N,Net-(U12-Pad13)*%
X474980000Y-532130000D02*
X482600000Y-539750000D01*
X466090000Y-532130000D02*
X474980000Y-532130000D01*
X482600000Y-539750000D02*
X482600000Y-543560000D01*
X543015001Y-551724999D02*
X542290000Y-552450000D01*
X543666799Y-545356791D02*
X543015001Y-546008589D01*
X551073201Y-544271663D02*
X550468337Y-543666799D01*
X551073201Y-545388337D02*
X551073201Y-544271663D01*
X551286799Y-576053209D02*
X548533201Y-573299611D01*
X551286799Y-577138337D02*
X551286799Y-576053209D01*
X571113001Y-596964539D02*
X551286799Y-577138337D01*
X571113001Y-606921841D02*
X571113001Y-596964539D01*
X564651281Y-613383561D02*
X571113001Y-606921841D01*
X522650387Y-613383561D02*
X564651281Y-613383561D01*
X522623948Y-613410000D02*
X522650387Y-613383561D01*
X543666799Y-544271663D02*
X543666799Y-545356791D01*
X548533201Y-547928337D02*
X551073201Y-545388337D01*
X521970000Y-613410000D02*
X522623948Y-613410000D01*
X521943561Y-613383561D02*
X521970000Y-613410000D01*
X544271663Y-543666799D02*
X543666799Y-544271663D01*
X511186870Y-613383561D02*
X521943561Y-613383561D01*
X503870426Y-615871423D02*
X508699008Y-615871423D01*
X503250704Y-615251701D02*
X503870426Y-615871423D01*
X503250704Y-614412564D02*
X503250704Y-615251701D01*
X502197797Y-613359657D02*
X503250704Y-614412564D01*
X486614655Y-613359657D02*
X502197797Y-613359657D01*
X543015001Y-546008589D02*
X543015001Y-551724999D01*
X508699008Y-615871423D02*
X511186870Y-613383561D01*
X478896799Y-605641801D02*
X486614655Y-613359657D01*
X478896799Y-554431663D02*
X478896799Y-605641801D01*
X548533201Y-573299611D02*
X548533201Y-547928337D01*
X480878462Y-552450000D02*
X478896799Y-554431663D01*
X550468337Y-543666799D02*
X544271663Y-543666799D01*
X486410000Y-552450000D02*
X480878462Y-552450000D01*
X487680000Y-551180000D02*
X486410000Y-552450000D01*
%TO.N,Net-(U12-Pad14)*%
X477520000Y-537210000D02*
X480060000Y-539750000D01*
X471170000Y-537210000D02*
X477520000Y-537210000D01*
X535395001Y-547914999D02*
X540294999Y-547914999D01*
X533400000Y-549910000D02*
X535395001Y-547914999D01*
X540294999Y-547914999D02*
X542290000Y-549910000D01*
%TO.N,Net-(U12-Pad15)*%
X477520000Y-542290000D02*
X477520000Y-539750000D01*
X533400000Y-552450000D02*
X537210000Y-548640000D01*
%TO.N,Net-(U12-Pad30)*%
X460266791Y-528213201D02*
X481963590Y-549910000D01*
X452120000Y-527050000D02*
X453283201Y-528213201D01*
X453283201Y-528213201D02*
X460266791Y-528213201D01*
X481963590Y-549910000D02*
X499110000Y-549910000D01*
X508000000Y-552450000D02*
X508000000Y-554990000D01*
X521970000Y-552450000D02*
X528320000Y-552450000D01*
X528320000Y-552450000D02*
X534670000Y-558800000D01*
X534670000Y-558800000D02*
X539750000Y-558800000D01*
X539750000Y-558800000D02*
X539750000Y-552450000D01*
%TO.N,Net-(U10-Pad10)*%
X489110000Y-511810000D02*
X489110000Y-514350000D01*
%TO.N,Net-(U10-Pad9)*%
X502169999Y-513439999D02*
X503080000Y-514350000D01*
X502169999Y-509464997D02*
X502169999Y-513439999D01*
X495985001Y-503279999D02*
X502169999Y-509464997D01*
X492309991Y-505265007D02*
X494294999Y-503279999D01*
X494294999Y-503279999D02*
X495985001Y-503279999D01*
X492309991Y-513690009D02*
X492309991Y-505265007D01*
X489110000Y-516890000D02*
X492309991Y-513690009D01*
%TO.N,Net-(U10-Pad1)*%
X488199999Y-514953197D02*
X488199999Y-518679999D01*
X481086802Y-507840000D02*
X488199999Y-514953197D01*
X480933198Y-507840000D02*
X481086802Y-507840000D01*
X480259999Y-507166801D02*
X480933198Y-507840000D01*
X481170000Y-504190000D02*
X480259999Y-505100001D01*
X480259999Y-505100001D02*
X480259999Y-507166801D01*
X488950000Y-519430000D02*
X489110000Y-519430000D01*
X488199999Y-518679999D02*
X488950000Y-519430000D01*
%TO.N,Net-(U11-Pad15)*%
X517805986Y-483870000D02*
X518160000Y-483870000D01*
X510185986Y-491490000D02*
X517805986Y-483870000D01*
X509270000Y-491490000D02*
X510185986Y-491490000D01*
X518160000Y-483870000D02*
X518160000Y-491490000D01*
%TO.N,Net-(U12-Pad24)*%
X560070000Y-549910000D02*
X557530000Y-552450000D01*
X560070000Y-544830000D02*
X560070000Y-549910000D01*
X506098597Y-515260001D02*
X508278598Y-513080000D01*
X502643199Y-515260001D02*
X506098597Y-515260001D01*
X495140000Y-506730000D02*
X495140000Y-507756802D01*
X495140000Y-507756802D02*
X502643199Y-515260001D01*
X508278598Y-513080000D02*
X527050000Y-513080000D01*
X510540000Y-510818598D02*
X508278598Y-513080000D01*
X510540000Y-508000000D02*
X510540000Y-510818598D01*
X552450000Y-557530000D02*
X557530000Y-552450000D01*
X552450000Y-565150000D02*
X552450000Y-557530000D01*
X565150000Y-516890000D02*
X560070000Y-521970000D01*
X560070000Y-544830000D02*
X560070000Y-521970000D01*
X539750000Y-508000000D02*
X540913201Y-509163201D01*
X559963201Y-509163201D02*
X565150000Y-514350000D01*
X540913201Y-509163201D02*
X559963201Y-509163201D01*
X565150000Y-514350000D02*
X565150000Y-516890000D01*
%TO.N,Net-(U13-Pad13)*%
X547370000Y-491490000D02*
X548640000Y-492760000D01*
X548640000Y-492760000D02*
X560070000Y-492760000D01*
X574794991Y-507484991D02*
X574794991Y-541535009D01*
X560070000Y-492760000D02*
X574794991Y-507484991D01*
X574794991Y-541535009D02*
X574040000Y-542290000D01*
X574040000Y-542290000D02*
X572770000Y-542290000D01*
X503080000Y-506730000D02*
X506730000Y-506730000D01*
X506730000Y-506730000D02*
X515620000Y-497840000D01*
X515620000Y-497840000D02*
X525780000Y-497840000D01*
X529590000Y-495300000D02*
X530860000Y-494030000D01*
X530860000Y-494030000D02*
X542290000Y-494030000D01*
X544830000Y-494030000D02*
X547370000Y-491490000D01*
%TO.N,Net-(U13-Pad11)*%
X546100000Y-491659598D02*
X541189598Y-496570000D01*
X546100000Y-491320402D02*
X546100000Y-491659598D01*
X546903103Y-490517299D02*
X546100000Y-491320402D01*
X549910000Y-491490000D02*
X548937299Y-490517299D01*
X548937299Y-490517299D02*
X546903103Y-490517299D01*
X541189598Y-496570000D02*
X529590000Y-496570000D01*
X515168462Y-499110000D02*
X503080000Y-511198462D01*
X503080000Y-511198462D02*
X503080000Y-511810000D01*
X527050000Y-499110000D02*
X515168462Y-499110000D01*
%TO.N,Net-(U14-Pad15)*%
X539395986Y-483870000D02*
X539750000Y-483870000D01*
X531775986Y-491490000D02*
X539395986Y-483870000D01*
X530860000Y-491490000D02*
X531775986Y-491490000D01*
X539750000Y-483870000D02*
X539750000Y-491490000D01*
%TD*%
M02*
